<?xml version="1.0" encoding="utf-8"?>
<!-- Generator: Adobe Illustrator 19.2.1, SVG Export Plug-In . SVG Version: 6.00 Build 0)  -->
<svg version="1.1" id="Layer_1" xmlns="http://www.w3.org/2000/svg" xmlns:xlink="http://www.w3.org/1999/xlink" x="0px" y="0px"
	 viewBox="0 0 410 158" style="enable-background:new 0 0 410 158;" xml:space="preserve">
<style type="text/css">
	.st0{fill:#FFFFFF;}
</style>
<title>capital-one</title>
<g>
	<path id="Icon" class="st0" d="M266.9,113.2C266.9,113.2,266.9,113.2,266.9,113.2c-15.9,11.3-34.7,23.1-54.9,35.4l-0.8,0.5
		c-0.3,0.2-0.3,0.6-0.1,0.8c0,0,0,0,0,0c0.2,0.3,0.6,0.3,0.8,0.2c0,0,0,0,0,0l0.7-0.4c17.1-8.9,36.8-19.6,56.6-30.5
		c0.1-0.1,0.2-0.1,0.3-0.2C268.4,117.3,267.6,115.3,266.9,113.2z M371,28.9c-25-27.6-185.8-2.8-254.2,12.2l-1.6,0.3
		c-0.3,0.1-0.6,0.4-0.5,0.7s0.4,0.6,0.7,0.5c0,0,0,0,0,0l1.6-0.3c56.7-10.1,174.5-24.1,199.9,1.1c7.7,7.7,5.9,17.6-3.1,29.2
		c5,3.3,8.5,8.3,9.8,14.1C358.6,63.4,382.2,41.2,371,28.9z"/>
	<g id="Wordmark">
		<path class="st0" d="M277.1,106c0.3,9.7,6.5,17.6,14.5,17.6c15.5,0,22.1-19,21.7-31.8c-0.3-9.7-6.6-17.7-14.6-17.7
			C285.2,74.2,276.6,93.1,277.1,106z M268.9,105.4C268.3,88.9,281.3,72,300.1,72c12.6,0,20.8,8.4,21.3,21.3
			c0.6,17.5-11.5,33.5-31.2,33.5C277.6,126.7,269.3,118.3,268.9,105.4z"/>
		<path class="st0" d="M90.4,101.1c-0.9,0.3-1.7,0.6-2.6,0.7c-1.1,0.2-3,0.6-5.9,1c-1.4,0.1-2.8,0.6-4.1,1.3c-0.7,0.5-1.2,1.2-1.3,2
			c-0.2,0.8,0.2,1.6,0.9,2.1c1.2,0.6,2.5,0.9,3.8,0.8c1.3,0,2.6-0.2,3.9-0.6c1.2-0.4,2.2-0.9,3.2-1.7c0.6-0.5,1.1-1.2,1.4-2
			C90,103.5,90.2,102.3,90.4,101.1z M106.8,90.9c-0.1,1.7-0.4,3.5-0.7,5.2l-2.8,15.6c-0.3,1.3,0.4,2.6,1.6,3.2l-0.1,0.6l-15.9,0
			l-0.1-4c-2.4,1.4-4.9,2.5-7.6,3.3c-2.5,0.7-5,1-7.6,0.9c-5.1,0-8.1-0.5-10.1-2.3c-2.1-1.8-3.1-3-3-5.6c0.2-1.7,0.8-3.3,1.9-4.6
			c1.2-1.3,2.6-2.3,4.2-2.9c2-0.9,4.2-1.5,6.4-1.8c2.8-0.5,6.7-0.9,11.9-1.3c1.8-0.1,3.5-0.5,5.2-1.2c0.9-0.2,1.5-0.9,1.7-1.8
			c0.3-1.6-0.2-2.5-2.3-2.9c-5.7-1.1-16.4,0.7-22,2.1l3-8.1c7-1.1,14.2-1.7,21.3-1.7C103.2,83.4,106.9,86.7,106.8,90.9z"/>
		<path class="st0" d="M152.8,115.4l5.5-31.1h15.2l-5.5,31.1H152.8z M159.1,77.2c0.5-2.6,4.5-4.6,9-4.6c4.5,0,7.8,2.1,7.4,4.6
			c-0.5,2.6-4.5,4.6-9,4.6C161.9,81.8,158.6,79.7,159.1,77.2L159.1,77.2z"/>
		<path class="st0" d="M227.4,101.1c-0.7,0.2-1.6,0.5-2.6,0.7c-1.1,0.3-3,0.6-5.9,1c-1.4,0.1-2.8,0.6-4.1,1.3
			c-0.7,0.5-1.2,1.2-1.3,2c-0.2,0.8,0.2,1.6,0.9,2.1c1.2,0.6,2.5,0.9,3.8,0.8c1.3,0,2.6-0.2,3.9-0.6c1.2-0.4,2.3-0.9,3.2-1.7
			c0.6-0.6,1.1-1.2,1.4-2C226.9,103.6,227.2,102.4,227.4,101.1z M243.8,90.9c-0.1,1.7-0.4,3.5-0.8,5.2l-2.8,15.6
			c-0.3,1.3,0.4,2.6,1.5,3.2l-0.1,0.5l-15.9,0l-0.1-4c-2.4,1.4-4.9,2.5-7.6,3.3c-2.5,0.7-5.1,1-7.6,0.9c-5.1,0-8-0.5-10.1-2.3
			c-2.1-1.8-3.1-3-3-5.6c0.1-1.7,0.8-3.3,1.9-4.6c1.2-1.3,2.6-2.3,4.2-3c2-0.9,4.2-1.5,6.3-1.8c2.8-0.4,6.7-0.9,12-1.3
			c1.8-0.1,3.5-0.5,5.2-1.1c0.9-0.2,1.6-0.9,1.7-1.8c0.3-1.6-0.2-2.5-2.3-2.9c-5.7-1.1-16.4,0.7-22,2.1l3-8.1
			c7-1.1,14.2-1.7,21.3-1.8C240.2,83.5,243.9,86.8,243.8,90.9L243.8,90.9z"/>
		<path class="st0" d="M58.4,104.3c-4.1,0.9-8.4,1.4-12.6,1.4c-7.3,0-13-3.6-12.7-10.2c0.2-4.4,5.4-13.7,18.7-13.7
			c4.2-0.1,8.3,1,11.8,3.2l1.9-10.8c-4.8-1.9-9.9-2.8-15-2.5c-17.4,0.2-34,8.1-36.1,24.1c-2.1,16.3,17.8,20.4,26.7,20.4
			c5.1,0,10.4-0.2,15.4-0.7L58.4,104.3z"/>
		<path class="st0" d="M181.8,84.2l1.1-6.3l15.9-3.5l-1.7,9.8h7.8l-1.5,6.3l-7.5,0l-4.6,25c0,0-15.3-0.1-15.4,0l4.6-24.9h-5.8
			l1.2-6.3H181.8z"/>
		<polygon class="st0" points="259.2,115.4 243.7,115.4 251.5,72.1 266.6,72.5 		"/>
		<path class="st0" d="M132.7,91.6c-1.9,0-3.8,0.6-5.4,1.8c-1.7,1.3-2.7,3.2-3,5.3c-0.5,2.7-0.2,4.7,0.9,5.9
			c1.2,1.3,2.9,1.9,4.7,1.8c1.3,0,2.6-0.2,3.9-0.8c1.2-0.6,2.2-1.5,3-2.6c0.8-1.2,1.4-2.6,1.7-4.1c0.4-2.5,0.1-4.3-1.1-5.5
			C136.1,92.2,134.4,91.5,132.7,91.6z M105,126.2l7.4-41.7h13.3l-1,5.3c1.5-1.8,3.4-3.2,5.6-4c2.7-1.2,5.7-1.8,8.6-1.8
			c3.5,0,5.6,0.2,8.2,1.5c2.5,1.2,4.4,3.3,5.4,5.9c1,2.7,1.2,5.6,0.7,8.5c-0.8,4.9-3.5,9.3-7.5,12.2c-4.1,3-7.7,3.8-13,3.8
			c-1.6,0-3.2-0.2-4.7-0.5c-1.1-0.2-2.1-0.7-3-1.2c-0.9-0.6-1.8-1.4-2.5-2.3l-2.5,14.3C120,126.2,105,126.2,105,126.2z"/>
		<path class="st0" d="M380.8,95.5c-0.1-2.5-1.3-4.2-3.9-4.2c-6.2,0-12.9,12.2-14,17.1C373.1,108.4,381,102.3,380.8,95.5z
			 M382.1,114.6l1.2,0.8c-3,6.2-9.2,11.2-16.5,11.2c-5.9,0-10.8-4-11.1-11.4c-0.5-13.3,12-25.7,22.2-25.7c4.4,0,8.4,1.9,8.6,6.6
			c0.4,10.6-14.5,13.8-24.3,14c-0.3,1.3-0.5,2.6-0.4,3.9c0.2,4.4,2.8,8.1,8.3,8.1C375,122.2,379.7,118.3,382.1,114.6L382.1,114.6z"
			/>
		<path class="st0" d="M321.2,95.1c1.1-0.1,2.8-0.3,3.5-0.3c1.1,0,2.2,0.2,2.2,1.3c0,0.7-1.2,5.4-1.4,6.5l-2.4,10.4
			c-1,4.3-2,8.8-2.9,12.3h6.1l3.4-16.6c10.4-10.9,14.5-14.4,16.9-14.4c1-0.1,1.8,0.6,1.9,1.6c0,0.1,0,0.2,0,0.3
			c0.1,1.9-1.1,6.3-1.5,7.5l-3.5,12.1c-0.8,2.2-1.2,4.6-1.3,6.9c0.1,2.7,1.7,3.8,4.1,3.8c4.4,0,7.7-4.6,10.5-9.2l-0.8-1.5
			c-1.1,1.8-3.8,5.8-5.9,5.8c-0.7,0-1.3-0.6-1.3-1.4c0-0.1,0-0.1,0-0.2c0.1-1.7,0.4-3.3,0.9-4.9l3.9-14.1c0.8-2.5,1.3-5.1,1.5-7.7
			c0.1-2-1.4-3.7-3.4-3.9c-0.2,0-0.4,0-0.7,0c-4,0-9.3,2.9-20.6,15.9h-0.2l1.4-6.3c0.8-3.5,1.5-7.1,2.3-9.6
			c-4.2,1.5-8.5,2.7-12.9,3.6L321.2,95.1z"/>
	</g>
	<path id="Trademark" class="st0" d="M387.5,83.9c0-3,2.4-5.5,5.4-5.5c3,0,5.5,2.4,5.5,5.4c0,3-2.4,5.5-5.4,5.5c0,0,0,0,0,0
		c-3,0.1-5.4-2.3-5.5-5.3C387.5,84,387.5,83.9,387.5,83.9z M393,88.4c2.5,0.1,4.6-1.9,4.6-4.4c0.1-2.5-1.9-4.6-4.4-4.6
		c-2.5-0.1-4.6,1.9-4.6,4.4c0,0,0,0.1,0,0.1c-0.1,2.4,1.8,4.4,4.2,4.5C392.9,88.4,392.9,88.4,393,88.4L393,88.4z M391.9,87h-1v-6.2
		h2.4c1.5,0,2.2,0.5,2.2,1.8c0.1,0.9-0.6,1.7-1.5,1.7c0,0-0.1,0-0.1,0l1.8,2.7h-1.1l-1.6-2.7h-1.1L391.9,87L391.9,87z M393,83.5
		c0.8,0,1.5-0.1,1.5-1c0-0.8-0.7-0.9-1.4-0.9h-1.3v1.9H393L393,83.5z"/>
</g>
</svg>
