<?xml version="1.0" encoding="utf-8"?>
<!-- Generator: Adobe Illustrator 19.2.1, SVG Export Plug-In . SVG Version: 6.00 Build 0)  -->
<svg version="1.1" id="Layer_1" xmlns="http://www.w3.org/2000/svg" xmlns:xlink="http://www.w3.org/1999/xlink" x="0px" y="0px"
	 viewBox="0 0 320 56" style="enable-background:new 0 0 320 56;" xml:space="preserve">
<style type="text/css">
	.st0{fill:#FFFFFF;}
</style>
<title>eatstreet</title>
<g>
	<path class="st0" d="M49,14.2h21.9v5.7H55.3v5.9h13.7v5.7H55.3v6.1h15.8v5.7H49V14.2z"/>
	<path class="st0" d="M86.9,14h5.9l12.5,29.4h-6.7l-2.7-6.5H83.6l-2.7,6.5h-6.5L86.9,14z M93.6,31.2l-3.9-9.5l-3.9,9.5
		C85.9,31.2,93.6,31.2,93.6,31.2z"/>
	<path class="st0" d="M116.6,20.1h-8.9v-5.9h24.2v5.9H123v23.2h-6.4V20.1z"/>
	<path class="st0" d="M147.5,43.8c-2.2,0-4.3-0.4-6.3-1.2c-2-0.9-3.8-2-5.4-3.5l1.4-1.6c0.7,0.7,1.5,1.4,2.4,1.9
		c1.5,1.1,3.2,1.8,5.1,2.1c1,0.2,2,0.3,3,0.3c1,0,2-0.1,3-0.4c0.8-0.3,1.6-0.7,2.3-1.2c0.6-0.5,1.1-1.1,1.5-1.8
		c0.4-0.7,0.5-1.5,0.5-2.3V36c0-0.7-0.1-1.4-0.4-2.1c-0.3-0.7-0.7-1.2-1.3-1.7c-0.8-0.6-1.6-1-2.5-1.4c-1.3-0.5-2.7-0.8-4.1-1.1
		c-1.5-0.3-3-0.7-4.5-1.3c-1.1-0.4-2.1-1-3.1-1.7c-0.8-0.6-1.3-1.4-1.7-2.3c-0.4-0.9-0.6-1.9-0.5-3v-0.1c0-1,0.2-2.1,0.7-3
		c0.5-0.9,1.1-1.8,2-2.4c0.9-0.7,1.9-1.3,3-1.6c1.2-0.4,2.5-0.6,3.7-0.6c1.9,0,3.7,0.3,5.5,0.9c1.6,0.6,3.2,1.5,4.5,2.7l-1.4,1.7
		c-2.4-2.2-5.5-3.4-8.7-3.3c-1,0-2,0.1-2.9,0.4c-0.8,0.3-1.6,0.7-2.2,1.2c-0.6,0.5-1.1,1.1-1.4,1.7c-0.3,0.7-0.5,1.4-0.5,2.1v0.1
		c0,0.7,0.1,1.4,0.4,2.1c0.3,0.7,0.7,1.3,1.3,1.7c0.8,0.6,1.7,1.1,2.6,1.4c1.4,0.5,2.8,0.9,4.2,1.2c3.4,0.7,5.8,1.7,7.3,2.9
		c1.5,1.3,2.3,3.1,2.2,5.1v0.1c0,1.1-0.2,2.2-0.7,3.2c-0.5,1-1.2,1.8-2,2.5c-0.9,0.7-1.9,1.3-3,1.6
		C150.1,43.6,148.8,43.8,147.5,43.8z"/>
	<path class="st0" d="M174.4,16.2h-10.2v-2h22.5v2h-10.2v27.2h-2.2L174.4,16.2L174.4,16.2z"/>
	<path class="st0" d="M195.4,14.2h12.2c1.6,0,3.3,0.2,4.8,0.8c1.3,0.4,2.4,1.2,3.4,2.1c0.7,0.7,1.2,1.5,1.6,2.4c0.4,0.9,0.6,2,0.6,3
		v0.1c0,1.1-0.2,2.2-0.6,3.3c-0.4,0.9-1,1.8-1.8,2.5c-0.8,0.7-1.7,1.3-2.7,1.7c-1.1,0.4-2.2,0.7-3.4,0.9l9.6,12.5h-2.7l-9.3-12.1
		h-9.5v12.1h-2.2L195.4,14.2L195.4,14.2z M207.4,29.3c1.1,0,2.3-0.1,3.4-0.5c1-0.3,1.9-0.7,2.7-1.3c0.7-0.6,1.3-1.3,1.8-2.1
		c0.4-0.9,0.7-1.8,0.6-2.8v-0.1c0.1-1.8-0.7-3.6-2.2-4.7c-1.8-1.2-4-1.9-6.2-1.7h-10v13.2H207.4L207.4,29.3z"/>
	<path class="st0" d="M227.6,14.2h20.7v2h-18.6v11.5h16.7v2h-16.7v11.7h18.8v2h-20.9V14.2z"/>
	<path class="st0" d="M257.6,14.2h20.7v2h-18.6v11.5h16.7v2h-16.7v11.7h18.8v2h-20.9V14.2z"/>
	<path class="st0" d="M295.7,16.2h-10.2v-2H308v2h-10.2v27.2h-2.2L295.7,16.2L295.7,16.2z"/>
</g>
<polygon class="st0" points="11,11.1 11,45.8 22.9,45.8 22.9,39.9 18.4,39.9 18.4,39.7 18.4,34 18.4,16.5 21.1,16.5 21.1,34 24,34 
	24,16.5 26.8,16.5 26.8,34 29.7,34 29.7,16.5 32.5,16.5 32.5,34 32.5,39.7 32.5,39.9 28,39.9 28,45.8 39.7,45.8 39.7,11.1 "/>
</svg>
