<?xml version="1.0" encoding="utf-8"?>
<!-- Generator: Adobe Illustrator 19.2.1, SVG Export Plug-In . SVG Version: 6.00 Build 0)  -->
<svg version="1.1" id="Layer_1" xmlns="http://www.w3.org/2000/svg" xmlns:xlink="http://www.w3.org/1999/xlink" x="0px" y="0px"
	 viewBox="0 0 1000 400" style="enable-background:new 0 0 1000 400;" xml:space="preserve">
<style type="text/css">
	.st0{fill:#FFFFFF;}
</style>
<title>ibm</title>
<path class="st0" d="M27.5,11v25.9h183.9V11H27.5z M237.5,11v25.9h262.1c0,0-26.8-25.9-62.2-25.9H237.5z M551.1,11v25.9h158.6
	L700.2,11H551.1z M823.3,11l-9.4,25.9h157.1V11H823.3z M27.5,61.3v25.9h183.9V61.3H27.5z M237.5,61.3v25.8H530
	c0,0-3.4-19.9-9.4-25.8C520.7,61.3,237.5,61.3,237.5,61.3z M551.1,61.3v25.8h176l-8.7-25.8C718.3,61.3,551.1,61.3,551.1,61.3z
	 M804.5,61.3l-8.7,25.8h175.3V61.3L804.5,61.3L804.5,61.3z M80.4,111.6v25.9H160v-25.9H80.4z M290.4,111.6v25.9H370v-25.9H290.4
	L290.4,111.6z M447.5,111.6v25.9h79.7c0,0,5.1-13.7,5.1-25.9H447.5z M603.9,111.6v25.9h141.2l-9.4-25.9H603.9z M787.2,111.6
	l-9.5,25.9h141.9v-25.9H787.2z M80.4,161.9v25.9H160v-25.9H80.4z M290.4,161.9v25.9h203.5c0,0,17-13.3,22.4-25.9H290.4L290.4,161.9z
	 M603.9,161.9v25.9h79.7v-14.4l5.1,14.4h145.9l5.4-14.4v14.4h79.7v-25.9H770.1l-7.9,21.9l-8-21.9H603.9z M80.4,212.2v25.9H160v-25.9
	L80.4,212.2L80.4,212.2z M290.4,212.2v25.9h225.9c-5.4-12.6-22.4-25.9-22.4-25.9H290.4L290.4,212.2z M603.9,212.2v25.9h79.7v-25.9
	L603.9,212.2L603.9,212.2z M698,212.2l9.6,25.9h109.4l9.2-25.9H698z M840,212.2v25.9h79.7v-25.9L840,212.2L840,212.2z M80.4,262.5
	v25.9H160v-25.9L80.4,262.5L80.4,262.5z M290.4,262.5v25.9H370v-25.9L290.4,262.5L290.4,262.5z M447.5,262.5v25.9h84.7
	c0-12.2-5.1-25.9-5.1-25.9H447.5z M603.9,262.5v25.9h79.7v-25.9L603.9,262.5L603.9,262.5z M716.1,262.5l9.3,25.9h73.3l9.4-25.9
	H716.1z M840,262.5v25.9h79.7v-25.9L840,262.5L840,262.5z M28.9,312.8v25.9h183.9v-25.9C212.9,312.8,28.9,312.8,28.9,312.8z
	 M237.5,312.8v25.9h283.2c6-5.9,9.4-25.9,9.4-25.9H237.5L237.5,312.8z M552.5,312.8v25.9h131.1v-25.9H552.5z M734.3,312.8l9.6,25.9
	h37.3l9-25.9H734.3z M840,312.8v25.9h132.5v-25.9H840z M28.9,363.1V389h183.9v-25.9H28.9z M237.5,363.1V389h199.9
	c35.5,0,62.2-25.8,62.2-25.8H237.5L237.5,363.1z M552.5,363.1V389h131.1v-25.9H552.5z M752.5,363.1l9.2,25.8l1.6,0l9.4-25.8H752.5
	L752.5,363.1z M840,363.1V389h132.5v-25.9H840L840,363.1z"/>
</svg>
