<?xml version="1.0" encoding="utf-8"?>
<!-- Generator: Adobe Illustrator 19.2.1, SVG Export Plug-In . SVG Version: 6.00 Build 0)  -->
<svg version="1.1" id="Layer_1" xmlns="http://www.w3.org/2000/svg" xmlns:xlink="http://www.w3.org/1999/xlink" x="0px" y="0px"
	 viewBox="0 0 612 404.2" style="enable-background:new 0 0 612 404.2;" xml:space="preserve">
<style type="text/css">
	.st0{fill:#FFFFFF;}
</style>
<title>intel</title>
<g>
	<path class="st0" d="M291.1,348.1c-112.6,10.4-229.9-6-246.3-93.9c-8-43.4,11.7-89.3,37.9-117.9V121
		C35.5,162.4,10,214.8,24.7,276.7C43.5,356,144.2,401,297.9,386.1c60.8-5.9,140.4-25.5,195.7-55.9v-43.2
		C443.4,317,360.3,341.7,291.1,348.1z M587.6,120C560.9-10.4,307.8-18.6,144.7,80.7v11C307.6,7.9,538.8,8.4,559.8,128.5
		c7.1,39.7-15.3,81.1-55.3,104.9v31.2C552.6,246.9,601.9,189.9,587.6,120z"/>
	<path class="st0" d="M484.5,101H455v131.4c0,15.4,7.4,28.8,29.5,30.9V101z"/>
	<path class="st0" d="M133.1,149h-29.6l0,85.9c0,15.5,7.5,28.8,29.6,30.9V149z"/>
	<rect x="103.5" y="105" class="st0" width="29.5" height="28"/>
	<path class="st0" d="M309.8,264.4c-23.9,0-34-16.6-34-33v-114h29.3V149h22v23.6h-22v57.1c0,6.7,3.2,10.4,10.1,10.4h11.9v24.4H309.8
		"/>
	<path class="st0" d="M363.7,215.9c0,15,9.4,26,25.9,26c13,0,19.4-3.6,26.9-11l18.1,17.2c-11.6,11.4-23.7,18.4-45.2,18.4
		c-28,0-54.8-15.3-54.8-59.8c0-38.1,23.4-59.6,54.2-59.6c31.2,0,49.2,25.2,49.2,58.3v10.6L363.7,215.9 M387.4,171.2
		c-10,0-17.7,5.2-21,12.1c-1.8,3.9-2.8,8.2-2.8,12.6h45.1C408.2,183.3,402.5,171.2,387.4,171.2L387.4,171.2z"/>
	<path class="st0" d="M212.6,172.6c8.6,0,12.1,4.2,12.1,11.1v80.9H254v-81c0-16.4-8.7-34.6-34.4-34.6l-60.4,0v115.6h29.3v-92H212.6
		L212.6,172.6z"/>
	<path class="st0" d="M516.2,124.5c-6.5,0-11.7-5.3-11.7-11.8c0-6.5,5.3-11.7,11.8-11.7c6.5,0,11.7,5.3,11.7,11.7
		c0,6.5-5.2,11.7-11.6,11.7C516.3,124.5,516.3,124.5,516.2,124.5z M516.2,103c-5.4,0-9.7,4.4-9.7,9.8s4.4,9.7,9.8,9.7
		c5.4,0,9.7-4.4,9.7-9.7C526,107.4,521.6,103,516.2,103z M521.4,119.8h-2.2c-0.2,0-0.4-0.1-0.4-0.3l-3-5c-0.1-0.1-0.3-0.2-0.4-0.2
		h-1.4v5c0,0.3-0.2,0.5-0.5,0.5c0,0,0,0,0,0h-2c-0.3,0-0.5-0.3-0.5-0.5v-12.7c-0.1-0.5,0.2-1,0.7-1.1c0.1,0,0.1,0,0.2,0
		c0.7-0.1,2.6-0.2,3.6-0.2c3.7,0,5.8,1.1,5.8,4.5v0.2c0.2,1.7-1,3.3-2.6,3.8l3.1,5.3c0.1,0.1,0.1,0.2,0.1,0.4
		C521.9,119.6,521.7,119.8,521.4,119.8C521.5,119.8,521.5,119.8,521.4,119.8z M518.6,109.7c0-1.4-0.9-1.9-2.8-1.9H514v4
		c0.3,0,1.6,0.1,1.9,0.1c1.9,0,2.8-0.6,2.8-2L518.6,109.7L518.6,109.7z"/>
</g>
</svg>
