<?xml version="1.0" encoding="utf-8"?>
<!-- Generator: Adobe Illustrator 19.2.1, SVG Export Plug-In . SVG Version: 6.00 Build 0)  -->
<svg version="1.1" id="Layer_1" xmlns="http://www.w3.org/2000/svg" xmlns:xlink="http://www.w3.org/1999/xlink" x="0px" y="0px"
	 viewBox="0 0 202 204" style="enable-background:new 0 0 202 204;" xml:space="preserve">
<style type="text/css">
	.st0{fill:#FFFFFF;}
</style>
<title>l-3</title>
<g>
	<path class="st0" d="M7.1,102.1c0,21.1,7.1,41.6,20.3,58.1V44C14.2,60.5,7,81,7.1,102.1z"/>
	<path class="st0" d="M100.6,8.6c-22.2,0-43.6,7.8-60.5,22.2h31.3v106.3h55.5c-11.7-3.5-19.7-12.5-18.9-27.4h17.7
		c-0.2,9.2,4.3,13.8,13.9,13.8c6.4,0,12.6-2.8,12.6-9.6c0-8.6-6.2-10.6-13.8-10.6c-1.7,0-3.3,0.1-5,0.2V90.5c1.7-0.1,3.3,0.2,5,0.1
		c5.6,0,12.6-1.4,12.6-8.1c0-5-5-7.8-11.1-7.8c-7.7,0-12.1,4-12,11h-17.7c0.4-17.3,13-26.4,29.6-26.4c13.5,0,28.9,5.7,28.9,21.5
		c0,6.8-3.7,13.9-10.8,15.1v0.2c8.9,2.3,13.2,8.7,13.2,17.8c0,17.6-16,24.9-31.4,24.9c-1.7,0-3.3-0.1-5-0.3v35.1H40.6
		c39.6,33.1,98.5,27.9,131.7-11.7s27.9-98.5-11.7-131.7C143.7,16.3,122.5,8.6,100.6,8.6z"/>
</g>
</svg>
