<?xml version="1.0" encoding="utf-8"?>
<!-- Generator: Adobe Illustrator 19.2.1, SVG Export Plug-In . SVG Version: 6.00 Build 0)  -->
<svg version="1.1" id="Layer_1" xmlns="http://www.w3.org/2000/svg" xmlns:xlink="http://www.w3.org/1999/xlink" x="0px" y="0px"
	 viewBox="0 0 310.3 94.2" style="enable-background:new 0 0 310.3 94.2;" xml:space="preserve">
<style type="text/css">
	.st0{fill:#FFFFFF;}
</style>
<title>merck</title>
<g>
	<path class="st0" d="M18.6,18.6C18.6,8.3,26.9,0,37.2,0c10.2,0,18.5,8.3,18.5,18.5H18.6"/>
	<path class="st0" d="M0,37.1c0-10.3,8.3-18.6,18.6-18.6c10.3,0,18.6,8.3,18.6,18.6s-8.3,18.6-18.6,18.6C8.3,55.7,0,47.4,0,37.1
		C0,37.1,0,37.1,0,37.1"/>
	<path class="st0" d="M55.7,55.7c0,10.3-8.3,18.6-18.6,18.5c-10.2,0-18.5-8.3-18.5-18.5H55.7"/>
	<path class="st0" d="M55.7,18.6c10.3,0,18.6,8.3,18.6,18.5c0,10.3-8.3,18.6-18.5,18.6c0,0,0,0-0.1,0c-10.3,0-18.6-8.3-18.5-18.6
		C37.2,26.9,45.5,18.6,55.7,18.6"/>
	<polyline class="st0" points="132.2,55.7 123.7,55.7 123.7,30.7 112.8,55.7 101.3,30.7 101.3,55.7 93.4,55.7 93.4,18.6 104.7,18.6 
		112.9,37.8 120.7,18.6 132.2,18.6 	"/>
	<polyline class="st0" points="142.7,18.6 157.9,18.6 157.9,25.1 144.8,25.1 144.8,33.6 157.4,33.6 157.4,40 144.8,40 144.8,49.4 
		157.9,49.4 157.9,55.7 136.5,55.7 136.5,18.6 	"/>
	<path class="st0" d="M219.5,20.4c-11-6.5-29.6,0.7-29.6,16.7c0,13.8,14.4,24.9,29.6,17.5v-8c-11.7,8.2-21.9,0-21.7-9.2
		c0.1-6.1,4.2-11.9,12.2-12.4c3.6-0.4,7.1,1,9.5,3.6V20.4"/>
	<polygon class="st0" points="223,55.7 230.9,55.7 230.9,18.9 223,18.9 223,55.7 	"/>
	<polyline class="st0" points="245.4,55.7 231.7,35.8 243.5,19 252.7,19 240.8,35.8 254.5,55.7 	"/>
	<path class="st0" d="M174.5,35.6c3,0.1,5.5-2.3,5.6-5.3c0-1.5-0.3-5.5-6.5-5.5h-3.6v10.8H174.5z M161.6,18.6h14.6
		c8.6,0,12.2,6.9,12.2,11.2c0,4.2-1.6,8.5-6.7,10.4l10.9,15.6h-8.9l-13.8-20v20h-8.3L161.6,18.6"/>
	<path class="st0" d="M219.2,69.7c-0.4,0-0.7,0.4-1,1.2c-0.4,1.4-1.8,6.2-2.4,8.3c0,0.2,0.2,0.4,0.4,0.4c0,0,0,0,0,0
		c1.3,0.1,2.7-0.2,3.9-0.6c1.9-1,3.2-3,3.2-5.2c0-2.2-1.7-4-4-4.1C219.3,69.7,219.3,69.7,219.2,69.7 M219.8,81.9
		c-1.1-1-2.6-1.5-4-1.4c-0.3,0.1-0.5,0.3-0.5,0.5c-1,2.9-1.9,5.8-2.6,8.7c-0.2,0.7,0,1.4,0.5,1.9c0.6,0.5,1.4,0.9,2.3,0.9
		c1.7-0.2,3.3-1.1,4.3-2.4c1-1.2,1.5-2.7,1.6-4.2C221.4,84.5,220.8,83.1,219.8,81.9 M221.1,79.8c-0.1,0-0.3,0.1-0.3,0.3
		c0,0.1,0.1,0.2,0.2,0.3c1.3,0.5,2.5,1.1,3.5,2c1.1,1,1.7,2.5,1.6,4c-0.1,2.6-1.7,5-4.1,6.1c-1.6,0.8-4.8,1.4-8.1,1.4
		c-2.2,0-3.3-0.2-4.9-0.2c-0.4,0-3.4,0.2-4.7,0.2c-0.4,0.1-0.8-0.1-1.1-0.5c0-0.3,0.3-0.5,1.2-0.6c2.6-0.3,2.8-0.9,3.8-3.6
		c0.9-2.1,4.5-14.2,5.1-16.9c0.3-1.1,0.4-1.9-0.7-2.1c-0.3,0-1.1-0.1-1.7-0.2c-0.5,0-0.9-0.2-1.1-0.6c0.2-0.4,0.7-0.6,1.1-0.5h4.4
		c0.4,0,2.9-0.3,5-0.3c1.8-0.1,3.6,0.2,5.3,1c1.3,0.8,2.2,2.3,2.2,3.9C227.8,77,224.8,78.9,221.1,79.8"/>
	<path class="st0" d="M233.8,84.7c0,0.2,0,0.5,0.2,0.4c3.4-1.2,5.2-3.8,5.2-5.2c0-0.7-0.3-1.1-0.7-1.1
		C236.8,78.8,234.6,81.9,233.8,84.7 M242.3,80.4c0,1.8-1.6,3.2-3.5,4.1c-1.6,0.7-3.3,1.2-5,1.6c-0.3,0.1-0.5,0.3-0.5,0.6
		c-0.2,0.8-0.4,1.5-0.4,2.3c0,1.5,0.9,2.3,1.8,2.3c1.6-0.1,3-0.8,4.1-2c0.3-0.3,0.6-0.5,0.9-0.6c0.1,0,0.3,0.1,0.3,0.3
		c-0.1,0.4-0.2,0.8-0.5,1.2c-1.7,2.3-4.4,3.6-7.2,3.8c-1.2,0-3.6-1.7-3.6-4.5c0-2.7,1.9-6.6,4-8.8c1.6-1.8,3.9-2.9,6.3-3.1
		C241.5,77.7,242.3,79.2,242.3,80.4"/>
	<path class="st0" d="M257.8,78.4c0.2,0.9,0.1,1.8-0.2,2.7c-1,2.5-2.5,6.3-3,7.8c-0.5,1.3-0.4,2.5,0.2,2.5c1,0,2.9-1.3,4.8-4.1
		c0.4-0.5,0.7-1.1,0.9-1.8c0.3-1.1,0.7-2.6,1-3.6c0.2-0.7,0.5-1.4,1.1-2c0.7-0.6,1.6-1,2.6-1c1.2,0,0.9,1.6,0.5,3
		c-0.6,1.4-1.3,2.9-2.1,4.2c-0.4,0.8-0.6,1.7-0.7,2.6c-0.2,1.3,0,2.8,1.3,2.8c1.1-0.1,2.2-0.7,2.9-1.6c1.8-1.8,2.9-4.2,3-6.8
		c0-1-0.2-1.9-0.7-2.7c-0.1-0.2-0.1-0.5,0-0.7c0.7-1,1.7-1.7,2.9-2c0.7,0,1,1.1,1,2.5c0,4.6-5,11-8.7,13.1c-1,0.6-2.1,1-3.3,1
		c-1.6,0-2.5-2-1.9-4.7c0-0.2-0.2-0.3-0.4-0.1c-1.1,1.2-2.3,2.3-3.6,3.3c-1,0.9-2.2,1.4-3.6,1.4c-1.1,0-1.9-1.1-1.8-2.7
		c0.1-1.2,0.5-2.4,0.9-3.5c0.8-2.2,1.8-4.7,2.5-6.5c0.2-0.3,0-0.4-0.2-0.4c-1.2,0.4-2.2,1-3.1,1.8c-0.3,0.2-0.4-0.1-0.4-0.3
		c0-0.4,0.2-0.7,0.4-1c1.1-1.4,4.4-3.8,6.5-3.8C257.2,77.7,257.6,78,257.8,78.4"/>
	<g>
		<path class="st0" d="M279,84.7c0,0.2,0,0.5,0.2,0.4c3.4-1.2,5.2-3.8,5.2-5.2c0-0.7-0.3-1.1-0.7-1.1C282,78.8,279.8,81.9,279,84.7
			 M287.5,80.4c0,1.8-1.6,3.2-3.5,4.1c-1.6,0.7-3.3,1.2-5,1.6c-0.3,0.1-0.5,0.3-0.6,0.6c-0.2,0.8-0.4,1.5-0.4,2.3
			c0,1.5,0.9,2.3,1.8,2.3c1.6-0.1,3-0.8,4.1-2c0.3-0.3,0.6-0.5,0.9-0.6c0.1,0,0.3,0.1,0.3,0.3c-0.1,0.4-0.2,0.8-0.5,1.2
			c-1.8,2.3-4.4,3.6-7.2,3.8c-1.2,0-3.6-1.7-3.6-4.5c0-2.7,1.9-6.6,4-8.8c1.6-1.8,3.9-2.9,6.3-3.1C286.7,77.7,287.5,79.2,287.5,80.4
			"/>
		<path class="st0" d="M304.1,67c0.4-0.1,3.6-0.5,4.7-0.8c0.4-0.1,0.8-0.2,1.1-0.2c0.4,0,0.4,0.7,0.2,1.2
			c-2.7,7.1-7.7,21.5-8.5,23.7c-0.3,0.9-0.1,1.4,0.2,1.4c0.8,0,3.5-3,4.3-3.7c0.1-0.1,0.3-0.1,0.4,0c0.1,0,0.1,0.1,0.1,0.2
			c0,0.4-0.2,0.8-0.3,1.2c-1.4,2.5-3.9,4.1-6.8,4.3c-1,0-1.9-0.7-2.1-1.7c0.3-1.3,0.6-2.6,1.1-3.8c1.6-4.5,4.2-11.9,6.5-18.5
			c0.5-1.5,0.3-1.7-0.9-2c-0.4,0-0.7-0.2-0.9-0.5C303.4,67.3,303.7,67.1,304.1,67"/>
	</g>
	<path class="st0" d="M294.2,67c0.4-0.1,3.6-0.5,4.7-0.8c0.4-0.1,0.8-0.2,1.1-0.2c0.4,0,0.4,0.7,0.2,1.2c-2.7,7.1-7.7,21.5-8.5,23.7
		c-0.3,0.9-0.1,1.4,0.2,1.4c0.8,0,3.5-3,4.3-3.7c0.1-0.1,0.3-0.1,0.4,0c0.1,0,0.1,0.1,0.1,0.2c0,0.4-0.2,0.8-0.3,1.2
		c-1.4,2.5-3.9,4.1-6.8,4.3c-1,0-1.9-0.7-2.1-1.7c0.3-1.3,0.6-2.6,1.1-3.8c1.6-4.5,4.2-11.9,6.5-18.5c0.6-1.5,0.4-1.7-0.9-2
		c-0.4,0-0.7-0.2-0.9-0.5C293.5,67.3,293.8,67.1,294.2,67"/>
</g>
</svg>
