<?xml version="1.0" encoding="utf-8"?>
<!-- Generator: Adobe Illustrator 19.2.1, SVG Export Plug-In . SVG Version: 6.00 Build 0)  -->
<svg version="1.1" id="LOGOS" xmlns="http://www.w3.org/2000/svg" xmlns:xlink="http://www.w3.org/1999/xlink" x="0px" y="0px"
	 viewBox="0 0 423.2 115" style="enable-background:new 0 0 423.2 115;" xml:space="preserve">
<style type="text/css">
	.st0{fill:#FFFFFF;}
</style>
<title>mongodb</title>
<g>
	<g>
		<path class="st0" d="M29.3,112.1l-3-1c0,0,0.4-15.2-5.1-16.2c-3.6-4.2,0.6-178.5,13.7-0.6c0,0-4.5,2.3-5.3,6.1
			C28.7,104.2,29.3,112.1,29.3,112.1z"/>
		<path class="st0" d="M30.9,97.5c0,0,26-17.1,19.9-52.8C45,18.9,31.1,10.4,29.6,7.1c-1.3-2-2.4-4.2-3.3-6.4l1.1,72.1
			C27.4,72.8,25.2,94.9,30.9,97.5z"/>
		<path class="st0" d="M24.8,98.5c0,0-24.4-16.7-23-46.1C3.2,23,20.4,8.6,23.8,5.9C26,3.6,26,2.7,26.2,0.4
			c1.5,3.3,1.3,48.8,1.4,54.2C28.3,75.4,26.5,94.5,24.8,98.5z"/>
		<path class="st0" d="M303.5,43.8c1.4,0,6.7,0.2,9.2,0.2c4.6,0,7.8-0.2,16.4-0.2c7.2,0,13.3,1.9,17.7,5.7
			c5.3,4.5,8.1,10.9,8.1,18.6c0,11-5,17.3-10,20.9c-5,3.7-11.5,5.8-20.8,5.8c-4.9,0-13.4-0.2-20.5-0.2h-0.1
			c-0.3-0.7,0.6-3.2,1.2-3.2c1.1,0,2.3-0.3,3.3-0.7c1.5-0.6,1.8-1.4,2-4.1c0.2-5,0.2-11,0.2-17.9c0-4.9,0.1-14.4-0.1-17.4
			c-0.2-2.5-1.3-3.2-3.5-3.7c-1.5-0.3-3.1-0.6-4.6-0.7C301.8,46.5,303,44.3,303.5,43.8z M319.9,89c1.7,1.4,5.2,1.9,8.2,1.9
			c4.3,0.2,8.4-1.3,11.6-4.1c3.9-3.5,6.5-8.9,6.5-17.4c0-8.2-3.1-14.9-9.5-18.8c-3.6-2.3-8.3-3.2-13.7-3.2c-1.4-0.1-2.7,0.1-4,0.5
			c-0.4,0.3-0.6,0.7-0.7,1.1c-0.2,1.5-0.2,12.6-0.2,19.2c0,6.7,0,16.2,0.2,17.3C318.3,86.9,318.9,88.1,319.9,89z"/>
		<path class="st0" d="M361.8,43.8c0.7,0,2.9,0.2,8.5,0.2c5.3,0,9.5-0.2,14.6-0.2c6.3,0,15.1,2.3,15.1,11.7c0,4.6-3.3,8.4-7.6,10.2
			c-0.2,0.1-0.2,0.2,0,0.3c6.1,1.5,11.4,5.3,11.4,12.4c0,7-4.4,11.4-10.7,14.1c-3.9,1.7-8.6,2.3-13.5,2.3c-3.7,0-13.6-0.4-19.1-0.3
			c-0.6-0.2,0.5-2.8,1-3.2c1.3,0,2.5-0.2,3.7-0.6c2-0.5,2.2-1.1,2.5-4c0.2-2.5,0.2-11.5,0.2-18c0-8.8,0.1-14.7,0-17.6
			c-0.1-2.3-0.9-3-2.5-3.4c-1.2-0.2-3.3-0.5-4.9-0.7C360.1,46.6,361.4,44.1,361.8,43.8z M395.3,80.3c0-7.1-5.3-11.2-14.9-11.2
			c-1.4-0.1-2.8,0-4.2,0.1c-0.2,0-0.4,0.2-0.5,0.4c0,5.1-0.1,13.3,0.2,16.6c0.2,1.4,1.2,3.3,2.4,3.9c1.3,0.7,4.3,0.9,6.3,0.9
			C390.3,90.9,395.3,87.8,395.3,80.3z M376.6,47.8c-0.4,0.3-0.7,0.8-0.7,1.3c-0.1,2.9-0.2,10.6-0.2,15.8c0,0.2,0.2,0.4,0.4,0.4
			c1.1,0.1,3.7,0.2,5.9,0.2c3.1,0,4.9-0.4,5.9-0.9c2.6-1.3,3.9-4.1,3.9-7.2c0-7.1-4.9-9.7-12.3-9.7
			C378.6,47.6,377.6,47.7,376.6,47.8L376.6,47.8z"/>
		<path class="st0" d="M67.5,94.8c-0.2-0.5-0.3-1.1-0.3-1.6c0-0.4,0.1-0.8,0.3-1.1c1.1-0.2,2.1-0.4,3.2-0.6c1.5-0.4,2-1.1,2.1-3
			C73,84,73,75.8,72.9,70l0-0.2c0.1-0.8-0.2-1.6-0.8-2.1c-1.4-0.8-2.8-1.5-4.4-1.9c-0.5,0-1-0.5-1-1c0.2-0.6,0.7-1.1,1.4-1.1
			c3.8-0.5,7.5-1.5,11.1-2.9c0.3,0.3,0.4,0.8,0.3,1.2c0,0.3,0,0.5-0.1,0.8c-0.1,0.8-0.1,1.7-0.1,2.7c0,0.3,0.3,0.5,0.6,0.5
			c0.2,0,0.3-0.1,0.4-0.2c4.7-3.7,8.8-5,11-5c3.5,0,6.3,1.7,8.4,5.2c0.1,0.2,0.3,0.3,0.5,0.3c0.2,0,0.3-0.1,0.4-0.2
			c4.3-3.3,8.6-5.2,11.4-5.2c6.7,0,10.8,5,10.8,13.5c0,2.4,0,5.5,0,8.4c0,2.5,0,4.9,0,6.5c0.1,0.8,0.6,1.4,1.3,1.7
			c1.4,0.5,2.8,0.9,4.2,1l0.1,0c0.1,0.9-0.1,1.9-0.4,2.7c-0.4,0-1.1,0-1.8-0.1c-1.4-0.1-3.3-0.2-5.5-0.2c-4.5,0-6.8,0.1-9,0.2
			c-0.2-0.9-0.2-1.8,0-2.7c0.9-0.2,1.8-0.4,2.7-0.6c1.4-0.5,1.8-1.1,1.9-3c0-1.3,0.3-13.2-0.2-16c-0.4-3.7-3.7-6.5-7.4-6.3
			c-2.7,0.2-5.3,1.1-7.4,2.8c-0.2,0.2-0.3,0.4-0.3,0.7l0,0.1c0.3,2,0.4,4,0.3,6c0,1.5,0,3.1,0,4.7c0,3.3,0,6.3,0,8.7
			c-0.1,1.1,0.7,2,1.7,2.3c0.4,0.1,0.8,0.2,1.1,0.3c0.6,0.2,1.3,0.3,2.3,0.5c0.1,0.7,0.1,1.4,0,2c0,0.3-0.1,0.5-0.3,0.7
			c-2.5-0.1-5-0.2-8.7-0.2c-1.1,0-2.9,0-4.5,0.1c-1.3,0-2.5,0.1-3.2,0.1c-0.2-0.4-0.3-0.9-0.2-1.4c0-0.5,0.1-0.9,0.3-1.3
			c0.3-0.1,0.7-0.1,1-0.2c0.9-0.2,1.6-0.3,2.3-0.5c1.2-0.4,1.7-1,1.8-2.6c0.2-3.6,0.4-14-0.1-16.6c-0.9-4.2-3.3-6.3-7.1-6.3
			C84.7,66,82.1,67,80,68.7c-0.5,0.4-0.7,1-0.7,1.7c0,1.2,0,2.7,0,4.3c0,5.2,0,11.7,0.1,14.6c0,1.2,0.9,2.1,2,2.3
			c0.4,0.1,1,0.2,1.7,0.3c0.4,0.1,0.9,0.1,1.3,0.2c0.1,0.9,0.1,1.9-0.2,2.7c-0.7,0-1.6,0-2.6-0.1c-1.5-0.1-3.5-0.2-5.6-0.2
			c-2.6,0-4.4,0.1-5.8,0.2C69.2,94.7,68.3,94.8,67.5,94.8L67.5,94.8L67.5,94.8z"/>
		<path class="st0" d="M150.4,95.5c-12.4,0-16.8-9.1-16.8-17.5c-0.2-5.5,2.5-10.8,7.2-13.8c3.3-2.1,7.2-3.2,11.1-3.3
			c9.4,0,16,6.8,16,16.5c0,6.6-2.6,11.8-7.6,15.1C157.4,94.3,153.9,95.3,150.4,95.5L150.4,95.5L150.4,95.5z M149.1,64.4
			c-1.4,0-2.8,0.4-3.9,1.1c-2.9,1.7-4.3,5.2-4.3,10.3c0,9.5,4.8,16.2,11.6,16.2c1.8,0.1,3.6-0.6,5-1.8c2.1-1.7,3.2-5.2,3.2-10.1
			C160.7,70.7,156,64.4,149.1,64.4C149.1,64.4,149.1,64.4,149.1,64.4z"/>
		<path class="st0" d="M278.4,95.5c-12.4,0-16.8-9.1-16.8-17.5c-0.2-5.5,2.5-10.8,7.2-13.8c3.3-2.1,7.2-3.2,11.1-3.3
			c9.4,0,16,6.8,16,16.5c0,6.6-2.6,11.8-7.6,15.1C285.3,94.3,281.9,95.3,278.4,95.5L278.4,95.5z M277.1,64.4c-1.4,0-2.8,0.4-3.9,1.1
			c-2.9,1.7-4.3,5.2-4.3,10.3c0,9.5,4.8,16.2,11.6,16.2c1.8,0.1,3.6-0.6,5-1.8c2.1-1.7,3.2-5.2,3.2-10.1
			C288.7,70.7,284,64.4,277.1,64.4L277.1,64.4L277.1,64.4z"/>
		<path class="st0" d="M235.7,115c-4.4,0-7.6-0.9-10.4-3c-2.3-1.7-3.7-4.3-3.8-7.2c0-1.4,0.5-2.7,1.5-3.7c2-2,4.3-3.8,6.7-5.4
			c0.1-0.1,0.2-0.2,0.2-0.3c0-0.2-0.1-0.3-0.3-0.3c-3.4-1.3-4.4-3.4-4.7-4.6c0,0,0-0.1,0-0.2c-0.2-0.5,0-1.1,0.4-1.3
			c0.5-0.3,1.2-0.8,2.1-1.3c1.2-0.6,2.3-1.4,3.3-2.2c0.2-0.2,0.2-0.6,0-0.8c0,0-0.1-0.1-0.1-0.1c-5-1.7-7.6-5.4-7.6-11.1
			c0-3.6,1.7-7,4.7-9.1c3.1-2.1,6.7-3.3,10.4-3.5l0.2,0c2.7,0.1,5.4,0.7,8,1.8c1.5,0.5,3.1,0.8,4.7,0.7c1.9,0.2,3.8-0.5,5.1-1.9
			c0.2,0.5,0.3,1,0.3,1.5c0.1,1.2-0.3,2.4-0.9,3.3c-0.8,0.9-2,1.4-3.2,1.4c-0.1,0-0.2,0-0.4,0c-0.6,0-1.3-0.2-1.9-0.3l-0.3,0.1
			c-0.1,0.2-0.1,0.4,0,0.5c0,0,0,0.1,0,0.1c0.2,1,0.4,2.1,0.5,3.1c0,6-2.4,8.6-4.9,10.5c-2.5,1.9-5.4,3-8.5,3.3h0
			c-0.1,0-0.4,0-1,0.1c-0.4,0-0.9,0.1-1,0.1l-0.1,0c-0.6,0.2-2,0.8-2,2.1c0,1.1,0.7,2.4,3.8,2.6c0.6,0,1.3,0.1,2,0.1
			c4.1,0.3,9.3,0.6,11.7,1.5c3.3,1.2,5.5,4.3,5.4,7.8c0,5.4-3.8,10.4-10.2,13.5C242.4,114.3,239.1,115,235.7,115L235.7,115
			L235.7,115z M235.2,96.2c-1.1,0-2.1,0.2-3.1,0.8c-3,1.9-4.4,3.9-4.4,6.1c0,2.1,0.9,4,2.6,5.2c2.1,1.8,5,2.7,8.7,2.7
			c7.4,0,10.7-4,10.7-7.9c0-2.7-1.4-4.6-4.2-5.6C242.2,96.5,238.7,96,235.2,96.2C235.2,96.2,235.2,96.2,235.2,96.2z M235.7,64.1
			c-3.8,0-6.3,3-6.3,7.7c0,4.7,2.1,10.2,8.1,10.2c1.4,0,2.8-0.5,3.8-1.5c1.4-1.3,2.3-3.9,2.3-6.7C243.6,67.7,240.7,64.1,235.7,64.1
			C235.7,64.1,235.7,64.1,235.7,64.1z"/>
		<path class="st0" d="M215.4,91.9c-1.6-0.1-3.2-0.6-4.7-1.2c-0.3-0.3-0.5-0.7-0.6-1.1c-0.2-2.5-0.2-9.8-0.2-14.6
			c0-3.9-0.7-7.3-2.3-9.7c-1.9-2.8-5-4.4-8.4-4.4c-3.2,0-7.5,2.2-11,5.2c-0.1,0.1-0.6,0.6-0.6-0.2c0-0.8,0.1-2.4,0.2-3.4
			c0.1-0.6-0.1-1.1-0.5-1.5c-3.6,1.4-7.4,2.4-11.2,2.9c-1.8,0.3-2.2,2-0.3,2.6v0l0,0c1.5,0.4,2.9,1,4.2,1.9c0.6,0.5,0.8,1.3,0.7,2
			c0.1,5.4,0.1,13.8-0.2,18.4c-0.1,1.8-0.6,2.4-1.9,2.8l0.1,0c-1,0.3-2,0.4-3,0.6c-0.4,1-0.4,2.2,0,3.2c0.8,0,5-0.2,8.5-0.2
			c4.8,0,7.2,0.2,8.5,0.2c0.5-1,0.6-2.2,0.3-3.2c-1.1-0.1-2.3-0.2-3.4-0.5c-1.3-0.3-1.6-1-1.7-2.4c-0.2-3.8-0.2-11.9-0.2-17.5
			c-0.1-1,0.2-2,0.9-2.7c1.9-1.6,4.3-2.4,6.7-2.4c1.8-0.1,3.6,0.5,5,1.7c1.3,1.2,2.1,2.8,2.3,4.5c0.3,3.1,0.2,9.3,0.2,14.6
			c0,2.9-0.2,3.7-1.3,4c-1.1,0.4-2.2,0.6-3.4,0.6c-0.5,0.5-0.3,2.8,0,3.2c2.1,0,4.6-0.2,8.2-0.2c4.5,0,7.4,0.2,8.6,0.2
			C215.6,94.2,215.7,93,215.4,91.9z"/>
	</g>
	<path class="st0" d="M416.8,94.6c-3.5,0-6.4-2.8-6.4-6.4s2.8-6.4,6.4-6.4c3.5,0,6.3,2.8,6.4,6.3c0.1,3.5-2.6,6.3-6.1,6.4
		C417,94.6,416.9,94.6,416.8,94.6z M416.8,82.5c-3.2,0-5.8,2.6-5.8,5.7c0,3.2,2.6,5.8,5.7,5.8c3.2,0,5.8-2.6,5.8-5.7c0,0,0,0,0,0
		c0.1-3.1-2.4-5.7-5.6-5.8C416.9,82.5,416.9,82.5,416.8,82.5z M418.4,92.3l-1.6-3.5h-1.3v3.5h-1v-8h2.4c1.8,0,2.5,0.8,2.5,2.2
		c0.1,1-0.6,2-1.6,2.1l1.7,3.6L418.4,92.3L418.4,92.3z M415.4,87.9h1.4c1.1,0,1.6-0.4,1.6-1.4c0-1-0.4-1.4-1.7-1.4h-1.3L415.4,87.9
		L415.4,87.9z"/>
</g>
</svg>
