<?xml version="1.0" encoding="utf-8"?>
<!-- Generator: Adobe Illustrator 19.2.1, SVG Export Plug-In . SVG Version: 6.00 Build 0)  -->
<svg version="1.1" id="Layer_1" xmlns="http://www.w3.org/2000/svg" xmlns:xlink="http://www.w3.org/1999/xlink" x="0px" y="0px"
	 viewBox="0 0 714.8 105.6" style="enable-background:new 0 0 714.8 105.6;" xml:space="preserve">
<style type="text/css">
	.st0{fill:#FFFFFF;}
</style>
<title>morgan-stanley</title>
<g id="layer1">
	<path id="path813" class="st0" d="M586.5,0v73.3c-0.1,2.9,1.4,5.6,3.8,7.1c2.1,1.4,5.2,2.1,9.3,2.1c2.1-0.1,4.1-0.4,6.1-0.9v-6.6
		c-1,0.1-2,0.1-3,0.1c-6.2,0-7.1-2.4-7.1-5.1V0L586.5,0L586.5,0z M392.5,0.7c-6.9,0-13.2,2.2-17.6,6.1c-4.3,3.7-6.7,9.1-6.7,14.8
		c0,6.3,2.5,11.2,7.8,15c4.7,3.4,10.8,5.6,16.8,7.7c10.3,3.7,20,7,20,16.4c0.2,3.8-1.3,7.5-4.1,10.2c-2.9,2.7-7.2,4-12.8,4
		c-9.8,0-17-5.4-21-16l-8.8,2.4c1.9,4.3,5.1,10.5,9.8,14.6c5.1,4.6,11.5,6.8,19.5,6.8c9.5,0,16.6-2.4,21.3-7.3
		c4.9-5.1,6-11.6,6-16.1c0-6.5-2.8-11.5-8.3-15.5c-4.9-3.5-11.1-5.7-17.2-7.8c-10-3.4-19.5-6.6-19.4-15c-0.1-3.4,1.3-6.8,3.8-9.1
		c2.5-2.2,6.1-3.2,10.7-3.2c4.5-0.1,8.8,1.3,12.4,4c3.1,2.5,5.3,6,6.2,9.9l8.6-1.1C415.7,8.5,406.5,0.7,392.5,0.7L392.5,0.7z M0,1.9
		v79.7h9.2V8.7l0.2,0.2l21.8,72.6h7.1l22-72.6l0.1-0.2v72.8h9.2V1.9H54.4l-19.5,64v0.2l-0.1-0.2l-19.5-64L0,1.9L0,1.9z M437.2,3.5
		v19.1h-8.8v7.3h8.8v43.4c-0.1,2.8,1.2,5.5,3.6,7.1c2.1,1.4,5.2,2.1,9.3,2.1c2.1-0.1,4.2-0.4,6.2-0.9v-6.6c-1,0.1-2.1,0.1-3.1,0.1
		c-6.2,0-6.8-2.4-6.8-5.1V29.9h9.9v-7.3h-9.9V3.5L437.2,3.5L437.2,3.5z M106.8,21.5c-7.3-0.2-14.3,3.1-18.9,8.9
		c-4.2,5.4-6.6,13.1-6.6,21.6c0,8.5,2.3,16.2,6.6,21.6c8.5,10.4,23.9,11.9,34.3,3.4c1.3-1,2.4-2.2,3.4-3.4
		c4.2-5.4,6.6-13.1,6.6-21.6c0-8.5-2.3-16.2-6.6-21.6C121.2,24.6,114.2,21.3,106.8,21.5L106.8,21.5z M636.6,21.6
		c-3.7-0.1-7.3,0.7-10.7,2.1c-3.1,1.4-5.7,3.5-7.8,6.1c-4.2,5.2-6.6,13-6.6,22.3c0,10.4,3,18.4,8.4,23.7c5.7,5.6,13,6.7,18.1,6.7
		c13.2,0,19.6-7.1,22.3-13.7l-7.3-3.6c-1.8,4-5.9,10.1-15,10.1c-4.9,0.1-9.6-2.1-12.5-6.1c-2.9-3.8-4.6-9.1-4.6-15.4h40.2v-5.6
		c0-9.6-2.6-16.8-7.3-21.2C649.8,23.3,644.1,21.6,636.6,21.6L636.6,21.6z M200.9,21.7c-10.4,0-25.1,7-25.1,30.4
		c0,22.8,14.7,30.4,24.6,30.4c5.8,0,11-3.2,14.6-7.8l0.5-0.2v11.2c0,7.8-6.8,12.7-14,12.7c-6.3,0.1-12.6-1.2-18.4-3.7v7.9
		c4.3,1.8,11.3,3,17.2,3c16.3,0,24.1-9,24.1-22V22.8h-6.8l-2,6.2C212.3,24.3,206.8,21.5,200.9,21.7L200.9,21.7z M260.2,21.7
		c-13,0-19.2,7.8-21.8,12.7l7.3,3.8c1-2.8,4.7-9.2,14.6-9.2c7.8,0,11.8,3.5,11.8,10.3v2.1c0,0.3,0,0.6-0.1,0.9
		c-0.3,0.4-1.1,0.7-3.1,0.9c-10.9,1.2-18.2,3-23.6,6.5c-5.8,3.7-9.4,9-9.4,16.1c0.2,9.5,7.9,17,17.4,17c9.7,0.3,16-3.7,19.1-8.4
		c0.2,3.2,1.4,5.1,4,6.5c2.4,1.3,6.4,1,8.1,0.6v-6.2c-2-0.1-3.4-1.1-3.4-3.6V39.5c0-5.9-2.3-10.7-6.7-13.8
		C270.7,23.1,265.7,21.7,260.2,21.7L260.2,21.7z M323.4,21.7c-6,0-12.1,3.1-17.2,8.9v-7.8H297v58.8h9.2V38
		c3.1-3.3,10.1-8.9,16.5-8.9c6.4,0,9.2,3.1,9.2,10.2v42.4h9.2V39C341,26.3,332,21.7,323.4,21.7L323.4,21.7z M489.6,21.7
		c-13,0-19.2,7.8-21.8,12.7l7.3,3.8c1-2.8,4.7-9.2,14.6-9.2c7.8,0,11.8,3.5,11.8,10.3v2.1c0,0.3-0.1,0.6-0.2,0.9
		c-0.3,0.4-1,0.7-3,0.9c-10.9,1.2-18.2,3-23.6,6.5c-5.8,3.7-9.4,9-9.4,16.1c0.2,9.5,7.9,17,17.4,17c9.7,0.3,16-3.7,19.1-8.4
		c0.2,3.2,1.4,5.1,4,6.5c2.4,1.3,6.4,1,8.1,0.6v-6.2c-2-0.1-3.4-1.1-3.4-3.6V39.5c0.2-5.4-2.4-10.6-6.8-13.8
		C499.4,23,494.5,21.6,489.6,21.7z M552.7,21.7c-6,0-12.1,3.1-17.2,8.9v-7.8h-9.2v58.8h9.2V38c3.1-3.3,10.1-8.9,16.5-8.9
		c6.4,0,9.2,3.1,9.2,10.2v42.4h9.2V39C570.3,26.3,561.3,21.7,552.7,21.7z M172.4,22c-9.3,0-14.8,3.6-19.6,12.2V22.8h-9.2v58.7h9.2
		V48.3c2.3-12.1,8.7-17.7,19.6-17.7V22z M667.4,22.7L687.9,81v0.5c-1.2,5.6-4.8,12.5-7.9,14.6c-2.4,1.5-5.3,2.3-8.2,2.1
		c-1.5-0.1-3-0.3-4.5-0.6v7.1c2,0.5,4,0.8,6.1,0.9c4,0.1,7.9-1.1,11.2-3.4c3.7-2.7,7.8-9.7,9.8-15.8l20.5-63.8h-8.9l-13.4,45.2
		l-0.1,1l-0.2-1l-15.8-45.2L667.4,22.7L667.4,22.7z M106.8,28.8c9.9,0,15.8,8.7,15.8,23.2c0,14.5-5.9,23.2-15.8,23.2
		c-9.9,0-15.8-8.7-15.8-23.2C91.1,37.5,97,28.8,106.8,28.8L106.8,28.8z M201.5,28.9c5.2,0,9.7,2.2,14,7.6v28
		c-2.4,6.8-9.2,10.7-14,10.7c-9.5,0-16-5.9-16-23.6C185.5,36.8,191.4,28.9,201.5,28.9L201.5,28.9z M636.9,28.9
		c10.5,0,15.2,5.6,15.3,17.6h-30.9C622,34.5,627.1,28.9,636.9,28.9L636.9,28.9z M272.4,49.6v14.9c-0.4,5.1-10,11.4-17.9,10.9
		c-4.3-0.2-8.5-3.7-8.9-9.4c-0.7-9.5,6.5-13.5,22.5-15.3C269.5,50.6,271,50.3,272.4,49.6L272.4,49.6z M501.7,49.6v14.9
		c-0.4,5.1-10,11.4-17.9,10.9c-4.3-0.2-8.5-3.7-8.9-9.4c-0.7-9.5,6.5-13.5,22.5-15.3C498.9,50.6,500.3,50.3,501.7,49.6L501.7,49.6z"
		/>
</g>
</svg>
