<?xml version="1.0" encoding="utf-8"?>
<!-- Generator: Adobe Illustrator 19.2.1, SVG Export Plug-In . SVG Version: 6.00 Build 0)  -->
<svg version="1.1" id="Layer_1" xmlns="http://www.w3.org/2000/svg" xmlns:xlink="http://www.w3.org/1999/xlink" x="0px" y="0px"
	 viewBox="0 0 841.9 291" style="enable-background:new 0 0 841.9 291;" xml:space="preserve">
<style type="text/css">
	.st0{fill:#FFFFFF;}
</style>
<title>optum</title>
<g>
	<path class="st0" d="M172,171.2c-3.8,14.8-7.6,30.1-11.3,45.6c16.5,10.7,32.7,21.2,48.8,30.2C197.2,223.7,184.8,197.9,172,171.2"/>
	<path class="st0" d="M172,171.2c14.8,10.5,29.2,21.2,43.4,31c-1.9,14.4-3.9,29.4-5.8,44.8C197.2,223.7,184.8,197.9,172,171.2"/>
	<path class="st0" d="M172,171.2c-3.8,14.8-7.6,30.1-11.3,45.6c-16.5-10.6-33.3-21.4-50.2-31.1C130.6,179.2,151.1,174.4,172,171.2"
		/>
	<path class="st0" d="M172,171.2c-14.7-10.5-29.8-20.9-45.1-30.3c-5.6,14.7-11.1,29.8-16.4,44.8C130.6,179.2,151.1,174.4,172,171.2"
		/>
	<path class="st0" d="M188.8,110.6c-2.5,8.5-5,17.2-7.6,26.3c13.2,10.6,26.1,21.5,38.6,32C209.7,150.6,199.4,130.9,188.8,110.6"/>
	<path class="st0" d="M188.8,110.6c11.9,10.7,23.4,21.8,34.6,32.7c-1.1,8.2-2.3,16.8-3.5,25.6C209.7,150.6,199.4,130.9,188.8,110.6"
		/>
	<path class="st0" d="M172,171.2c3.1-11.8,6.1-23.3,9.2-34.4c13.2,10.6,26.1,21.5,38.6,32C203.9,168.1,187.8,168.9,172,171.2"/>
	<path class="st0" d="M172,171.2c14.8,10.5,29.2,21.2,43.4,31c1.5-11.5,3-22.6,4.5-33.4C203.9,168.1,187.8,168.9,172,171.2"/>
	<path class="st0" d="M188.8,110.6c2.1-7,4.2-13.8,6.2-20.4c10.7,10.8,21.1,22,31,33.1C214.2,117.6,201.7,113.3,188.8,110.6"/>
	<path class="st0" d="M188.8,110.6c11.9,10.7,23.4,21.8,34.6,32.7c0.9-6.9,1.8-13.5,2.7-20C214.2,117.6,201.7,113.3,188.8,110.6"/>
	<path class="st0" d="M188.8,110.6c2.1-7,4.2-13.8,6.2-20.4c-10.7-10.8-21.9-21.2-33.3-30.9C171,76.5,180,93.8,188.8,110.6"/>
	<path class="st0" d="M188.8,110.6c-11.9-10.7-24.2-21.1-36.7-30.7c3.2-7.1,6.4-14,9.7-20.7C171,76.5,180,93.8,188.8,110.6"/>
	<path class="st0" d="M81.3,117c-7.2,14.9-14.1,30-20.9,44.7c16.3,6,33.2,14.5,50.1,24.1C100.9,162.2,91.1,139.1,81.3,117"/>
	<path class="st0" d="M81.3,117c15.8,6.9,31.1,14.9,45.7,24c-5.6,14.7-11.1,29.8-16.4,44.8C100.9,162.2,91.1,139.1,81.3,117"/>
	<path class="st0" d="M81.3,117c-7.2,14.9-14.1,30-20.9,44.7c-16.2-6-31.8-9.6-45.4-9.6C34.8,136.5,57.3,124.6,81.3,117"/>
	<path class="st0" d="M81.3,117c-15-6.4-29.7-10.8-43.2-12.4c-8,16.1-15.6,32.1-23.1,47.6C34.8,136.5,57.3,124.6,81.3,117"/>
	<path class="st0" d="M113.8,54.2c-5.1,8.9-10.1,18.1-15,27.5c-13.9-6.9-27.7-12.2-40.8-15.4C75.8,59,94.7,54.9,113.8,54.2"/>
	<path class="st0" d="M113.8,54.2c-12.1-7.1-24.9-13.1-38.2-17.9c-6,9.7-11.9,19.8-17.5,30C75.8,59,94.7,54.9,113.8,54.2"/>
	<path class="st0" d="M81.3,117c5.7-11.9,11.5-23.7,17.6-35.3c-13.9-6.9-27.7-12.2-40.8-15.4C65.7,82.4,73.5,99.4,81.3,117"/>
	<path class="st0" d="M81.3,117c-15-6.4-29.7-10.8-43.2-12.4c6.4-12.8,13-25.6,20-38.2C65.7,82.4,73.5,99.4,81.3,117"/>
	<path class="st0" d="M113.8,54.2c4.2-7.4,8.5-14.6,12.9-21.5c12.2,8.1,23.9,17,35,26.5C146.1,55.3,129.9,53.6,113.8,54.2"/>
	<path class="st0" d="M113.8,54.2c13.3,7.8,26,16.3,38.2,25.7c3.2-7.1,6.4-14,9.7-20.7C146.1,55.3,129.9,53.6,113.8,54.2"/>
	<path class="st0" d="M113.8,54.2c4.2-7.4,8.5-14.6,12.9-21.5c-11.3-7.6-23.2-14.2-35.6-19.9C98.7,26.2,106.3,40,113.8,54.2"/>
	<path class="st0" d="M113.8,54.2c-12.1-7.1-24.9-13.1-38.2-17.9c5-8.1,10.2-15.9,15.4-23.5C98.7,26.2,106.3,40,113.8,54.2"/>
	<path class="st0" d="M311.6,260.4c-31.7,0-53.8-24-53.8-53.2c0-29.2,22.4-53.5,54.1-53.5c31.7,0,53.8,24,53.8,53.3
		C365.7,236.1,343.3,260.4,311.6,260.4 M311.6,170.3c-20.5,0-34.8,16.4-34.8,36.6c0,20.2,14.6,36.9,35.1,36.9
		c20.5,0,34.8-16.4,34.8-36.6C346.7,187,332.1,170.3,311.6,170.3"/>
	<path class="st0" d="M421.2,225.5h-20.5v33.2h-18.1V155.4h40.7c24,0,39.2,13.6,39.2,34.7C462.5,213.4,443.9,225.5,421.2,225.5
		 M421.8,171.9h-21.1v37.2h21.1c13.7,0,22.3-7.5,22.3-18.6C444.1,178.3,435.3,171.9,421.8,171.9"/>
	<polygon class="st0" points="522.5,258.7 504.2,258.7 504.2,172.2 471.5,172.2 471.5,155.4 555.3,155.4 555.3,172.2 522.5,172.2 	
		"/>
	<path class="st0" d="M659.7,214c0,30.8-17.4,46.3-44.4,46.3c-26.8,0-43.9-15.5-43.9-45.4v-59.5h18.1v58.7
		c0,19.2,9.9,29.5,26.1,29.5c16.1,0,25.9-9.7,25.9-28.7v-59.5h18.1V214"/>
	<polygon class="st0" points="730.2,233.3 729.6,233.3 697.3,184.9 697.3,258.7 679.5,258.7 679.5,155.4 698.8,155.4 730.2,204.2 
		761.6,155.4 780.9,155.4 780.9,258.7 762.8,258.7 762.8,184.6 	"/>
</g>
</svg>
