<?xml version="1.0" encoding="utf-8"?>
<!-- Generator: Adobe Illustrator 19.2.1, SVG Export Plug-In . SVG Version: 6.00 Build 0)  -->
<svg version="1.1" id="state_u" xmlns="http://www.w3.org/2000/svg" xmlns:xlink="http://www.w3.org/1999/xlink" x="0px" y="0px"
	 viewBox="0 0 245.3 108.6" style="enable-background:new 0 0 245.3 108.6;" xml:space="preserve">
<style type="text/css">
	.st0{fill:#FFFFFF;}
</style>
<title>rdcs</title>
<g>
	<path class="st0" d="M82.8,81.8L82.8,81.8c0-0.4,0-0.8,0-1.2c0-0.4,0-0.8,0-1.3c0-0.7,0-1.2,0-1.6c0-0.4,0-0.8,0-1.1
		c0-0.3,0-0.5,0-0.7c0-0.2,0-0.4,0-0.6l0.1-0.1l1.4,0h0.3c0.1,0,0.2,0,0.3,0c0.4,0,0.8,0,1.3,0.1c0.3,0.1,0.7,0.2,1,0.4
		c0.3,0.2,0.5,0.4,0.7,0.7c0.2,0.2,0.3,0.5,0.4,0.8c0.1,0.2,0.1,0.4,0.1,0.7c0,0.2,0,0.4,0,0.6c0,0.5-0.1,1-0.2,1.5
		c-0.1,0.3-0.3,0.6-0.5,0.9c-0.2,0.2-0.4,0.4-0.7,0.6c-0.2,0.1-0.5,0.2-0.7,0.3c-0.3,0.1-0.5,0.1-0.8,0.1c-0.1,0-0.2,0-0.3,0
		s-0.2,0-0.3,0h-1.2L82.8,81.8z M83.8,81h0.4c0.3,0,0.6,0,0.8,0c0.2,0,0.5-0.1,0.7-0.2c0.2-0.1,0.4-0.2,0.6-0.4
		c0.2-0.2,0.3-0.5,0.4-0.7c0.2-0.4,0.2-0.9,0.2-1.4c0-0.1,0-0.3,0-0.4c0-0.2,0-0.3-0.1-0.5c0-0.2-0.1-0.4-0.2-0.5
		c-0.1-0.2-0.2-0.3-0.4-0.5c-0.1-0.1-0.3-0.2-0.4-0.3c-0.1-0.1-0.3-0.1-0.4-0.1c-0.1,0-0.3,0-0.4-0.1c-0.1,0-0.2,0-0.4,0
		c-0.2,0-0.5,0-0.8,0h-0.1c0,0.1,0,0.3,0,0.4c0,0.1,0,0.3,0,0.4c0,0.4,0,0.8,0,1.4c0,0.7,0,1.2,0,1.5c0,0.3,0,0.6,0,1
		C83.8,80.9,83.8,81,83.8,81z"/>
	<path class="st0" d="M96,81c0,0.1,0,0.2,0,0.2c0,0.1,0,0.1,0,0.3c0,0,0,0.1,0,0.2l-0.1,0.1c-0.9,0-1.9,0-2.9,0l-1,0l0-0.1l0-0.2
		c0-0.1,0-0.3,0-0.5c0-0.2,0-0.4,0-0.5c0-0.4,0-1,0-1.7c0-0.9,0-1.6,0-1.9c0-0.3,0-0.6,0-0.8c0-0.2,0-0.5,0-0.7l0.1-0.1h0.7
		c1.2,0,2.3,0,3.2,0l0.1,0.1c0,0.1,0,0.1,0,0.2c0,0.1,0,0.2,0,0.2c0,0.1,0,0.2,0,0.3l-0.1,0.1c-0.2,0-0.4,0-0.6,0
		c-0.2,0-0.4,0-0.6,0c-0.2,0-0.6,0-1.2,0h-0.3c0,0.2,0,0.3,0,0.5c0,0.2,0,0.3,0,0.5v1c0.7,0,1.1,0,1.4,0c0.3,0,0.7,0,1.2,0l0,0.1
		c0,0.1,0,0.2,0,0.3c0,0.1,0,0.2,0,0.3v0.1l-0.1,0.1c-0.2,0-0.4,0-0.7,0c-0.2,0-0.4,0-0.6,0h-1.3c0,0.1,0,0.4,0,0.6v0.9
		c0,0.3,0,0.5,0,0.7c0.7,0,1.2,0,1.5,0c0.2,0,0.4,0,0.5,0C95.3,81,95.6,81,96,81L96,81z"/>
	<path class="st0" d="M100.9,81.8h-0.5c0,0-0.2,0-0.5,0l-0.1-0.1c0-0.3,0-0.6,0-0.9c0-0.3,0-0.7,0-1.2c0-1,0-1.8,0-2.4
		c0-0.6,0-1.3-0.1-1.9l0-0.1c0,0,0.2,0,0.5,0c0.3,0,0.5,0,0.5,0l0.6,0c0.4,0,0.7,0,0.9,0c0.2,0,0.4,0.1,0.6,0.1
		c0.2,0.1,0.4,0.2,0.6,0.3c0.2,0.1,0.3,0.3,0.4,0.5c0.1,0.2,0.2,0.3,0.2,0.5c0,0.2,0.1,0.3,0.1,0.5c0,0.4-0.1,0.7-0.3,1
		c-0.1,0.2-0.3,0.4-0.5,0.5c-0.2,0.1-0.4,0.3-0.6,0.3c-0.2,0.1-0.5,0.1-0.7,0.2c-0.3,0-0.6,0-0.8,0c-0.1,0-0.2,0-0.2,0h-0.2v0.2
		c0,0.5,0,0.9,0,1.1c0,0.2,0,0.3,0,0.5C100.9,81.2,100.9,81.5,100.9,81.8L100.9,81.8z M101.1,78.6c0.3,0,0.6,0,0.7,0
		c0.1,0,0.2,0,0.3,0c0.1,0,0.2-0.1,0.3-0.1c0.1,0,0.2-0.1,0.3-0.2c0.1-0.1,0.2-0.2,0.3-0.3c0.1-0.2,0.2-0.4,0.2-0.7
		c0-0.2,0-0.4-0.1-0.6c-0.1-0.1-0.2-0.3-0.3-0.4c-0.1-0.1-0.2-0.2-0.4-0.2c-0.1,0-0.2-0.1-0.4-0.1c-0.1,0-0.2,0-0.4,0
		c-0.2,0-0.3,0-0.4,0c-0.1,0-0.2,0-0.3,0l-0.1,0v0.6c0,0.2,0,0.5,0,0.7c0,0.1,0,0.3,0,0.6v0.6C100.9,78.6,101,78.6,101.1,78.6
		L101.1,78.6z"/>
	<path class="st0" d="M110.3,75.5c0.2,0.6,0.3,1.1,0.5,1.6c0.2,0.5,0.3,1,0.4,1.4c0.1,0.3,0.1,0.4,0.2,0.5c0.5,1.5,0.8,2.4,0.9,2.7
		l0,0.1c-0.2,0-0.4,0-0.5,0c-0.1,0-0.3,0-0.6,0l-0.1-0.1c0-0.1-0.1-0.2-0.1-0.4c0-0.1-0.1-0.3-0.2-0.6c-0.1-0.2-0.1-0.4-0.2-0.6
		c0-0.1-0.1-0.2-0.1-0.3l-0.1-0.2c-0.1,0-0.2,0-0.5,0h-1.2c-0.3,0-0.5,0-0.6,0c-0.1,0.2-0.1,0.4-0.2,0.5c0,0.2-0.1,0.3-0.1,0.4
		c0,0.1-0.1,0.2-0.1,0.3c0,0.1-0.1,0.3-0.1,0.4c0,0.1,0,0.2-0.1,0.2l-0.1,0.1c-0.2,0-0.4,0-0.5,0c-0.1,0-0.3,0-0.5,0l0-0.1
		c0-0.1,0.1-0.2,0.1-0.3c0.4-1,0.7-2,1-3c0.2-0.7,0.4-1.1,0.4-1.2c0-0.1,0.1-0.3,0.2-0.6c0.1-0.2,0.2-0.5,0.2-0.7
		c0.1-0.2,0.1-0.4,0.2-0.6l0.1-0.1h0.1c0.3,0,0.5,0,0.6,0c0.1,0,0.3,0,0.6,0l0.1,0.1L110.3,75.5z M108.5,79.1h0.4c0.2,0,0.4,0,0.4,0
		c0,0,0.2,0,0.5,0h0.5l-0.9-3.1L108.5,79.1z"/>
	<path class="st0" d="M116.8,81.8h-0.5c0,0-0.2,0-0.5,0l-0.1-0.1c0-0.8,0-1.7,0-2.7c0-0.5,0-1,0-1.3c0-0.4,0-0.7,0-0.9
		c0-0.3,0-0.5,0-0.8c0-0.2,0-0.5,0-0.7l0.1-0.1h0.6c0.3,0,0.5,0,0.6,0l0.6,0c0.3,0,0.6,0,0.8,0c0.2,0,0.4,0.1,0.6,0.1
		c0.3,0.1,0.6,0.3,0.9,0.6c0.2,0.3,0.3,0.7,0.3,1c0,0.4-0.1,0.8-0.4,1.1c-0.3,0.4-0.7,0.6-1.2,0.7c0,0,0.1,0.1,0.1,0.2
		c0.1,0.1,0.1,0.2,0.2,0.3c0.1,0.1,0.2,0.4,0.5,0.7l0.2,0.3l0,0c0.2,0.3,0.3,0.5,0.4,0.5c0,0.1,0.1,0.2,0.3,0.4
		c0.1,0.2,0.2,0.3,0.3,0.4l0,0.1c-0.3,0-0.4,0-0.6,0c-0.3,0-0.5,0-0.6,0l-0.1,0l-0.1-0.2c-0.1-0.2-0.3-0.6-0.6-1
		c-0.1-0.1-0.2-0.3-0.2-0.4c0,0-0.1-0.2-0.2-0.4c0-0.1-0.1-0.1-0.2-0.3c-0.1-0.1-0.1-0.2-0.2-0.3c-0.1-0.1-0.2-0.2-0.2-0.3h-0.2
		c-0.1,0-0.3,0-0.4,0c0,0.4,0,0.8,0,1.3c0,0.3,0,0.6,0,0.8C116.8,81.4,116.8,81.6,116.8,81.8L116.8,81.8z M118,78.2
		c0.3,0,0.5-0.1,0.7-0.3c0.2-0.2,0.4-0.5,0.4-0.8c0-0.2-0.1-0.4-0.2-0.6c-0.1-0.2-0.3-0.3-0.5-0.4c-0.3-0.1-0.6-0.1-1-0.1
		c-0.2,0-0.4,0-0.6,0v0.7c0,0.1,0,0.3,0,0.4c0,0.1,0,0.3,0,0.4v0.7C117.2,78.3,117.6,78.3,118,78.2z"/>
	<path class="st0" d="M127.7,76.1c-0.4,0-0.7,0-0.8,0H126c0,0.5,0,0.8,0,1V78c0,0.5,0,1,0,1.4c0,0.4,0,0.8,0,1.1c0,0.3,0,0.5,0,0.7
		c0,0.2,0,0.4,0,0.6l-0.1,0.1h-0.5c-0.1,0-0.2,0-0.5,0l0-0.1c0-1,0.1-2.3,0.1-3.9c0-0.4,0-0.6,0-0.9c0-0.2,0-0.5,0-0.7
		c0-0.1,0-0.1,0-0.2h-0.1c-0.4,0-0.7,0-0.8,0c-0.2,0-0.3,0-0.4,0c-0.1,0-0.2,0-0.4,0l-0.1-0.1c0-0.1,0-0.2,0-0.3c0-0.1,0-0.2,0-0.3
		l0-0.1c1.2,0,1.9,0,2.4,0c0.5,0,1.2,0,2.1,0l0,0.1v0c0,0.2,0,0.3,0,0.4C127.8,75.8,127.8,75.9,127.7,76.1L127.7,76.1z"/>
	<path class="st0" d="M137.6,75.3c0,2.3,0.1,4.4,0.2,6.4l0,0.1c-0.2,0-0.5,0-0.7,0c-0.1,0-0.2,0-0.3,0l-0.1-0.1c0-0.6,0-1.1,0-1.4
		c0-0.3,0-0.6,0-1l0-1c0-0.3,0-0.8,0-1.5V76c0,0.1-0.1,0.2-0.1,0.4c0,0.2-0.1,0.3-0.2,0.5c-0.1,0.2-0.2,0.7-0.4,1.4l-0.4,1.3
		c-0.1,0.2-0.1,0.4-0.2,0.6c-0.1,0.2-0.1,0.4-0.2,0.5c0,0.1-0.1,0.2-0.1,0.4c-0.1,0.2-0.1,0.4-0.2,0.6l-0.1,0.1h-0.5
		c-0.1,0-0.1,0-0.2,0c0,0-0.2,0-0.4,0l-0.1-0.1c-0.1-0.2-0.1-0.4-0.1-0.5c0-0.1,0-0.2-0.1-0.3s-0.1-0.3-0.2-0.6
		c-0.1-0.3-0.1-0.5-0.2-0.7c-0.1-0.2-0.1-0.3-0.1-0.4l-0.4-1.3c-0.1-0.4-0.2-0.7-0.2-0.9c0-0.2-0.1-0.3-0.1-0.4
		c0-0.1-0.1-0.3-0.1-0.4c0-0.1-0.1-0.2-0.1-0.4c0,0.4,0,0.7,0,0.8c0,0.1,0,0.4,0,0.9l0,0.3l-0.1,1.7c0,0.2,0,0.3,0,0.5
		c0,0.2,0,0.4,0,0.6c0,0.3,0,0.5,0,0.8v0.2l0,0.1c-0.2,0-0.4,0-0.5,0c-0.1,0-0.2,0-0.4,0l0-0.1c0,0,0-0.1,0-0.3c0-0.2,0-0.2,0-0.3
		c0-0.5,0.1-1.2,0.1-2.2c0-0.5,0-0.9,0.1-1.1l0-0.3c0-0.3,0-0.5,0-0.8c0-0.3,0-0.4,0-0.6c0-0.2,0-0.5,0-0.9l0.1-0.1
		c0.3,0,0.5,0,0.6,0c0.1,0,0.3,0,0.6,0c0,0,0.1,0,0.2,0l0.1,0.1c0.1,0.3,0.1,0.6,0.2,0.9c0.1,0.3,0.2,0.6,0.3,1l1,3.7l1.2-3.8
		c0.1-0.2,0.1-0.4,0.2-0.6c0.1-0.3,0.1-0.5,0.2-0.6c0-0.2,0.1-0.3,0.1-0.4c0-0.1,0-0.2,0.1-0.2l0.1-0.1c0.3,0,0.7,0,1,0L137.6,75.3
		L137.6,75.3z"/>
	<path class="st0" d="M146.1,81c0,0.1,0,0.2,0,0.2c0,0.1,0,0.1,0,0.3c0,0,0,0.1,0,0.2l-0.1,0.1c-0.9,0-1.9,0-2.9,0l-1,0l0-0.1l0-0.2
		c0-0.1,0-0.3,0-0.5c0-0.2,0-0.4,0-0.5c0-0.4,0-1,0-1.7c0-0.9,0-1.6,0-1.9c0-0.3,0-0.6,0-0.8c0-0.2,0-0.5,0-0.7l0.1-0.1h0.7
		c1.2,0,2.3,0,3.2,0l0.1,0.1c0,0.1,0,0.1,0,0.2c0,0.1,0,0.2,0,0.2c0,0.1,0,0.2,0,0.3l-0.1,0.1c-0.2,0-0.4,0-0.6,0
		c-0.2,0-0.4,0-0.6,0c-0.2,0-0.6,0-1.2,0h-0.3c0,0.2,0,0.3,0,0.5c0,0.2,0,0.3,0,0.5v1c0.7,0,1.1,0,1.4,0c0.3,0,0.7,0,1.2,0l0,0.1
		c0,0.1,0,0.2,0,0.3c0,0.1,0,0.2,0,0.3v0.1l-0.1,0.1c-0.2,0-0.4,0-0.7,0c-0.2,0-0.4,0-0.6,0h-1.3c0,0.1,0,0.4,0,0.6v0.9
		c0,0.3,0,0.5,0,0.7c0.7,0,1.2,0,1.5,0c0.2,0,0.4,0,0.5,0C145.4,81,145.6,81,146.1,81L146.1,81z"/>
	<path class="st0" d="M155,81.7L155,81.7l-0.6,0.1c-0.1,0-0.3,0-0.6,0l-0.1-0.1c-0.7-1.3-1.3-2.3-1.6-2.9l-1.5-2.6l0.1,3.2
		c0,0.2,0,0.4,0,0.6c0,0.2,0,0.4,0,0.6l0,0.2c0,0.4,0,0.8,0,0.9l-0.1,0.1c-0.2,0-0.4,0-0.4,0c-0.1,0-0.2,0-0.4,0l-0.1-0.1
		c0-0.7,0-1.6,0-2.6c0-1.5,0-2.8-0.1-3.8l0-0.1h0.2c0.3,0,0.5,0,0.5,0c0.1,0,0.2,0,0.5,0l0.1,0.1c0,0.1,0.2,0.4,0.5,0.9
		c0.6,1.1,1.1,1.9,1.4,2.5l1.1,2l-0.1-3.1c0-0.4,0-0.7,0-0.8c0-0.2,0-0.4,0-0.6c0-0.2,0-0.4,0-0.5c0-0.1,0-0.2,0-0.4l0.1-0.1
		c0.1,0,0.3,0,0.3,0c0.1,0,0.2,0,0.4,0c0.1,0,0.1,0,0.2,0l0.1,0.1c0,1.5,0,2.6,0,3.4c0,0.9,0,1.7,0,2.6L155,81.7z"/>
	<path class="st0" d="M163,76.1c-0.4,0-0.7,0-0.8,0h-0.8c0,0.5,0,0.8,0,1V78c0,0.5,0,1,0,1.4c0,0.4,0,0.8,0,1.1c0,0.3,0,0.5,0,0.7
		c0,0.2,0,0.4,0,0.6l-0.1,0.1h-0.5c-0.1,0-0.2,0-0.5,0l0-0.1c0-1,0.1-2.3,0.1-3.9c0-0.4,0-0.6,0-0.9c0-0.2,0-0.5,0-0.7
		c0-0.1,0-0.1,0-0.2h-0.1c-0.4,0-0.7,0-0.8,0c-0.2,0-0.3,0-0.4,0c-0.1,0-0.2,0-0.4,0l-0.1-0.1c0-0.1,0-0.2,0-0.3c0-0.1,0-0.2,0-0.3
		l0-0.1c1.2,0,1.9,0,2.4,0c0.5,0,1.2,0,2.1,0l0,0.1v0c0,0.2,0,0.3,0,0.4C163.1,75.8,163.1,75.9,163,76.1L163,76.1z"/>
	<path class="st0" d="M172.6,81c-0.6-0.7-0.8-1.6-0.8-2.4c0-0.5,0.1-1,0.2-1.4c0.1-0.4,0.3-0.8,0.6-1.1c0.3-0.3,0.6-0.5,1-0.7
		c0.4-0.2,0.8-0.3,1.3-0.2c0.8,0,1.6,0.3,2.2,0.9c0.6,0.7,0.9,1.6,0.8,2.5c0.1,0.9-0.2,1.8-0.8,2.5c-0.6,0.6-1.4,0.9-2.2,0.9
		C173.9,82,173.1,81.7,172.6,81z M175.6,81c0.2-0.1,0.4-0.3,0.6-0.6c0.2-0.3,0.3-0.5,0.3-0.8c0.1-0.3,0.1-0.7,0.1-1
		c0-0.1,0-0.2,0-0.4c0-0.2,0-0.3-0.1-0.5c0-0.2-0.1-0.3-0.1-0.5c0-0.2-0.1-0.3-0.2-0.5c-0.2-0.3-0.5-0.6-0.8-0.7
		c-0.1,0-0.2-0.1-0.4-0.1c-0.1,0-0.2,0-0.3,0c-0.3,0-0.6,0.1-0.9,0.2c-0.2,0.1-0.4,0.3-0.6,0.5c-0.1,0.1-0.2,0.3-0.2,0.4
		c-0.1,0.2-0.1,0.3-0.1,0.5c0,0.2,0,0.3-0.1,0.5c0,0.2,0,0.3,0,0.4c0,0.3,0,0.6,0.1,0.9c0,0.3,0.1,0.6,0.3,0.8
		c0.3,0.5,0.9,0.9,1.5,0.9C175.1,81.2,175.4,81.1,175.6,81L175.6,81z"/>
	<path class="st0" d="M185,79c-0.2,0-0.4,0-0.6,0c-0.2,0-0.3,0-0.4,0c-0.2,0-0.6,0-1,0h-0.2v0.2c0,0.2,0,0.4,0,0.5
		c0,0.3,0,0.7,0,1.1c0,0.4,0,0.7,0.1,1.1l0,0.1c-0.3,0-0.5,0-0.8,0l-0.3,0l0-0.1c0-0.2,0-0.3,0-0.5c0-0.2,0-0.4,0-0.7
		c0-0.6,0-1.5,0-2.7c0-0.6,0-1,0-1.4c0-0.4,0-0.7,0-1.1l0-0.1c0.7,0,1.4,0,2.2,0c0.5,0,0.9,0,1,0c0.2,0,0.3,0,0.5,0l0,0.1
		c0,0.1,0,0.2,0,0.3c0,0.1,0,0.2,0,0.3c0,0,0,0.1,0,0.1l-0.1,0.1l-0.2,0c-0.2,0-0.5,0-0.7,0c-0.3,0-0.4,0-0.5,0c-0.3,0-0.7,0-1.2,0
		c0,0.3,0,0.6,0,1c0,0.4,0,0.6,0,0.9v0.2c0.5,0,0.9,0,1.2,0c0.2,0,0.6,0,1.1,0l0,0.1l0,0.4C185.1,78.7,185.1,78.8,185,79L185,79z"/>
	<path class="st0" d="M87.6,91.6c0,0.2,0,0.4,0,0.5c0,0.1,0,0.3,0,0.4l-0.1,0.1c-0.2,0.1-0.5,0.2-0.7,0.3C86.4,93,86,93,85.7,93
		c-0.5,0-0.9-0.1-1.3-0.2c-0.4-0.2-0.7-0.4-1-0.7c-0.3-0.3-0.5-0.7-0.6-1.1c-0.1-0.4-0.2-0.9-0.2-1.4c0-0.2,0-0.3,0-0.5
		c0-0.2,0.1-0.4,0.1-0.6c0.1-0.2,0.1-0.5,0.3-0.7c0.1-0.2,0.3-0.5,0.5-0.7c0.2-0.2,0.4-0.4,0.6-0.5c0.2-0.1,0.4-0.2,0.6-0.3
		c0.2-0.1,0.4-0.1,0.6-0.1c0.2,0,0.4,0,0.6,0c0.3,0,0.6,0,1,0.1c0.3,0.1,0.5,0.1,0.7,0.2l0,0.1c0,0.2,0,0.3-0.1,0.4s0,0.2,0,0.4
		l-0.1,0c-0.2-0.1-0.4-0.2-0.6-0.3c-0.3-0.1-0.6-0.1-0.9-0.1c-0.6,0-1.3,0.2-1.7,0.7c-0.4,0.5-0.6,1.2-0.6,1.9
		c0,0.7,0.2,1.4,0.6,1.9c0.4,0.4,1,0.7,1.6,0.7c0.3,0,0.7,0,1-0.2C87,91.9,87.3,91.8,87.6,91.6L87.6,91.6z"/>
	<path class="st0" d="M91.6,92.1c-0.6-0.7-0.8-1.6-0.8-2.4c0-0.5,0.1-1,0.2-1.4c0.1-0.4,0.3-0.8,0.6-1.1c0.3-0.3,0.6-0.5,1-0.7
		c0.4-0.2,0.8-0.3,1.3-0.2c0.8,0,1.6,0.3,2.2,0.9c0.6,0.7,0.9,1.6,0.8,2.5c0.1,0.9-0.2,1.8-0.8,2.5c-0.6,0.6-1.4,0.9-2.2,0.9
		C93,93.1,92.2,92.7,91.6,92.1z M94.7,92c0.2-0.1,0.4-0.3,0.6-0.6c0.2-0.3,0.3-0.5,0.3-0.8c0.1-0.3,0.1-0.7,0.1-1c0-0.1,0-0.2,0-0.4
		c0-0.2,0-0.3-0.1-0.5c0-0.2-0.1-0.3-0.1-0.5c0-0.2-0.1-0.3-0.2-0.5c-0.2-0.3-0.5-0.6-0.8-0.7c-0.1,0-0.2-0.1-0.4-0.1
		c-0.1,0-0.2,0-0.3,0c-0.3,0-0.6,0.1-0.9,0.2c-0.2,0.1-0.4,0.3-0.6,0.5c-0.1,0.1-0.2,0.3-0.2,0.4c-0.1,0.2-0.1,0.3-0.1,0.5
		c0,0.2,0,0.3-0.1,0.5c0,0.2,0,0.3,0,0.4c0,0.3,0,0.6,0.1,0.9c0,0.3,0.1,0.6,0.3,0.8c0.3,0.5,0.9,0.9,1.5,0.9
		C94.1,92.3,94.4,92.2,94.7,92z"/>
	<path class="st0" d="M105.9,92.8L105.9,92.8l-0.6,0.1c-0.1,0-0.3,0-0.6,0l-0.1-0.1c-0.7-1.3-1.3-2.3-1.6-2.9l-1.5-2.6l0.1,3.2
		c0,0.2,0,0.4,0,0.6c0,0.2,0,0.4,0,0.6l0,0.2c0,0.4,0,0.8,0,0.9l-0.1,0.1c-0.2,0-0.4,0-0.4,0c-0.1,0-0.2,0-0.4,0l-0.1-0.1
		c0-0.7,0-1.6,0-2.6c0-1.5,0-2.8-0.1-3.8l0-0.1h0.2c0.3,0,0.5,0,0.5,0c0.1,0,0.2,0,0.5,0l0.1,0.1c0,0.1,0.2,0.4,0.5,0.9
		c0.6,1.1,1.1,1.9,1.4,2.5l1.1,2l-0.1-3.1c0-0.4,0-0.7,0-0.8c0-0.2,0-0.4,0-0.6c0-0.2,0-0.4,0-0.5c0-0.1,0-0.2,0-0.4l0.1-0.1
		c0.1,0,0.3,0,0.3,0c0.1,0,0.2,0,0.4,0c0.1,0,0.1,0,0.2,0l0.1,0.1c0,1.5,0,2.6,0,3.4c0,0.9,0,1.7,0,2.6L105.9,92.8z"/>
	<path class="st0" d="M113.9,87.2c-0.4,0-0.7,0-0.8,0h-0.8c0,0.5,0,0.8,0,1V89c0,0.5,0,1,0,1.4c0,0.4,0,0.8,0,1.1c0,0.3,0,0.5,0,0.7
		c0,0.2,0,0.4,0,0.6l-0.1,0.1h-0.5c-0.1,0-0.2,0-0.5,0l0-0.1c0-1,0.1-2.3,0.1-3.9c0-0.4,0-0.6,0-0.9c0-0.2,0-0.5,0-0.7
		c0-0.1,0-0.1,0-0.2H111c-0.4,0-0.7,0-0.8,0c-0.2,0-0.3,0-0.4,0c-0.1,0-0.2,0-0.4,0l-0.1-0.1c0-0.1,0-0.2,0-0.3c0-0.1,0-0.2,0-0.3
		l0-0.1c1.2,0,1.9,0,2.4,0c0.5,0,1.2,0,2.1,0l0,0.1v0c0,0.2,0,0.3,0,0.4C114,86.9,114,87,113.9,87.2L113.9,87.2z"/>
	<path class="st0" d="M118.6,86.4c0,0.3,0,0.7,0,1.2c0,0.4,0,1,0,1.8c0,0.8,0,1.5,0,2c0,0.3,0,0.5,0,0.7c0,0.2,0,0.5,0,0.7l-0.1,0.1
		c-0.1,0-0.2,0-0.3,0c-0.3,0-0.6,0-0.8,0l-0.1-0.1v-0.1c0-0.3,0-0.6,0-0.9c0-0.3,0-0.7,0-1.2c0-1.9,0-3.2-0.1-4.2l0-0.1
		c0.2,0,0.4,0,0.5,0C118.1,86.4,118.3,86.3,118.6,86.4L118.6,86.4z"/>
	<path class="st0" d="M128.1,92.8L128.1,92.8l-0.6,0.1c-0.1,0-0.3,0-0.6,0l-0.1-0.1c-0.7-1.3-1.3-2.3-1.6-2.9l-1.5-2.6l0.1,3.2
		c0,0.2,0,0.4,0,0.6c0,0.2,0,0.4,0,0.6l0,0.2c0,0.4,0,0.8,0,0.9l-0.1,0.1c-0.2,0-0.4,0-0.4,0c-0.1,0-0.2,0-0.4,0l-0.1-0.1
		c0-0.7,0-1.6,0-2.6c0-1.5,0-2.8-0.1-3.8l0-0.1h0.2c0.3,0,0.5,0,0.5,0c0.1,0,0.2,0,0.5,0l0.1,0.1c0,0.1,0.2,0.4,0.5,0.9
		c0.6,1.1,1.1,1.9,1.4,2.5l1.1,2l-0.1-3.1c0-0.4,0-0.7,0-0.8c0-0.2,0-0.4,0-0.6c0-0.2,0-0.4,0-0.5c0-0.1,0-0.2,0-0.4l0.1-0.1
		c0.1,0,0.3,0,0.3,0c0.1,0,0.2,0,0.4,0c0.1,0,0.1,0,0.2,0l0.1,0.1c0,1.5,0,2.6,0,3.4c0,0.9,0,1.7,0,2.6L128.1,92.8z"/>
	<path class="st0" d="M137.4,86.4l0,0.4c0,0.5,0,1,0,1.4c0,0.5,0,0.9,0,1.4l0,0.8c0,0.2,0,0.4,0,0.5c0,0.2,0,0.3-0.1,0.5
		c0,0.2-0.1,0.3-0.2,0.5c-0.1,0.2-0.2,0.3-0.3,0.4c-0.2,0.2-0.5,0.4-0.8,0.5c-0.3,0.1-0.7,0.2-1.1,0.2c-0.3,0-0.5,0-0.8-0.1
		c-0.2,0-0.4-0.1-0.6-0.2c-0.1-0.1-0.3-0.1-0.4-0.2c-0.1-0.1-0.2-0.2-0.3-0.2c-0.1-0.1-0.2-0.3-0.3-0.4c-0.1-0.1-0.1-0.3-0.1-0.5
		c0-0.2,0-0.3-0.1-0.5c0-0.2,0-0.4,0-0.8v-2.3c0-0.1,0-0.3,0-0.4c0-0.1,0-0.4,0-0.9l0.1-0.1h0.1c0.4,0,0.7,0,0.9,0l0,0.1
		c0,0.2,0,0.5,0,0.8c0,0.3,0,0.7,0,1c0,0.4,0,1,0,1.7c0,0.4,0,0.8,0.1,1.2c0,0.2,0.1,0.5,0.3,0.7c0.1,0.1,0.3,0.2,0.4,0.3
		c0.2,0.1,0.5,0.1,0.7,0.1c0.1,0,0.2,0,0.3,0c0.1,0,0.2,0,0.3-0.1c0.1,0,0.3-0.1,0.4-0.2c0.1-0.1,0.2-0.2,0.3-0.4
		c0.1-0.2,0.2-0.4,0.2-0.6c0-0.2,0-0.6,0-1c0-0.7,0-1.3,0-1.9c0-0.6,0-1.1-0.1-1.6l0-0.1h0.1L137.4,86.4L137.4,86.4z"/>
	<path class="st0" d="M142.8,86.4c0,0.3,0,0.7,0,1.2c0,0.4,0,1,0,1.8c0,0.8,0,1.5,0,2c0,0.3,0,0.5,0,0.7c0,0.2,0,0.5,0,0.7l-0.1,0.1
		c-0.1,0-0.2,0-0.3,0c-0.3,0-0.6,0-0.8,0l-0.1-0.1v-0.1c0-0.3,0-0.6,0-0.9c0-0.3,0-0.7,0-1.2c0-1.9,0-3.2-0.1-4.2l0-0.1
		c0.2,0,0.4,0,0.5,0C142.4,86.4,142.6,86.3,142.8,86.4L142.8,86.4z"/>
	<path class="st0" d="M152.3,92.8L152.3,92.8l-0.6,0.1c-0.1,0-0.3,0-0.6,0l-0.1-0.1c-0.7-1.3-1.3-2.3-1.6-2.9l-1.5-2.6l0.1,3.2
		c0,0.2,0,0.4,0,0.6c0,0.2,0,0.4,0,0.6l0,0.2c0,0.4,0,0.8,0,0.9l-0.1,0.1c-0.2,0-0.4,0-0.4,0c-0.1,0-0.2,0-0.4,0l-0.1-0.1
		c0-0.7,0-1.6,0-2.6c0-1.5,0-2.8-0.1-3.8l0-0.1h0.2c0.3,0,0.5,0,0.5,0c0.1,0,0.2,0,0.5,0l0.1,0.1c0,0.1,0.2,0.4,0.5,0.9
		c0.6,1.1,1.1,1.9,1.4,2.5l1.1,2l-0.1-3.1c0-0.4,0-0.7,0-0.8c0-0.2,0-0.4,0-0.6c0-0.2,0-0.4,0-0.5c0-0.1,0-0.2,0-0.4l0.1-0.1
		c0.1,0,0.3,0,0.3,0c0.1,0,0.2,0,0.4,0c0.1,0,0.1,0,0.2,0l0.1,0.1c0,1.5,0,2.6,0,3.4c0,0.9,0,1.7,0,2.6L152.3,92.8z"/>
	<path class="st0" d="M161.7,89.7c0,0.3,0,0.6,0,1c0,0.3,0,0.7,0,1c0,0.2,0,0.4,0,0.7c0,0,0,0.1,0,0.1l-0.1,0.1
		c-0.3,0.1-0.6,0.2-1,0.3c-0.3,0.1-0.7,0.1-1,0.1c-0.5,0-1-0.1-1.4-0.2c-0.4-0.1-0.8-0.4-1.2-0.7c-0.3-0.3-0.5-0.6-0.6-1
		c-0.2-0.4-0.2-0.9-0.2-1.4c0-0.5,0.1-1,0.2-1.4c0.1-0.4,0.4-0.8,0.6-1.1c0.3-0.4,0.8-0.7,1.3-0.8c0.2-0.1,0.4-0.1,0.6-0.1
		c0.2,0,0.3,0,0.5,0c0.4,0,0.7,0,1.1,0.1c0.3,0.1,0.5,0.2,0.8,0.3l0,0.1c0,0.2,0,0.3-0.1,0.4c0,0.1,0,0.3,0,0.5l-0.1,0
		c-0.2-0.2-0.5-0.3-0.7-0.4c-0.3-0.1-0.6-0.2-1-0.2c-0.1,0-0.2,0-0.4,0c-0.1,0-0.3,0.1-0.4,0.1c-0.2,0.1-0.3,0.1-0.5,0.2
		c-0.2,0.1-0.3,0.3-0.4,0.4c-0.2,0.3-0.3,0.6-0.4,0.9c-0.1,0.3-0.1,0.6-0.1,0.9c0,0.7,0.2,1.3,0.6,1.8c0.4,0.5,1.1,0.7,1.7,0.7
		c0.2,0,0.3,0,0.5,0c0.1,0,0.3-0.1,0.4-0.1l0,0l0-0.7c0-0.4,0-0.9,0-1.5c0-0.1,0-0.1,0-0.1l0.1-0.1h0.5
		C161.2,89.7,161.4,89.7,161.7,89.7L161.7,89.7z"/>
	<path class="st0" d="M173.4,89.2L173.4,89.2c0.2,0.1,0.4,0.2,0.6,0.3c0.2,0.1,0.3,0.2,0.5,0.3c0.2,0.1,0.3,0.3,0.4,0.5
		c0.1,0.2,0.1,0.5,0.1,0.7c0,0.5-0.2,1-0.6,1.4c-0.5,0.4-1.1,0.6-1.8,0.6c-0.4,0-0.7,0-1.1-0.1c-0.3-0.1-0.5-0.2-0.7-0.3l0-0.1
		c0-0.1,0-0.2,0-0.3c0-0.1,0-0.2,0-0.3c0,0,0-0.1,0-0.2l0.1,0c0,0,0,0,0,0c0.2,0.1,0.4,0.3,0.7,0.4c0.3,0.1,0.6,0.2,0.9,0.2
		c0.4,0,0.7-0.1,1-0.3c0.2-0.2,0.3-0.5,0.3-0.7c0-0.3-0.1-0.5-0.3-0.7c-0.3-0.2-0.5-0.3-0.8-0.5l-0.5-0.2l0,0
		c-0.2-0.1-0.4-0.2-0.6-0.3c-0.2-0.1-0.3-0.2-0.4-0.3c-0.2-0.1-0.3-0.3-0.4-0.5c-0.1-0.2-0.1-0.5-0.1-0.7c0-0.3,0.1-0.7,0.3-1
		c0.2-0.3,0.5-0.5,0.8-0.6c0.4-0.1,0.7-0.2,1.1-0.2c0.3,0,0.6,0,0.8,0.1c0.2,0,0.5,0.1,0.8,0.2l0,0.1c0,0.1,0,0.2,0,0.4
		c0,0.1,0,0.2,0,0.3l0,0.1l-0.1,0c-0.2-0.1-0.5-0.2-0.7-0.3c-0.3-0.1-0.5-0.1-0.8-0.1c-0.3,0-0.6,0.1-0.9,0.2
		c-0.2,0.1-0.3,0.4-0.3,0.7c0,0.2,0,0.3,0.1,0.4c0.1,0.1,0.2,0.2,0.3,0.3c0.1,0,0.1,0.1,0.2,0.1c0.1,0,0.2,0.1,0.5,0.2L173.4,89.2z"
		/>
	<path class="st0" d="M182.5,87.2c-0.4,0-0.7,0-0.8,0h-0.8c0,0.5,0,0.8,0,1V89c0,0.5,0,1,0,1.4c0,0.4,0,0.8,0,1.1c0,0.3,0,0.5,0,0.7
		c0,0.2,0,0.4,0,0.6l-0.1,0.1h-0.5c-0.1,0-0.2,0-0.5,0l0-0.1c0-1,0.1-2.3,0.1-3.9c0-0.4,0-0.6,0-0.9c0-0.2,0-0.5,0-0.7
		c0-0.1,0-0.1,0-0.2h-0.1c-0.4,0-0.7,0-0.8,0c-0.2,0-0.3,0-0.4,0c-0.1,0-0.2,0-0.4,0l-0.1-0.1c0-0.1,0-0.2,0-0.3c0-0.1,0-0.2,0-0.3
		l0-0.1c1.2,0,1.9,0,2.4,0c0.5,0,1.2,0,2.1,0l0,0.1v0c0,0.2,0,0.3,0,0.4C182.5,86.9,182.5,87,182.5,87.2L182.5,87.2z"/>
	<path class="st0" d="M191,86.4l0,0.4c0,0.5,0,1,0,1.4c0,0.5,0,0.9,0,1.4l0,0.8c0,0.2,0,0.4,0,0.5c0,0.2,0,0.3-0.1,0.5
		c0,0.2-0.1,0.3-0.2,0.5c-0.1,0.2-0.2,0.3-0.3,0.4c-0.2,0.2-0.5,0.4-0.8,0.5c-0.3,0.1-0.7,0.2-1.1,0.2c-0.3,0-0.5,0-0.8-0.1
		c-0.2,0-0.4-0.1-0.6-0.2c-0.1-0.1-0.3-0.1-0.4-0.2c-0.1-0.1-0.2-0.2-0.3-0.2c-0.1-0.1-0.2-0.3-0.3-0.4c-0.1-0.1-0.1-0.3-0.1-0.5
		c0-0.2,0-0.3-0.1-0.5c0-0.2,0-0.4,0-0.8v-2.3c0-0.1,0-0.3,0-0.4c0-0.1,0-0.4,0-0.9l0.1-0.1h0.1c0.4,0,0.7,0,0.9,0l0,0.1
		c0,0.2,0,0.5,0,0.8c0,0.3,0,0.7,0,1c0,0.4,0,1,0,1.7c0,0.4,0,0.8,0.1,1.2c0,0.2,0.1,0.5,0.3,0.7c0.1,0.1,0.3,0.2,0.4,0.3
		c0.2,0.1,0.5,0.1,0.7,0.1c0.1,0,0.2,0,0.3,0c0.1,0,0.2,0,0.3-0.1c0.1,0,0.3-0.1,0.4-0.2c0.1-0.1,0.2-0.2,0.3-0.4
		c0.1-0.2,0.2-0.4,0.2-0.6c0-0.2,0-0.6,0-1c0-0.7,0-1.3,0-1.9c0-0.6,0-1.1-0.1-1.6l0-0.1h0.1L191,86.4L191,86.4z"/>
	<path class="st0" d="M195.4,92.9L195.4,92.9c0-0.4,0-0.8,0-1.2c0-0.4,0-0.8,0-1.3c0-0.7,0-1.2,0-1.6c0-0.4,0-0.8,0-1.1
		c0-0.3,0-0.5,0-0.7c0-0.2,0-0.4,0-0.6l0.1-0.1l1.4,0h0.3c0.1,0,0.2,0,0.3,0c0.4,0,0.8,0,1.3,0.1c0.3,0.1,0.7,0.2,1,0.4
		c0.3,0.2,0.5,0.4,0.7,0.7c0.2,0.2,0.3,0.5,0.4,0.8c0.1,0.2,0.1,0.4,0.1,0.7c0,0.2,0,0.4,0,0.6c0,0.5-0.1,1-0.3,1.5
		c-0.1,0.3-0.3,0.6-0.5,0.9c-0.2,0.2-0.4,0.4-0.7,0.6c-0.2,0.1-0.5,0.2-0.7,0.3c-0.3,0.1-0.5,0.1-0.8,0.1c-0.1,0-0.2,0-0.3,0
		s-0.2,0-0.3,0H196L195.4,92.9z M196.4,92.1h0.4c0.3,0,0.6,0,0.8,0c0.2,0,0.5-0.1,0.7-0.2c0.2-0.1,0.4-0.2,0.6-0.4
		c0.2-0.2,0.4-0.5,0.4-0.7c0.2-0.4,0.2-0.9,0.2-1.4c0-0.1,0-0.3,0-0.4c0-0.2,0-0.3-0.1-0.5c0-0.2-0.1-0.4-0.2-0.5
		c-0.1-0.2-0.2-0.3-0.4-0.5c-0.1-0.1-0.3-0.2-0.4-0.3c-0.1-0.1-0.3-0.1-0.4-0.1c-0.1,0-0.3,0-0.4-0.1c-0.1,0-0.2,0-0.4,0
		c-0.2,0-0.5,0-0.8,0h-0.1c0,0.1,0,0.3,0,0.4c0,0.1,0,0.3,0,0.4c0,0.4,0,0.8,0,1.4c0,0.7,0,1.2,0,1.5c0,0.3,0,0.6,0,1
		C196.4,92,196.4,92,196.4,92.1L196.4,92.1z"/>
	<path class="st0" d="M205.8,86.4c0,0.3,0,0.7,0,1.2c0,0.4,0,1,0,1.8c0,0.8,0,1.5,0,2c0,0.3,0,0.5,0,0.7c0,0.2,0,0.5,0,0.7l-0.1,0.1
		c-0.1,0-0.2,0-0.3,0c-0.3,0-0.6,0-0.8,0l-0.1-0.1v-0.1c0-0.3,0-0.6,0-0.9c0-0.3,0-0.7,0-1.2c0-1.9,0-3.2-0.1-4.2l0-0.1
		c0.2,0,0.4,0,0.5,0C205.3,86.4,205.5,86.3,205.8,86.4L205.8,86.4z"/>
	<path class="st0" d="M214.1,92.1c0,0.1,0,0.2,0,0.2c0,0.1,0,0.1,0,0.3c0,0,0,0.1,0,0.2l-0.1,0.1c-0.9,0-1.9,0-2.9,0l-1,0l0-0.1
		l0-0.2c0-0.1,0-0.3,0-0.5c0-0.2,0-0.4,0-0.5c0-0.4,0-1,0-1.7c0-0.9,0-1.6,0-1.9c0-0.3,0-0.6,0-0.8c0-0.2,0-0.5,0-0.7l0.1-0.1h0.7
		c1.2,0,2.3,0,3.2,0l0.1,0.1c0,0.1,0,0.1,0,0.2c0,0.1,0,0.2,0,0.2c0,0.1,0,0.2,0,0.3l-0.1,0.1c-0.2,0-0.4,0-0.6,0
		c-0.2,0-0.4,0-0.6,0c-0.2,0-0.6,0-1.2,0h-0.3c0,0.2,0,0.3,0,0.5c0,0.2,0,0.3,0,0.5v1c0.7,0,1.1,0,1.4,0c0.3,0,0.7,0,1.2,0l0,0.1
		c0,0.1,0,0.2,0,0.3c0,0.1,0,0.2,0,0.3v0.1l-0.1,0.1c-0.2,0-0.4,0-0.7,0c-0.2,0-0.4,0-0.6,0h-1.3c0,0.1,0,0.4,0,0.6v0.9
		c0,0.3,0,0.5,0,0.7c0.7,0,1.2,0,1.5,0c0.2,0,0.4,0,0.5,0C213.4,92.1,213.7,92.1,214.1,92.1L214.1,92.1z"/>
	<path class="st0" d="M220.2,89.2L220.2,89.2c0.2,0.1,0.4,0.2,0.6,0.3c0.2,0.1,0.3,0.2,0.5,0.3c0.2,0.1,0.3,0.3,0.4,0.5
		c0.1,0.2,0.1,0.5,0.1,0.7c0,0.5-0.2,1-0.6,1.4c-0.5,0.4-1.1,0.6-1.8,0.6c-0.4,0-0.7,0-1.1-0.1c-0.3-0.1-0.5-0.2-0.7-0.3l0-0.1
		c0-0.1,0-0.2,0-0.3c0-0.1,0-0.2,0-0.3c0,0,0-0.1,0-0.2l0.1,0c0,0,0,0,0,0c0.2,0.1,0.4,0.3,0.7,0.4c0.3,0.1,0.6,0.2,0.9,0.2
		c0.4,0,0.7-0.1,1-0.3c0.2-0.2,0.3-0.5,0.3-0.7c0-0.3-0.1-0.5-0.3-0.7c-0.3-0.2-0.5-0.3-0.8-0.5l-0.5-0.2l0,0
		c-0.2-0.1-0.4-0.2-0.6-0.3c-0.2-0.1-0.3-0.2-0.4-0.3c-0.2-0.1-0.3-0.3-0.4-0.5c-0.1-0.2-0.1-0.5-0.1-0.7c0-0.3,0.1-0.7,0.3-1
		c0.2-0.3,0.5-0.5,0.8-0.6c0.4-0.1,0.7-0.2,1.1-0.2c0.3,0,0.6,0,0.8,0.1c0.2,0,0.5,0.1,0.8,0.2l0,0.1c0,0.1,0,0.2,0,0.4
		c0,0.1,0,0.2,0,0.3l0,0.1l-0.1,0c-0.2-0.1-0.5-0.2-0.7-0.3c-0.3-0.1-0.5-0.1-0.8-0.1c-0.3,0-0.6,0.1-0.9,0.2
		c-0.2,0.1-0.3,0.4-0.3,0.7c0,0.2,0,0.3,0.1,0.4c0.1,0.1,0.2,0.2,0.3,0.3c0.1,0,0.1,0.1,0.2,0.1c0.1,0,0.2,0.1,0.5,0.2L220.2,89.2z"
		/>
</g>
<g>
	<path class="st0" d="M78.1,56.2l1.6-0.5V29.6c0-6.3,0-6.6,2-6.8l1.9-0.2v-1.1H70.9v1.1l1.9,0.2c2,0.2,2,0.5,2,6.8v21.1
		c-2.4,2.7-5.8,4.2-9.4,4.2c-8.1,0-9.3-4.9-9.3-12.4V29.6c0-6.3,0-6.6,2-6.8l1.9-0.2v-1.1H47.4v1.1l1.9,0.2c2,0.2,2,0.5,2,6.8v13.7
		c0,7.1,0.9,13.3,11.6,13.3c6.9,0,11.2-3.3,11.9-3.3c0.8,0,1.2,0.7,1.9,1.5L78.1,56.2z"/>
	<path class="st0" d="M92,55.8h14.4v-1.1l-1.9-0.2c-2.9-0.2-2.9-0.5-2.9-6.8V22.9h2.7c7.3,0,7.4,0.8,8.6,6.8h1.2
		c0-0.2-0.3-7.1-0.5-8.3H84.7c-0.2,1.1-0.5,8.1-0.5,8.3h1.2c1.1-6,1.2-6.8,8.6-6.8h2.7v24.7c0,6.3,0,6.6-2.9,6.8L92,54.6L92,55.8
		L92,55.8z"/>
	<path class="st0" d="M146.1,48.9c0-5.1,0-5.3,1-5.5l1.9-0.2v-1.1h-13.2v1.1l1.9,0.2c3.6,0.2,3.6,0.5,3.6,6.8v3.9
		c-2,0.5-4,0.7-6.1,0.7c-10.2,0-14.7-8.2-14.7-17.1c0-9.7,5.4-15.3,13.9-15.3c8.9,0,9.6,6.3,10.1,8.4l1.4-0.3
		c-0.2-2.6-0.5-5.5-0.8-7.7c-1.4-0.8-5.3-2.1-10.6-2.1c-8.2,0-19.4,4.2-19.4,18c0,13.2,9.3,17.8,19.8,17.8c3.9,0,7.7-0.7,11.4-2.1
		C146.2,54.5,146.1,50.5,146.1,48.9z"/>
	<path class="st0" d="M152.1,55.8h23.8c0.7-2.8,1.3-5.7,1.7-8.6l-1.3-0.2c-1,4.3-1.6,7.4-9.8,7.4c-1.9,0-3.8-0.3-5.6-0.7v-15h4.6
		c4,0,5,0.1,5.3,2.2l0.3,1.8h1.4v-9.3H171l-0.3,1.8c-0.3,2.1-1.2,2.2-5.3,2.2h-4.6V22.9h4.3c7.3,0,7.4,0.8,8.6,6.3l1.2-0.2
		c0-0.5-0.3-6.4-0.5-7.6h-22.4v1.1l1.9,0.2c2,0.2,2,0.5,2,6.8v18.1c0,6.4,0,6.6-2,6.8l-1.9,0.2V55.8L152.1,55.8z"/>
	<path class="st0" d="M181.7,55.8h12.6v-1.1l-1.9-0.2c-2-0.2-2-0.5-2-6.8v-6.9h1.9c1.1-0.1,2.2,0.1,3.2,0.7c1.3,1.6,2.4,3.3,3.2,5.1
		l2.1,4c1.6,2.9,3.9,5.2,7.4,5.2h4v-1.1c-0.9,0-1.8-0.1-2.6-0.5c-1.3-0.7-3.6-3.8-5.8-7.7c-1.4-2.5-3.1-5.8-3.9-7.3
		c2.9-1.4,7.2-4.2,7.2-9.1c0-7.9-7-8.6-11.9-8.6h-13.6v1.1l1.9,0.2c2,0.2,2,0.5,2,6.8v18.1c0,6.3,0,6.6-2,6.8l-1.9,0.2V55.8
		L181.7,55.8z M190.4,23.6c1.1-0.2,2.1-0.4,3.2-0.4c4.1,0,8,1.9,8,7.9c0,5.9-3.9,8.2-8.3,8.2h-3C190.4,39.3,190.4,23.6,190.4,23.6z"
		/>
	<path class="st0" d="M223.6,34.5c-2.8-1.7-5-3.3-5-6.4c-0.1-3,2.3-5.6,5.4-5.7c0.1,0,0.2,0,0.3,0c5.9,0,6.7,4.5,7.2,7.1h1.3
		c-0.1-1.5-0.3-5.3-0.5-7.2c-2.2-1.2-4.7-1.7-7.2-1.7c-5.5,0-10.8,2.7-10.8,9c0,3.9,2.8,7.1,5.7,8.7l3.3,1.8
		c4.1,1.8,7.2,4.4,7.2,8.2c0,4.1-2.7,6.4-6.2,6.4c-7.1,0-9-6.2-9.6-9.9l-1.7,0.4c0.6,3.6,1.2,7.2,1.7,9.1c2.5,1.5,5.3,2.2,8.2,2.1
		c5.5,0,12-2.7,12-9.7c0-6.2-4.3-8.4-8.4-10.8L223.6,34.5z"/>
	<path class="st0" d="M35.4,36c0.6,3.3,5.2,11.7,6.9,14.9c4,7.3,14.2,22.2,21.8,21.7l0.9,0l0,1.2l-1.3,0
		c-10.8,0.4-20.4-11.6-26-21.2c-2.3-3.9-4.5-8.5-6.5-12.5c-0.4-0.9-1-1.6-1.8-2.1c-1.1-0.5-2.4-0.7-3.6-0.6c-0.7,0-2.6,0-3.7,0
		l0,8.7c0,1.6-0.1,5.5,0.3,7.1c0.3,1.2,1.1,1.4,2.3,1.5l2.1,0.2v1H12.1v-1l2.1-0.2c1.3-0.1,2-0.3,2.4-1.5c0.4-1.5,0.3-5.5,0.3-7.1
		V23.7c0-1.6,0.1-5.5-0.3-7.1c-0.4-1.2-1.1-1.4-2.4-1.5L12.1,15v-1l10,0c8.8,0,20.8-1.3,20.8,11.2c0,5-3.4,8.3-7.6,10.4
		C35.4,35.7,35.4,36,35.4,36z M22.1,36c1.6,0.1,3.3,0,4.9,0c6.1,0,9.9-3.3,9.9-9.4c0-6.7-3.8-10.8-10.6-10.8c-1.4,0-2.8,0.2-4.2,0.5
		L22.1,36z"/>
</g>
</svg>
