<?xml version="1.0" encoding="utf-8"?>
<!-- Generator: Adobe Illustrator 19.2.1, SVG Export Plug-In . SVG Version: 6.00 Build 0)  -->
<svg version="1.1" id="Layer_1" xmlns="http://www.w3.org/2000/svg" xmlns:xlink="http://www.w3.org/1999/xlink" x="0px" y="0px"
	 viewBox="0 0 630.6 150" style="enable-background:new 0 0 630.6 150;" xml:space="preserve">
<style type="text/css">
	.st0{enable-background:new    ;}
	.st1{fill:#FFFFFF;}
</style>
<title>scriptr</title>
<g class="st0">
	<path class="st1" d="M75.4,70.3c-2-1.2-4-2.1-6.2-2.7c-2.1-0.6-4.4-0.9-6.7-0.9c-4.6,0-8.3,0.8-11.1,2.3c-1.2,0.7-1.8,1.4-1.8,2.2
		c0,0.9,0.8,1.8,2.5,2.6c1.2,0.6,4,1.2,8.4,1.8c8,1.1,13.5,2.2,16.6,3.3c4.1,1.4,7.3,3.6,9.5,6.4c2.2,2.9,3.3,5.9,3.3,9
		c0,4.3-1.9,7.9-5.7,10.8c-5.4,4.2-12.5,6.3-21.2,6.3c-3.5,0-6.7-0.3-9.6-0.9c-2.9-0.6-5.7-1.5-8.1-2.7c-0.6,0.5-1.2,0.9-1.9,1.2
		c-0.7,0.3-1.3,0.4-2.1,0.4c-1.9,0-3.4-0.6-4.5-1.8s-1.7-3.3-1.7-6.2v-4c0-2.9,0.6-5,1.7-6.2s2.6-1.8,4.4-1.8c1.4,0,2.7,0.4,3.6,1.2
		c1,0.8,1.7,2.2,2.3,4.1c1.8,1.6,4,2.7,6.6,3.5c2.6,0.8,5.5,1.2,8.9,1.2c5.5,0,9.8-0.9,12.8-2.6c1.4-0.9,2.2-1.8,2.2-2.7
		c0-1.6-1-2.9-3.1-3.9c-2.1-1-6.3-1.9-12.8-2.6c-9.6-1-16.1-3-19.3-5.9c-3.2-2.9-4.9-6.4-4.9-10.5c0-4.3,1.8-7.9,5.4-10.7
		c4.9-3.9,11.4-5.9,19.3-5.9c2.8,0,5.4,0.3,8,0.8c2.6,0.5,5,1.3,7.4,2.4c0.7-0.5,1.4-1,2.1-1.2c0.6-0.3,1.2-0.4,1.8-0.4
		c1.6,0,3,0.6,4.1,1.8c1.1,1.2,1.6,3.3,1.6,6.2v2.9c0,2.6-0.3,4.4-0.9,5.3c-1.3,1.8-2.9,2.7-5.1,2.7c-1.4,0-2.7-0.4-3.8-1.3
		C76.4,73,75.7,71.8,75.4,70.3z"/>
	<path class="st1" d="M153.1,58.4c1.4-1.4,2.9-2.1,4.5-2.1c1.7,0,3.1,0.6,4.2,1.8s1.7,3.3,1.7,6.1v7.7c0,2.9-0.6,4.9-1.7,6.2
		c-1.1,1.2-2.6,1.8-4.4,1.8c-1.6,0-3-0.5-4.2-1.4c-0.8-0.7-1.5-2.1-1.9-4.3c-0.5-2.2-1.6-3.8-3.4-4.8c-3.2-1.9-7.2-2.8-12.1-2.8
		c-5.7,0-10.2,1.7-13.6,5c-3.4,3.3-5.1,7.5-5.1,12.6c0,4.7,1.6,8.4,4.9,11.1c3.3,2.7,8.7,4.1,16.3,4.1c5,0,9.1-0.5,12.2-1.5
		c1.9-0.6,3.7-1.7,5.3-3.2c1.7-1.5,3.2-2.3,4.6-2.3c1.6,0,3.1,0.6,4.2,1.8c1.2,1.2,1.8,2.6,1.8,4.3c0,2.7-1.8,5.2-5.4,7.6
		c-5.4,3.6-13.3,5.3-23.7,5.3c-9.3,0-16.6-1.9-21.8-5.8c-7-5.2-10.5-12.3-10.5-21.3c0-8.6,2.9-15.6,8.6-21.2
		c5.7-5.6,13.1-8.4,22.3-8.4c3.3,0,6.4,0.3,9.3,0.9C148.1,56.2,150.7,57.2,153.1,58.4z"/>
	<path class="st1" d="M203.9,56.3v7.5c5-3.6,9-6.1,11.9-7.3c2.9-1.2,5.6-1.8,8.2-1.8c3.9,0,7.7,1.4,11.4,4.3c2.5,2,3.8,3.9,3.8,6
		c0,1.7-0.6,3.2-1.8,4.4c-1.2,1.2-2.6,1.8-4.3,1.8c-1.5,0-3-0.7-4.7-2.2c-1.6-1.5-3.1-2.2-4.4-2.2c-1.7,0-4.2,1.1-7.5,3.2
		s-7.5,5.3-12.5,9.5v18.1H221c2.9,0,5,0.6,6.2,1.7s1.8,2.6,1.8,4.4c0,1.8-0.6,3.2-1.8,4.3s-3.3,1.7-6.2,1.7h-36.3
		c-2.9,0-5-0.6-6.2-1.7s-1.8-2.6-1.8-4.4c0-1.8,0.6-3.2,1.8-4.3s3.3-1.7,6.2-1.7h7.1V68.3h-4.3c-2.9,0-5-0.6-6.2-1.7
		s-1.8-2.6-1.8-4.4c0-1.8,0.6-3.2,1.8-4.3s3.3-1.7,6.2-1.7H203.9z"/>
	<path class="st1" d="M284.4,56.3v41.2h14.4c2.9,0,5,0.6,6.2,1.7s1.8,2.6,1.8,4.4c0,1.8-0.6,3.2-1.8,4.3s-3.3,1.7-6.2,1.7H258
		c-2.9,0-5-0.6-6.2-1.7s-1.8-2.6-1.8-4.4c0-1.8,0.6-3.2,1.8-4.3s3.3-1.7,6.2-1.7h14.4V68.3h-9.7c-2.9,0-4.9-0.6-6.2-1.7
		c-1.3-1.1-1.9-2.6-1.9-4.4c0-1.8,0.6-3.2,1.8-4.3s3.3-1.7,6.2-1.7H284.4z M282.7,33.5v12.7h-14.3V33.5H282.7z"/>
	<path class="st1" d="M335.5,102.9v19.7h7.2c2.9,0,5,0.6,6.2,1.7s1.8,2.6,1.8,4.4c0,1.8-0.6,3.2-1.8,4.3s-3.3,1.7-6.2,1.7h-21.3
		c-2.9,0-5-0.6-6.2-1.7s-1.8-2.5-1.8-4.3c0-1.8,0.6-3.3,1.9-4.4c1.2-1.1,3.3-1.7,6.2-1.7h2.1V68.3h-2.1c-2.9,0-5-0.6-6.2-1.7
		s-1.8-2.6-1.8-4.4c0-1.8,0.6-3.2,1.8-4.3s3.3-1.7,6.2-1.7h14.1v4.1c2.8-1.9,5.7-3.3,8.7-4.3c3-0.9,6.1-1.4,9.3-1.4
		c8.2,0,15.2,2.8,21,8.3c5.8,5.6,8.7,11.9,8.7,19.1c0,7.9-3.4,14.5-10.3,19.6c-5.7,4.3-12.1,6.4-19.3,6.4c-3.1,0-6.1-0.4-9.1-1.3
		C341.5,106,338.5,104.6,335.5,102.9z M371.2,82.2c0-1.7-0.7-3.8-2-6.4c-1.3-2.6-3.4-4.8-6.1-6.5c-2.8-1.7-6-2.6-9.7-2.6
		c-6,0-10.7,2.2-14.2,6.7c-2.4,3.1-3.6,6.1-3.6,8.9c0,3.2,1.7,6.3,5.1,9.3c3.4,3,7.6,4.5,12.7,4.5c5.1,0,9.3-1.5,12.7-4.5
		C369.5,88.7,371.2,85.5,371.2,82.2z"/>
	<path class="st1" d="M419.5,68.3v24.1c0,2.6,0.5,4.3,1.6,5.1c1.6,1.3,4.6,1.9,8.8,1.9c6.1,0,11.8-1.3,17-3.9c2-1,3.6-1.5,4.7-1.5
		c1.6,0,2.9,0.6,4.1,1.8c1.2,1.2,1.7,2.6,1.7,4.3c0,1.6-0.6,2.9-1.9,4c-1.9,1.8-5.7,3.5-11.3,5.1c-5.6,1.5-10.4,2.3-14.3,2.3
		c-7.5,0-13.1-1.6-16.8-4.8c-3.7-3.2-5.6-7.2-5.6-11.9V68.3h-4.3c-2.9,0-5-0.6-6.2-1.7s-1.8-2.6-1.8-4.4c0-1.8,0.6-3.2,1.8-4.3
		s3.3-1.7,6.2-1.7h4.3V45.4c0-2.9,0.6-5,1.7-6.2s2.6-1.8,4.4-1.8c1.8,0,3.2,0.6,4.3,1.8s1.7,3.3,1.7,6.2v10.8h22.2
		c2.9,0,5,0.6,6.2,1.7s1.8,2.6,1.8,4.4c0,1.8-0.6,3.2-1.8,4.3s-3.3,1.7-6.2,1.7H419.5z"/>
	<path class="st1" d="M492,56.3v7.5c5-3.6,9-6.1,11.9-7.3c2.9-1.2,5.6-1.8,8.2-1.8c3.9,0,7.7,1.4,11.4,4.3c2.5,2,3.8,3.9,3.8,6
		c0,1.7-0.6,3.2-1.8,4.4c-1.2,1.2-2.6,1.8-4.3,1.8c-1.5,0-3-0.7-4.7-2.2c-1.6-1.5-3.1-2.2-4.4-2.2c-1.7,0-4.2,1.1-7.5,3.2
		s-7.5,5.3-12.5,9.5v18.1h17.1c2.9,0,5,0.6,6.2,1.7s1.8,2.6,1.8,4.4c0,1.8-0.6,3.2-1.8,4.3s-3.3,1.7-6.2,1.7h-36.3
		c-2.9,0-5-0.6-6.2-1.7s-1.8-2.6-1.8-4.4c0-1.8,0.6-3.2,1.8-4.3s3.3-1.7,6.2-1.7h7.1V68.3h-4.3c-2.9,0-5-0.6-6.2-1.7
		s-1.8-2.6-1.8-4.4c0-1.8,0.6-3.2,1.8-4.3s3.3-1.7,6.2-1.7H492z"/>
</g>
<g class="st0">
	<path class="st1" d="M562.5,92h15.3l-16.9,27.5c-1.1,1.8-2.2,2.8-3.2,2.8c-1,0-1.8-0.3-2.5-0.9c-0.7-0.6-1-1.2-1-1.9
		c0-0.5,0.1-1.2,0.4-2.1L562.5,92z M581.1,64.6c0,2.3-0.8,4.2-2.4,5.7c-1.6,1.5-3.8,2.3-6.6,2.3c-2.8,0-5-0.8-6.6-2.3
		c-1.6-1.5-2.4-3.4-2.4-5.7c0-2.2,0.8-4.1,2.4-5.7c1.6-1.5,3.8-2.3,6.6-2.3s5,0.8,6.6,2.3C580.3,60.4,581.1,62.3,581.1,64.6z"/>
</g>
</svg>
