<?xml version="1.0" encoding="utf-8"?>
<!-- Generator: Adobe Illustrator 19.2.1, SVG Export Plug-In . SVG Version: 6.00 Build 0)  -->
<svg version="1.1" id="Layer_1" xmlns="http://www.w3.org/2000/svg" xmlns:xlink="http://www.w3.org/1999/xlink" x="0px" y="0px"
	 viewBox="0 0 360.5 108.5" style="enable-background:new 0 0 360.5 108.5;" xml:space="preserve">
<style type="text/css">
	.st0{fill:#FFFFFF;}
</style>
<title>twilio</title>
<g>
	<path class="st0" d="M254.2,21.2h-19.2c-0.5,0-1,0.4-1,1v11.1c0,0.5,0.4,1,1,1h19.2c0.5,0,1-0.4,1-1V22.2
		C255.1,21.7,254.7,21.2,254.2,21.2L254.2,21.2z"/>
	<path class="st0" d="M253.8,37.8H217c-0.6,0-1,0.4-1.2,0.9L211,56.8l0,0l-0.2,0.9L205,38.5c-0.2-0.5-0.7-0.9-1.2-0.9h-14.3
		c-0.6,0-1.1,0.4-1.2,0.9l-5.4,18.1v0l-0.3,0.9l-0.2-0.9l0,0l-2.3-9l-2.3-9c-0.2-0.5-0.6-0.9-1.2-0.9h-28.9V22.2
		c-0.1-0.6-0.6-1-1.1-0.9c-0.1,0-0.1,0-0.2,0L128.2,27c-0.5,0.1-0.9,0.5-1,1v9.8h-4.8c-0.5,0-1,0.4-1,1v13.8c0,0.5,0.4,1,1,1h4.8
		v16.9c0,12,6.5,17.5,18.5,17.5c4.5,0.1,9-0.9,13-2.8V70.7c0.1-0.4-0.2-0.8-0.6-0.8c-0.1,0-0.3,0-0.4,0.1c-1.6,0.7-3.4,1.1-5.2,1
		c-3.2,0-4.9-1.3-4.9-5V53.5H158c0.5,0,1-0.4,1-1V40.9l13.6,45.4c0.2,0.5,0.7,0.9,1.2,0.9h15.1c0.6,0,1.1-0.4,1.3-0.9l6.5-20.1
		l3.3,10.5l3,9.6c0.2,0.5,0.7,0.9,1.3,0.9h15.2c0.6,0,1.1-0.4,1.2-0.9l13.8-45.6v45.5c0,0.5,0.4,1,1,1h18.5c0.5,0,1-0.4,1-1V38.7
		C254.8,38.2,254.3,37.8,253.8,37.8L253.8,37.8L253.8,37.8z"/>
	<path class="st0" d="M278.1,21.2h-18.5c-0.5,0-1,0.4-1,1v64.1c0,0.5,0.4,1,1,1h18.5c0.5,0,1-0.4,1-1V22.2
		C279.1,21.7,278.6,21.2,278.1,21.2L278.1,21.2z"/>
	<path class="st0" d="M302.8,21.2h-19.2c-0.5,0-1,0.4-1,1v11.1c0,0.5,0.4,1,1,1h19.2c0.5,0,1-0.4,1-1V22.2
		C303.7,21.7,303.3,21.2,302.8,21.2L302.8,21.2z"/>
	<path class="st0" d="M302.4,37.8h-18.5c-0.5,0-1,0.4-1,1v47.5c0,0.5,0.4,1,1,1h18.5c0.5,0,1-0.4,1-1V38.7
		C303.4,38.2,303,37.8,302.4,37.8L302.4,37.8z"/>
	<g>
		<path class="st0" d="M340.9,62.5c0,4.7-3.3,8.5-7.9,8.5c-4.5,0-8.1-3.9-8.1-8.7v-0.2c0-4.7,3.3-8.5,7.9-8.5c4.5,0,8.1,3.9,8.1,8.7
			V62.5L340.9,62.5z M333,36.6c-16.2,0-27.7,11.9-27.7,25.7v0.2c0,13.8,11.4,25.5,27.5,25.5c16.2,0,27.7-11.9,27.7-25.7v-0.2
			C360.5,48.3,349.1,36.6,333,36.6L333,36.6z"/>
		<path class="st0" d="M54.2,94.2c-22.1,0-39.9-17.9-39.9-39.9c0-22.1,17.9-39.9,39.9-39.9c22.1,0,39.9,17.9,39.9,39.9c0,0,0,0,0,0
			C94.2,76.3,76.3,94.2,54.2,94.2L54.2,94.2z M54.2,0C24.3,0,0,24.3,0,54.2c0,30,24.3,54.2,54.2,54.2s54.2-24.3,54.2-54.2l0,0
			C108.5,24.3,84.2,0,54.2,0L54.2,0z"/>
	</g>
	<path class="st0" d="M56.5,40.7c0-6.2,5-11.3,11.3-11.3c6.2,0,11.3,5,11.3,11.3C79,47,74,52,67.8,52S56.5,47,56.5,40.7L56.5,40.7z"
		/>
	<path class="st0" d="M56.5,67.8c0-6.2,5-11.3,11.3-11.3c6.2,0,11.3,5,11.3,11.3C79,74,74,79,67.8,79C61.5,79,56.5,74,56.5,67.8
		L56.5,67.8z"/>
	<path class="st0" d="M29.5,67.8c0-6.2,5-11.3,11.3-11.3c6.2,0,11.3,5,11.3,11.3C52,74,47,79,40.7,79h0C34.5,79,29.5,74,29.5,67.8
		L29.5,67.8z"/>
	<path class="st0" d="M29.5,40.7c0-6.2,5-11.3,11.3-11.3c6.2,0,11.3,5,11.3,11.3C52,47,47,52,40.7,52h0C34.5,52,29.5,47,29.5,40.7
		L29.5,40.7z"/>
</g>
</svg>
