<?xml version="1.0" encoding="utf-8"?>
<!-- Generator: Adobe Illustrator 19.2.1, SVG Export Plug-In . SVG Version: 6.00 Build 0)  -->
<svg version="1.1" id="Layer_1" xmlns="http://www.w3.org/2000/svg" xmlns:xlink="http://www.w3.org/1999/xlink" x="0px" y="0px"
	 viewBox="0 0 280.6 89.3" style="enable-background:new 0 0 280.6 89.3;" xml:space="preserve">
<style type="text/css">
	.st0{fill:#FFFFFF;}
</style>
<title>verizon</title>
<g>
	<path class="st0" d="M258.7,17.3c1.9-0.1,3.8-0.1,5.7-0.1c-5.7,11.9-11.2,23.9-16.8,35.9c-1.5,0-3.1,0-4.6,0
		c-2.6-6-5.5-11.9-8.2-17.9c1.9,0,3.7-0.1,5.6,0c1.6,3.7,3.5,7.2,5,11C249.7,36.6,254.3,27,258.7,17.3z"/>
	<g>
		<path class="st0" d="M115.2,22.4c3.7,0,7.4,0,11,0c-0.1,3.3,0,6.6,0,9.8c-3.7-0.1-7.4,0-11.1,0C115.2,28.9,115.1,25.7,115.2,22.4z
			"/>
		<path class="st0" d="M59.7,36.5c7.5-4.3,18.4-2.8,23.5,4.5c3.1,4.3,4,9.9,4,15.1c-8.6,0.1-17.2,0-25.9,0c0.4,2.7,1.5,5.5,4,6.9
			c3.5,2,9,1.5,10.8-2.6c3.5-0.1,7.1-0.1,10.6,0c-1.2,4.1-4,7.5-7.8,9.4c-4.1,2.1-8.8,2.7-13.3,1.9c-4.8-0.7-9-3.4-11.8-7.4
			c-2.8-4.3-3.8-9.5-3-14.6C51.5,44.2,54.8,39.3,59.7,36.5z M65.6,42.7c-2.5,1.2-3.7,3.8-4.2,6.4c4.9,0,9.8,0,14.7,0
			c-0.2-2-1.1-3.9-2.5-5.4C71.5,41.6,68.1,41.6,65.6,42.7z"/>
		<path class="st0" d="M175.2,34.5c5.9-1.1,12.5,0.2,17,4.3c7.8,6.9,8.1,20.3,0.9,27.7c-5.7,5.9-15.3,7.1-22.6,3.7
			c-5.7-2.7-9.5-8.2-10.2-14.5c-0.4-3.6,0-7.2,1.4-10.5C164.1,39.6,169.2,35.6,175.2,34.5z M176.5,42.7c-3.1,1.1-4.5,4.5-5,7.5
			c-0.4,3.8-0.3,8.1,2.2,11.3c2.6,3.5,8.5,3.4,11.2,0c2.2-2.8,2.5-6.5,2.3-9.9c-0.2-3-1.2-6.2-3.7-8
			C181.4,42.1,178.8,41.9,176.5,42.7z"/>
		<path class="st0" d="M214.6,36.6c3.6-2.9,8.9-3.2,13.1-1.5c3,1.3,5.3,3.9,6.3,7c1.2,3.2,0.8,6.6,0.9,9.9c0,6.3,0,12.6,0,18.9
			c-3.7,0.1-7.3,0-11,0c0-7.2,0-14.4,0-21.7c0.1-1.9-0.8-3.8-2.3-5c-2.4-1.6-5.7-1.3-7.8,0.7c-1.5,1.7-2.3,3.9-2.3,6.1
			c0,6.6,0,13.2,0,19.8c-3.6-0.1-7.3,0-10.9,0c0-11.9,0-23.9,0-35.8c3.5,0,7.1,0,10.6,0c0,1.6-0.1,3.3-0.1,4.9
			C212.2,38.9,213.4,37.7,214.6,36.6z"/>
		<path class="st0" d="M16.2,35.2c3.8,0,7.6,0,11.4,0c2.3,7.7,4.8,15.3,6.9,23.1c2.6-7.6,4.7-15.4,7.1-23c3.7-0.1,7.4,0,11,0
			C48.5,47.1,44.4,59,40.3,71c-3.8,0-7.6-0.1-11.4,0C24.5,59.1,20.6,47.1,16.2,35.2z"/>
		<path class="st0" d="M89.7,35.2c3.5,0,7,0,10.5,0c0,2,0,4-0.1,6c0.9-1,1.6-2.2,2.5-3.2c2.5-2.6,6.1-3.7,9.6-2.8c0,3.2,0,6.3,0,9.4
			c-2.7-0.3-5.7-0.2-8,1.4c-2.4,1.9-3.7,4.7-3.5,7.8c0,5.7,0,11.4,0,17.1c-3.7,0-7.4,0-11,0C89.7,59.1,89.7,47.1,89.7,35.2z"/>
		<path class="st0" d="M115.1,35.2c3.7-0.1,7.4,0,11.1,0c-0.1,11.9,0,23.9,0,35.8c-3.7,0-7.4,0-11.1,0
			C115.2,59.1,115.2,47.1,115.1,35.2z"/>
		<path class="st0" d="M129.2,35.2c10,0,19.9,0,29.9,0c-0.1,2.7,0,5.5,0,8.2c-0.4,0.6-0.9,1.3-1.4,1.8c-5.1,5.7-10.1,11.5-15.3,17.1
			c5.9,0.1,11.7,0,17.6,0.1c0,2.9,0,5.8,0,8.6c-10.2,0-20.5,0-30.7,0c0-2.8,0-5.5,0-8.3c5.3-6,10.7-12,16.1-17.9
			c0.2-0.3,0.8-0.6,0.5-1c-5.5,0.2-11,0-16.5,0.1C129.2,41,129.2,38.1,129.2,35.2z"/>
	</g>
</g>
</svg>
