<?xml version="1.0" encoding="utf-8"?>
<!-- Generator: Adobe Illustrator 19.1.1, SVG Export Plug-In . SVG Version: 6.00 Build 0)  -->
<svg version="1.1" id="str8-corners" xmlns="http://www.w3.org/2000/svg" xmlns:xlink="http://www.w3.org/1999/xlink" x="0px"
	 y="0px" viewBox="64 0 236 325" style="enable-background:new 64 0 236 325;" xml:space="preserve">
<style type="text/css">
	.st0{fill:#FFFFFF;}
</style>
<title>LOGO_RED</title>
<g id="Layer_1">
	<g>
		<path class="st0" d="M182,312.9l-97.8-84.3V18.8H279l0.5,208.8L182,312.9z M91.3,225.4l90.7,78.2l90.5-79.2L272,25.8H91.3V225.4z"
			/>
	</g>
	<g>
		<rect x="90" y="219.8" class="st0" width="184" height="7"/>
	</g>
	<g>
		<path class="st0" d="M167,294.6c-1.9,0-3.5-1.6-3.5-3.5v-68l-53.3-23.3V50.6h39v13.8c0,1.9-1.6,3.5-3.5,3.5s-3.5-1.6-3.5-3.5v-6.8
			h-25v137.5l53.3,23.3v72.6C170.5,293.1,168.9,294.6,167,294.6z"/>
	</g>
	<g>
		<path class="st0" d="M196.8,294.4c-1.9,0-3.5-1.6-3.5-3.5v-72.5l53.2-23.3V57.8h-24.9v6.8c0,1.9-1.6,3.5-3.5,3.5s-3.5-1.6-3.5-3.5
			V50.8h38.9v148.9L200.3,223v67.9C200.3,292.8,198.8,294.4,196.8,294.4z"/>
	</g>
	<g>
		<path class="st0" d="M136,57.7c-1.9,0-3.5-1.6-3.5-3.5V40.3h16.3c1.9,0,3.5,1.6,3.5,3.5s-1.6,3.5-3.5,3.5h-9.3v6.8
			C139.5,56.1,137.9,57.7,136,57.7z"/>
	</g>
	<g>
		<path class="st0" d="M227.2,57.7c-1.9,0-3.5-1.6-3.5-3.5v-6.8h-9.9c-1.9,0-3.5-1.6-3.5-3.5s1.6-3.5,3.5-3.5h16.9v13.8
			C230.7,56.1,229.1,57.7,227.2,57.7z"/>
	</g>
	<g>
		<rect x="178.4" y="186.1" class="st0" width="7" height="120.8"/>
	</g>
	<g>
		<path class="st0" d="M179.7,209.2c-0.4,0-0.8-0.1-1.3-0.2l-51.2-19.8V139c0-1.9,1.6-3.5,3.5-3.5s3.5,1.6,3.5,3.5v45.3l46.8,18.1
			c1.8,0.7,2.7,2.7,2,4.5C182.4,208.3,181.1,209.2,179.7,209.2z"/>
	</g>
	<g>
		<path class="st0" d="M183.7,209.2c-1.4,0-2.7-0.9-3.3-2.2c-0.7-1.8,0.2-3.8,2-4.5l46.8-17.9v-44.9c0-1.9,1.6-3.5,3.5-3.5
			s3.5,1.6,3.5,3.5v49.7l-51.2,19.7C184.5,209.1,184.1,209.2,183.7,209.2z"/>
	</g>
	<g>
		<path class="st0" d="M145.4,79.4c-3.7,0-6.8-3-6.8-6.8s3-6.8,6.8-6.8s6.8,3,6.8,6.8S149.1,79.4,145.4,79.4z M145.4,68.9
			c-2.1,0-3.8,1.7-3.8,3.8s1.7,3.8,3.8,3.8s3.8-1.7,3.8-3.8S147.4,68.9,145.4,68.9z"/>
	</g>
	<g>
		<path class="st0" d="M156.4,50.6c-3.7,0-6.8-3-6.8-6.8s3-6.8,6.8-6.8s6.8,3,6.8,6.8S160.1,50.6,156.4,50.6z M156.4,40.1
			c-2.1,0-3.8,1.7-3.8,3.8s1.7,3.8,3.8,3.8s3.8-1.7,3.8-3.8S158.4,40.1,156.4,40.1z"/>
	</g>
	<g>
		<path class="st0" d="M206.4,50.6c-3.7,0-6.8-3-6.8-6.8s3-6.8,6.8-6.8s6.8,3,6.8,6.8S210.1,50.6,206.4,50.6z M206.4,40.1
			c-2.1,0-3.8,1.7-3.8,3.8s1.7,3.8,3.8,3.8s3.8-1.7,3.8-3.8S208.4,40.1,206.4,40.1z"/>
	</g>
	<g>
		<path class="st0" d="M218.4,79.4c-3.7,0-6.8-3-6.8-6.8s3-6.8,6.8-6.8s6.8,3,6.8,6.8S222.1,79.4,218.4,79.4z M218.4,68.9
			c-2.1,0-3.8,1.7-3.8,3.8s1.7,3.8,3.8,3.8s3.8-1.7,3.8-3.8S220.4,68.9,218.4,68.9z"/>
	</g>
	<g>
		<path class="st0" d="M232.4,138.6c-3.7,0-6.8-3-6.8-6.8s3-6.8,6.8-6.8s6.8,3,6.8,6.8S236.1,138.6,232.4,138.6z M232.4,128.1
			c-2.1,0-3.8,1.7-3.8,3.8s1.7,3.8,3.8,3.8s3.8-1.7,3.8-3.8S234.4,128.1,232.4,128.1z"/>
	</g>
	<g>
		<path class="st0" d="M130.4,138.6c-3.7,0-6.8-3-6.8-6.8s3-6.8,6.8-6.8s6.8,3,6.8,6.8S134.1,138.6,130.4,138.6z M130.4,128.1
			c-2.1,0-3.8,1.7-3.8,3.8s1.7,3.8,3.8,3.8s3.8-1.7,3.8-3.8S132.4,128.1,130.4,128.1z"/>
	</g>
	<g>
		<path class="st0" d="M181.4,188.8c-3.9,0-7-3.1-7-7s3.1-7,7-7c3.9,0,7,3.1,7,7S185.2,188.8,181.4,188.8z M181.4,177.8
			c-2.2,0-4,1.8-4,4s1.8,4,4,4c2.2,0,4-1.8,4-4S183.6,177.8,181.4,177.8z"/>
	</g>
</g>
<g id="Layer_3">
	<g>
		<g>
			<path class="st0" d="M127,84.9h4.2v12H146v-12h4.2V116H146v-14.9h-14.8V116H127V84.9z"/>
		</g>
		<g>
			<path class="st0" d="M168.8,83.7l14.6,32.3h-4.4l-3.6-8h-13.1l-3.5,8h-4.4L168.8,83.7z M168.8,93.4l-4.9,11.1h9.9L168.8,93.4z"/>
		</g>
		<g>
			<path class="st0" d="M210.6,86v4.8c-2.8-1.5-6-2.4-9.2-2.5c-3.4-0.1-6.6,1.2-9.1,3.5c-4.7,4.5-4.9,12-0.4,16.8
				c0.2,0.2,0.3,0.3,0.5,0.5c2.6,2.3,6,3.6,9.4,3.5c3.1-0.1,6.1-1,8.7-2.6v4.9c-2.8,1.5-5.9,2.3-9.1,2.2c-4.6,0.1-9-1.7-12.3-4.9
				c-3.3-3-5.1-7.3-5.1-11.8c-0.1-4.4,1.8-8.6,5-11.6c3.2-3.2,7.6-4.9,12.1-4.8C204.5,84,207.6,84.7,210.6,86z"/>
		</g>
		<g>
			<path class="st0" d="M216,84.9h4.2v12.6l13.1-12.6h5.9l-14.9,14.4l15,16.7h-5.4l-13.7-15.2V116H216V84.9z"/>
		</g>
	</g>
	<g>
		<g>
			<path class="st0" d="M147.2,126h9.7c4.8,0,8.8,1.2,11.8,3.6c2.9,2.2,4.6,5.6,4.6,9.2c0,2.9-1,5.7-2.9,7.9c-2,2.3-5,3.9-9.2,4.8
				l13,19.2h-7l-12.4-18.4h-1.4v18.4h-6.1V126z M153.3,131.5v15.6c9,0.2,13.5-2.4,13.5-7.8c0.1-1.7-0.5-3.4-1.6-4.7
				c-1.1-1.2-2.6-2.1-4.2-2.5C158.5,131.6,155.9,131.4,153.3,131.5z"/>
		</g>
		<g>
			<path class="st0" d="M182,126.1h6.1v27.5c0,4.1,1,7.2,2.9,9.5s4.7,3.3,8.3,3.3c3.6,0,6.3-1,8.3-3.1s3-4.9,3-8.7v-28.6h6.1v28.2
				c0,5.5-1.6,9.9-4.7,13.1s-7.3,4.9-12.5,4.9c-5.3,0-9.6-1.7-12.8-5s-4.8-8.2-4.8-14.7V126.1z"/>
		</g>
	</g>
</g>
</svg>
