<svg id="Layer_1" data-name="Layer 1" xmlns="http://www.w3.org/2000/svg" xmlns:xlink="http://www.w3.org/1999/xlink" width="226.78524" height="142.84714" viewBox="0 0 226.78524 142.84714">
  <defs>
    <style>
      .cls-1 {
        fill: url(#linear-gradient);
      }

      .cls-2 {
        fill: #fff;
      }
    </style>
    <linearGradient id="linear-gradient" x1="136.74261" y1="-3.69596" x2="95.81006" y2="140.30774" gradientTransform="matrix(1, 0, 0, -1, 0.00021, 137.16208)" gradientUnits="userSpaceOnUse">
      <stop offset="0.08244" stop-color="#d32027"/>
      <stop offset="1" stop-color="#ea6827"/>
    </linearGradient>
  </defs>
  <title>hackru_logo</title>
  <g>
    <path class="cls-1" d="M197.037,32.91733V32.88757H165.10511V13.81222l-0.01364-3.59891L162.75582,9.157A104.53263,104.53263,0,0,0,131.477,1.1274S120.23356,0,116.47164,0s-15.00487,1.1274-15.00487,1.1274A104.52485,104.52485,0,0,0,70.1879,9.157l-2.33564,1.0563L67.83862,32.88757H33.967v0.056l-7.92272,7.92277H33.967v0.00018H75.81759V40.78325h81.30856v0.08328H197.037V40.86634h7.949Zm-39.91087,4.37512H75.81759V15.42077A100.64276,100.64276,0,0,1,103.53211,8.934l1.26863-.12613s8.74776-.711,11.67088-0.711,11.67137,0.711,11.67137.711L129.41163,8.934a100.63353,100.63353,0,0,1,27.71452,6.4868V37.29246h0ZM100.264,117.662l-4.38407-5.29889,5.77433-5.7742,5.29889,4.384a18.68922,18.68922,0,0,1,4.78963-1.99377l0.646-6.83659h8.166l0.646,6.83659a18.68922,18.68922,0,0,1,4.78963,1.99377l5.29889-4.384,5.7742,5.7742-4.384,5.29889a18.78261,18.78261,0,0,1,1.61987,3.53658,61.31577,61.31577,0,0,1-8.7298,5.0974,9.14056,9.14056,0,0,0-18.19566,0,61.31612,61.31612,0,0,1-8.72979-5.0974A18.782,18.782,0,0,1,100.264,117.662ZM204.97863,91.40472H197.037V91.39979H161.29775V91.38421h-93.088v0.01558H33.967v0.00493H26.02042L33.967,99.3513v0.02745H67.83862v3.20786l0.24788,0.6701c0.44122,1.19168,11.21311,29.29143,47.32005,39.2953l1.06506,0.29512,1.06506-.29512c36.10742-10.00391,46.87932-38.10364,47.32054-39.29532l0.24788-.67011V99.37874H197.037V99.34628Zm-47.85246,9.678a54.72821,54.72821,0,0,1-8.63593,13.29114,65.82775,65.82775,0,0,1-32.0186,20.18555,65.82634,65.82634,0,0,1-32.01812-20.18555,54.72424,54.72424,0,0,1-8.63592-13.29063V94.875h81.30856v6.20768ZM107.50581,18.54009l-4.7412,4.64635,4.7412,4.66544h-3.61794l-5.02694-4.66544,5.02694-4.64635h3.61794Zm11.16283-1.69473h3.06555l-6.55048,13.32941h-3.3322Zm11.028,1.69473,5.02753,4.64635-5.02753,4.66544H126.0787l4.74181-4.66544-4.74181-4.64635h3.61794Z"/>
    <g>
      <polygon class="cls-2" points="29.163 83.218 29.163 49.081 20.97 49.081 20.97 62.297 8.193 62.297 8.193 49.081 0 49.081 0 83.218 8.193 83.218 8.193 69.953 20.97 69.953 20.97 83.218 29.163 83.218"/>
      <path class="cls-2" d="M36.87194,83.21824h8.82682L47.64967,77.854H61.15848l1.95091,5.36427h8.82682L58.28131,49.08071H50.52685ZM54.37948,59.029h0.04919c0.0487,0,.92627,3.07247,1.65774,5.02338l2.43839,6.63241H50.28335l2.43839-6.63241C53.45322,62.10155,54.33078,59.029,54.37948,59.029Z"/>
      <path class="cls-2" d="M94.03079,56.49329a9.56761,9.56761,0,0,1,7.16909,3.16986l8.33933-2.19441a17.681,17.681,0,1,0,.58488,16.386L101.83345,71.709a9.27993,9.27993,0,0,1-7.80267,3.99873c-5.31557,0-9.16821-3.65735-9.16821-9.55829C84.86258,60.54121,88.37383,56.49329,94.03079,56.49329Z"/>
      <path class="cls-2" d="M127.78115,49.08071h-8.19324V83.21824h8.19324V71.90383l2.87718-2.87718,10.33894,14.19158h9.65617l-14.58166-19.605,14.48378-14.53248H140.50932l-8.29063,8.24145c-3.46255,3.46255-4.43752,4.63329-4.48669,4.63329h-0.04871c-0.04871,0,.09789-1.65823.09789-7.31518V49.08071h0Z"/>
      <path class="cls-2" d="M186.69515,60.78471c0-7.0225-5.16946-11.704-13.7523-11.704H160.2142V83.21824h8.19324V72.09912h4.194l6.33974,11.11912h9.16821L180.5507,70.63618A10.26533,10.26533,0,0,0,186.69515,60.78471Zm-12.63077,4.04792h-5.657V56.73728h5.657a4.048,4.048,0,0,1,.103,8.09534Q174.11588,64.83328,174.06439,64.83263Z"/>
      <path class="cls-2" d="M218.592,49.08071V67.8564c0,5.85224-2.38921,8.388-6.87592,8.388s-6.8764-2.53579-6.8764-8.388V49.08071h-8.19324V68.0512c0,10.24155,5.99834,15.84981,15.06964,15.84981,9.02211,0,15.06915-5.60826,15.06915-15.84981V49.08071H218.592Z"/>
    </g>
  </g>
</svg>
