<svg id="Layer_1" data-name="Layer 1" xmlns="http://www.w3.org/2000/svg" width="75" height="75" viewBox="0 0 75 75">
  <defs>
    <style>
      .cls-1 {
        fill: #fff;
      }
    </style>
  </defs>
  <title>insta</title>
  <g>
    <path class="cls-1" d="M37.5,27.71193c3.55734,0,3.9787.01357,5.38354,0.07766a7.37194,7.37194,0,0,1,2.47386.45874,4.412,4.412,0,0,1,2.52848,2.52848,7.37188,7.37188,0,0,1,.45874,2.47384c0.06409,1.40486.07766,1.82622,0.07766,5.38356s-0.01357,3.9787-.07766,5.38354a7.37194,7.37194,0,0,1-.45874,2.47386,4.412,4.412,0,0,1-2.52848,2.52848,7.37194,7.37194,0,0,1-2.47386.45874c-1.40464.06409-1.826,0.07766-5.38354,0.07766s-3.9789-.01357-5.38354-0.07766a7.37191,7.37191,0,0,1-2.47386-.45874,4.412,4.412,0,0,1-2.52848-2.52848,7.37191,7.37191,0,0,1-.45874-2.47384c-0.06409-1.40486-.07766-1.82621-0.07766-5.38355s0.01357-3.9787.07766-5.38354a7.37191,7.37191,0,0,1,.45874-2.47386,4.412,4.412,0,0,1,2.52848-2.52848,7.37188,7.37188,0,0,1,2.47384-.45874c1.40486-.06409,1.82622-0.07766,5.38356-0.07766m0-2.4005c-3.61826,0-4.072.01532-5.493,0.08016a9.7788,9.7788,0,0,0-3.234.61927,6.81245,6.81245,0,0,0-3.89641,3.89641,9.7788,9.7788,0,0,0-.61927,3.234c-0.06483,1.421-.08016,1.8747-0.08016,5.493s0.01532,4.07195.08016,5.493a9.7788,9.7788,0,0,0,.61927,3.234,6.81246,6.81246,0,0,0,3.89641,3.89641,9.77873,9.77873,0,0,0,3.234.61927c1.421,0.06484,1.87471.08016,5.493,0.08016s4.07195-.01531,5.493-0.08016a9.77872,9.77872,0,0,0,3.234-.61927,6.81246,6.81246,0,0,0,3.89641-3.89641,9.77872,9.77872,0,0,0,.61927-3.234c0.06483-1.421.08016-1.8747,0.08016-5.493s-0.01533-4.072-.08016-5.493a9.77873,9.77873,0,0,0-.61927-3.234,6.81246,6.81246,0,0,0-3.89641-3.89641,9.7788,9.7788,0,0,0-3.234-.61927c-1.421-.06483-1.8747-0.08016-5.493-0.08016h0Z"/>
    <path class="cls-1" d="M37.5,31.79279a6.84143,6.84143,0,1,0,6.84143,6.84143A6.84143,6.84143,0,0,0,37.5,31.79279Zm0,11.28235a4.44093,4.44093,0,1,1,4.44093-4.44092A4.44093,4.44093,0,0,1,37.5,43.07514Z"/>
    <circle class="cls-1" cx="44.61174" cy="31.52248" r="1.59873"/>
  </g>
</svg>
