<?xml version="1.0" encoding="utf-8"?>
<!-- Generator: Adobe Illustrator 19.2.1, SVG Export Plug-In . SVG Version: 6.00 Build 0)  -->
<svg version="1.1" id="Layer_1" xmlns="http://www.w3.org/2000/svg" xmlns:xlink="http://www.w3.org/1999/xlink" x="0px" y="0px"
	 viewBox="0 0 75 75" style="enable-background:new 0 0 75 75;" xml:space="preserve">
<style type="text/css">
	.st0{fill:#FFFFFF;}
</style>
<title>fb</title>
<g>
	<path class="st0" d="M50.6,30.1C50.6,30.1,50.6,30.1,50.6,30.1L50.6,30.1l-8.3-4.1c-0.1,0-0.1,0-0.2-0.1c-0.1,0-0.1,0-0.2,0
		c-0.3,0-0.6,0.2-0.8,0.4L36.4,34l5.9,9.7l8.3-13.4C50.6,30.2,50.6,30.1,50.6,30.1z"/>
	<polygon class="st0" points="33.8,32.2 33.8,41 41.6,44.9 	"/>
	<path class="st0" d="M42.7,45.5l6.4,3.2c0.8,0.4,1.5,0.1,1.5-0.7V32.6L42.7,45.5z"/>
	<path class="st0" d="M32.4,30.1l-8-4C24.2,26,24.1,26,24,26c-0.3,0-0.6,0.3-0.6,0.7c0,0,0,0.1,0,0.1V44c0,0.5,0.3,1,0.8,1.2
		l7.1,3.5c0.2,0.1,0.3,0.1,0.5,0.1c0.4,0,0.8-0.4,0.8-0.8c0,0,0-0.1,0-0.1L32.4,30.1C32.5,30.1,32.4,30.1,32.4,30.1z"/>
</g>
</svg>
