<?xml version="1.0" encoding="utf-8"?>
<!-- Generator: Adobe Illustrator 19.2.1, SVG Export Plug-In . SVG Version: 6.00 Build 0)  -->
<svg version="1.1" id="Layer_1" xmlns="http://www.w3.org/2000/svg" xmlns:xlink="http://www.w3.org/1999/xlink" x="0px" y="0px"
	 viewBox="0 0 786.4 330.6" style="enable-background:new 0 0 786.4 330.6;" xml:space="preserve">
<style type="text/css">
	.st0{display:none;fill:#FFFFFF;}
	.st1{display:none;}
	.st2{display:inline;fill:#FFFFFF;}
	.st3{fill:#FFFFFF;}
</style>
<g>
	<rect x="227.4" y="246.5" class="st0" width="306" height="36"/>
	<g>
		<g>
			<g class="st1">
				<path class="st2" d="M227.5,270.8v-12.7h3.4c3.9,0,4.7,2.1,4.7,3.9c0,1.3-0.5,2.3-1.3,3c-0.9,0.7-2.1,1-3.6,1h-1.3v4.8
					L227.5,270.8L227.5,270.8z M230.5,264.3c1.2,0,2.1-0.2,2.6-0.6c0.5-0.3,0.7-0.9,0.7-1.7c0-0.7-0.2-1.3-0.6-1.6
					c-0.5-0.4-1.2-0.5-2.3-0.5h-1.4v4.4L230.5,264.3L230.5,264.3z"/>
				<path class="st2" d="M242.2,271c-1.8,0-3.2-0.6-4.2-1.8c-1-1.2-1.5-2.8-1.5-4.7c0-2,0.5-3.6,1.5-4.7c1-1.2,2.4-1.8,4.2-1.8
					s3.2,0.6,4.2,1.8c1,1.2,1.5,2.8,1.5,4.7c0,2-0.5,3.6-1.5,4.7C245.4,270.4,244,271,242.2,271z M242.2,259.7
					c-1.2,0-2.2,0.4-2.8,1.2c-0.7,0.8-1,2-1,3.6s0.3,2.8,1,3.6c0.7,0.8,1.6,1.2,2.8,1.2c1.3,0,2.2-0.4,2.8-1.2c0.7-0.8,1-2,1-3.6
					s-0.3-2.8-1-3.6C244.4,260.1,243.5,259.7,242.2,259.7z"/>
				<path class="st2" d="M258.4,270.8l-2.6-9.3c-0.3,1-1.1,3.9-2.5,8.9l-0.1,0.4h-1.4l-3.5-12.7h1.9l2.2,7.9l0.2,0.8
					c0.1-0.4,0.2-0.8,0.3-1.2l2.1-7.5h1.7c0,0,2.5,8.7,2.5,8.8c0.3-1.3,1.1-4.1,2.3-8.5l0.1-0.4h1.9l-3.5,12.7h-1.6L258.4,270.8
					L258.4,270.8z"/>
				<polygon class="st2" points="264.3,270.8 264.3,258.1 271.7,258.1 271.7,259.9 266.1,259.9 266.1,263.3 271.4,263.3 271.4,265 
					266.1,265 266.1,269.1 271.7,269.1 271.7,270.8 				"/>
				<path class="st2" d="M280.3,270.8l-3-5.1h-2.1v5.1h-1.8v-12.7h3.3c1.6,0,2.7,0.3,3.5,0.9s1.2,1.6,1.2,2.8c0,0.9-0.2,1.7-0.7,2.3
					c-0.4,0.5-0.9,0.9-1.5,1.1l3.3,5.6L280.3,270.8L280.3,270.8z M276.9,264c0.9,0,1.5-0.2,2-0.6c0.4-0.3,0.6-0.9,0.6-1.6
					s-0.2-1.2-0.6-1.6c-0.4-0.3-1.2-0.5-2.3-0.5h-1.4v4.2h1.7L276.9,264L276.9,264z"/>
				<polygon class="st2" points="283.1,270.8 283.1,258.1 290.5,258.1 290.5,259.9 284.9,259.9 284.9,263.3 290.2,263.3 290.2,265 
					284.9,265 284.9,269.1 290.5,269.1 290.5,270.8 				"/>
				<path class="st2" d="M292.1,270.8v-12.7h3.7c2,0,3.6,0.5,4.6,1.6c1.1,1.1,1.6,2.6,1.6,4.6c0,2.1-0.6,3.7-1.7,4.8
					c-1.1,1.1-2.8,1.7-4.9,1.7H292.1z M295.4,269.1c3.2,0,4.8-1.5,4.8-4.7c0-1.5-0.4-2.7-1.1-3.4c-0.8-0.7-1.9-1.1-3.4-1.1H294v9.3
					L295.4,269.1L295.4,269.1z"/>
				<path class="st2" d="M308,270.8v-12.7h3.7c1.6,0,2.7,0.3,3.5,0.8c0.8,0.6,1.2,1.5,1.2,2.6c0,0.8-0.3,1.5-0.8,2
					c-0.2,0.2-0.4,0.4-0.6,0.5c0.3,0.2,0.6,0.4,0.9,0.6c0.5,0.5,0.8,1.3,0.8,2.2c0,1.2-0.4,2.2-1.3,2.9c-0.8,0.7-1.9,1-3.4,1h-4
					L308,270.8L308,270.8z M312.1,269.1c2.4,0,2.8-1.1,2.8-2.1c0-0.8-0.3-1.9-2.9-1.9h-2.1v4.1h2.2V269.1z M311.9,263.3
					c1,0,1.7-0.2,2.1-0.5s0.5-0.7,0.5-1.3c0-0.6-0.2-1-0.6-1.3c-0.5-0.3-1.2-0.5-2.3-0.5h-1.9v3.5L311.9,263.3L311.9,263.3z"/>
				<polygon class="st2" points="320.5,270.8 320.5,266 316.3,258.1 318.4,258.1 321.5,264 324.6,258.1 326.6,258.1 322.4,265.9 
					322.4,270.8 				"/>
			</g>
		</g>
	</g>
</g>
<g>
	<g>
		<path class="st3" d="M104.4,267.3c0.7,0.4,1.3,0.7,1.9,1.1c0.6,0.6,0.9,1.1,1.1,1.9c0.2,0.7,0.4,1.5,0.4,2.3V300
			c0,0.2,0,0.6-0.2,0.6c-0.2,0.2-0.4,0.2-0.6,0.2h-6.8c-0.2,0-0.4,0-0.6-0.2c-0.2-0.2-0.2-0.4-0.2-0.6v-24.7h-5.5V300
			c0,0.2,0,0.6-0.2,0.6c-0.2,0.2-0.4,0.2-0.6,0.2h-6.2c-0.2,0-0.6,0-0.6-0.2c-0.2-0.2-0.2-0.4-0.2-0.6v-24.7H81V300
			c0,0.6-0.4,0.9-0.9,0.9h-6.8c-0.6,0-0.9-0.4-0.9-0.9v-32.1c0-0.6,0.4-0.9,0.9-0.9h29.3C103.1,266.7,103.9,266.9,104.4,267.3z"/>
		<path class="st3" d="M138.5,266.7c0.7,0,1.5,0.2,2.3,0.4c0.7,0.4,1.3,0.7,1.9,1.1c0.6,0.6,0.9,1.1,1.1,1.9
			c0.2,0.7,0.4,1.5,0.4,2.3v27.4c0,0.2,0,0.6-0.2,0.6c-0.2,0.2-0.4,0.2-0.6,0.2h-6.8c-0.2,0-0.6,0-0.6-0.2c-0.2-0.2-0.2-0.4-0.2-0.6
			v-8.7c0-0.2,0-0.6-0.2-0.6c-0.2-0.2-0.4-0.2-0.6-0.2h-9.7c-0.2,0-0.6,0-0.6,0.2c-0.2,0.2-0.2,0.4-0.2,0.6v8.7
			c0,0.6-0.4,0.9-0.9,0.9h-6.8c-0.6,0-0.9-0.4-0.9-0.9v-27.4c0-0.7,0.2-1.5,0.4-2.3c0.4-0.7,0.7-1.3,1.1-1.9
			c0.6-0.6,1.1-0.9,1.9-1.1c0.7-0.4,1.5-0.4,2.3-0.4H138.5z M135.4,282.9v-8.4H124v8.4H135.4z"/>
		<path class="st3" d="M174.6,267.1c0.2,0.2,0.2,0.4,0.2,0.6v27.4c0,0.7-0.2,1.5-0.4,2.3c-0.4,0.7-0.7,1.3-1.1,1.9
			c-0.6,0.6-1.1,0.9-1.9,1.1c-0.7,0.4-1.5,0.4-2.3,0.4h-14.6c-0.7,0-1.5-0.2-2.3-0.4c-0.7-0.4-1.3-0.7-1.9-1.1
			c-0.6-0.6-0.9-1.1-1.1-1.9c-0.4-0.7-0.4-1.5-0.4-2.3v-10.3c0-0.6,0.4-0.9,0.9-0.9h6.8c0.6,0,0.9,0.4,0.9,0.9v6.9
			c0,0.2,0,0.4,0.2,0.6c0.2,0.2,0.4,0.2,0.6,0.2h6.9c0.2,0,0.6,0,0.6-0.2c0.2-0.2,0.2-0.4,0.2-0.6v-23.8c0-0.2,0-0.6,0.2-0.6
			c0.2-0.2,0.4-0.2,0.6-0.2h6.8C174.1,266.7,174.5,266.9,174.6,267.1z"/>
		<path class="st3" d="M205.3,266.7c0.7,0,1.5,0.2,2.3,0.4c0.7,0.4,1.3,0.7,1.9,1.1c0.6,0.6,0.9,1.1,1.1,1.9
			c0.2,0.7,0.4,1.5,0.4,2.3v22.5c0,0.7-0.2,1.5-0.4,2.3c-0.4,0.7-0.7,1.3-1.1,1.9c-0.6,0.6-1.1,0.9-1.9,1.1
			c-0.7,0.4-1.5,0.4-2.3,0.4h-17.1c-0.7,0-1.5-0.2-2.3-0.4c-0.7-0.4-1.3-0.7-1.9-1.1c-0.6-0.6-0.9-1.1-1.1-1.9
			c-0.4-0.7-0.4-1.5-0.4-2.3v-22.5c0-0.7,0.2-1.5,0.4-2.3c0.2-0.7,0.7-1.3,1.1-1.9c0.6-0.6,1.1-0.9,1.9-1.1c0.7-0.4,1.5-0.4,2.3-0.4
			H205.3z M202.2,274.9h-11.4v17.5h11.4V274.9z"/>
		<path class="st3" d="M248,299.9c0.2,0.2,0.2,0.4,0,0.6c-0.2,0.2-0.2,0.2-0.6,0.2h-7.7c-0.2,0-0.6,0-0.7-0.2
			c-0.2-0.2-0.4-0.4-0.6-0.6l-5.1-9.2c0-0.2-0.2-0.2-0.4-0.2h-5.8c-0.2,0-0.2,0-0.2,0.2v9c0,0.6-0.4,0.9-0.9,0.9h-6.8
			c-0.6,0-0.9-0.4-0.9-0.9v-32.1c0-0.6,0.4-0.9,0.9-0.9h22c0.7,0,1.5,0.2,2.3,0.4c0.7,0.4,1.3,0.7,1.9,1.1c0.6,0.6,0.9,1.1,1.1,1.9
			c0.4,0.7,0.4,1.5,0.4,2.3v12.7c0,1.3-0.4,2.3-1.1,3.3c-0.7,0.9-1.7,1.7-2.8,2h-0.3c-0.2,0-0.2,0.2-0.2,0.4v0.2L248,299.9z
			 M238.5,274.6h-11.7v8.2h11.7V274.6z"/>
		<path class="st3" d="M293.7,292.4c0.2,0,0.4,0,0.6,0.2s0.2,0.4,0.2,0.6v6.4c0,0.2,0,0.6-0.2,0.6c-0.2,0.2-0.4,0.2-0.6,0.2h-20.8
			c-0.6,0-0.9-0.4-0.9-0.9v-32.1c0-0.6,0.4-0.9,0.9-0.9h6.8c0.6,0,0.9,0.4,0.9,0.9v23.8c0,0.2,0,0.4,0.2,0.6s0.4,0.2,0.6,0.2h12.4
			L293.7,292.4L293.7,292.4z"/>
		<path class="st3" d="M325,267.1c0.2,0.2,0.2,0.4,0.2,0.6v2.8v1.5v1.9c0,0.2,0,0.4-0.2,0.6s-0.4,0.2-0.6,0.2h-3.3H311h-2.6
			c-0.2,0-0.2,0-0.2,0.2v5.2c0,0.2,0,0.2,0.2,0.2h13.9c0.2,0,0.4,0,0.6,0.2s0.2,0.4,0.2,0.6v4.9c0,0.2,0,0.6-0.2,0.6
			c-0.2,0.2-0.4,0.2-0.6,0.2h-13.9c-0.2,0-0.2,0-0.2,0.2v2.4l0,0v2.8c0,0.2,0,0.2,0.2,0.2h2h10.9h3.2c0.2,0,0.6,0,0.6,0.2
			c0.2,0.2,0.2,0.4,0.2,0.6v1.9v2.4v1.7c0,0.2,0,0.6-0.2,0.6c-0.2,0.2-0.4,0.2-0.6,0.2h-2.8h-18.5h-2.8c-0.6,0-0.9-0.4-0.9-0.9v-1.7
			v-28.2v-2.3c0-0.2,0-0.6,0.2-0.6c0.2-0.2,0.4-0.2,0.6-0.2h3.6h18.9h1.5C324.6,266.7,324.8,266.9,325,267.1z"/>
		<path class="st3" d="M355.8,266.7c0.7,0,1.5,0.2,2.3,0.4c0.7,0.4,1.3,0.7,1.9,1.1c0.6,0.6,0.9,1.1,1.1,1.9
			c0.2,0.7,0.4,1.5,0.4,2.3v27.4c0,0.2,0,0.6-0.2,0.6c-0.2,0.2-0.4,0.2-0.6,0.2h-6.9c-0.2,0-0.6,0-0.6-0.2c-0.2-0.2-0.2-0.4-0.2-0.6
			v-8.7c0-0.2,0-0.6-0.2-0.6c-0.2-0.2-0.4-0.2-0.6-0.2h-9.8c-0.2,0-0.6,0-0.6,0.2c-0.2,0.2-0.2,0.4-0.2,0.6v8.7
			c0,0.6-0.4,0.9-0.9,0.9h-6.8c-0.6,0-0.9-0.4-0.9-0.9v-27.4c0-0.7,0.2-1.5,0.4-2.3c0.4-0.7,0.7-1.3,1.1-1.9
			c0.6-0.6,1.1-0.9,1.9-1.1c0.7-0.4,1.5-0.4,2.3-0.4H355.8z M352.8,282.9v-8.4h-11.4v8.4H352.8z"/>
		<path class="st3" d="M397.3,282.4c0.2,0.2,0.2,0.4,0.2,0.6v12c0,0.7-0.2,1.5-0.4,2.3c-0.4,0.7-0.7,1.3-1.1,1.9
			c-0.6,0.6-1.1,0.9-1.9,1.1c-0.7,0.4-1.5,0.4-2.3,0.4h-17.1c-0.7,0-1.5-0.2-2.3-0.4c-0.7-0.4-1.3-0.7-1.9-1.1
			c-0.6-0.6-0.9-1.1-1.1-1.9c-0.4-0.7-0.4-1.5-0.4-2.3v-22.5c0-0.7,0.2-1.5,0.4-2.3c0.2-0.7,0.7-1.3,1.1-1.9
			c0.6-0.6,1.1-0.9,1.9-1.1c0.7-0.4,1.5-0.4,2.3-0.4h20.1c0.2,0,0.6,0,0.6,0.2c0.2,0.2,0.2,0.4,0.2,0.6v6.4c0,0.2,0,0.6-0.2,0.6
			c-0.2,0.2-0.4,0.2-0.6,0.2h-16.2c-0.2,0-0.6,0-0.6,0.2c-0.2,0.2-0.2,0.4-0.2,0.6v15.8c0,0.2,0,0.4,0.2,0.6
			c0.2,0.2,0.4,0.2,0.6,0.2h9.6c0.2,0,0.4,0,0.6-0.2c0.2-0.2,0.2-0.4,0.2-0.6v-8.4c0-0.2,0-0.6,0.2-0.6c0.2-0.2,0.4-0.2,0.6-0.2h6.8
			C396.7,282.1,397,282.3,397.3,282.4z"/>
		<path class="st3" d="M432.9,267.1c0.2,0.2,0.2,0.4,0.2,0.6v27.4c0,0.7-0.2,1.5-0.4,2.3c-0.4,0.7-0.7,1.3-1.1,1.9
			c-0.6,0.6-1.1,0.9-1.9,1.1c-0.7,0.4-1.5,0.4-2.3,0.4h-17.1c-0.7,0-1.5-0.2-2.3-0.4c-0.7-0.4-1.3-0.7-1.9-1.1
			c-0.6-0.6-0.9-1.1-1.1-1.9c-0.4-0.7-0.4-1.5-0.4-2.3v-27.4c0-0.6,0.4-0.9,0.9-0.9h6.8c0.6,0,0.9,0.4,0.9,0.9v23.8
			c0,0.2,0,0.4,0.2,0.6c0.2,0.2,0.4,0.2,0.6,0.2h9.6c0.2,0,0.4,0,0.6-0.2c0.2-0.2,0.2-0.4,0.2-0.6v-23.8c0-0.2,0-0.6,0.2-0.6
			c0.2-0.2,0.4-0.2,0.6-0.2h6.8C432.6,266.7,432.7,266.9,432.9,267.1z"/>
		<path class="st3" d="M466.5,267.1c0.2,0.2,0.2,0.4,0.2,0.6v2.8v1.5v1.9c0,0.2,0,0.4-0.2,0.6c-0.2,0.2-0.4,0.2-0.6,0.2h-3.3h-10.1
			h-2.6c-0.2,0-0.2,0-0.2,0.2v5.2c0,0.2,0,0.2,0.2,0.2h13.9c0.2,0,0.4,0,0.6,0.2s0.2,0.4,0.2,0.6v4.9c0,0.2,0,0.6-0.2,0.6
			c-0.2,0.2-0.4,0.2-0.6,0.2h-13.9c-0.2,0-0.2,0-0.2,0.2v2.4l0,0v2.8c0,0.2,0,0.2,0.2,0.2h2h10.9h3.2c0.2,0,0.6,0,0.6,0.2
			c0.2,0.2,0.2,0.4,0.2,0.6v1.9v2.4v1.7c0,0.2,0,0.6-0.2,0.6c-0.2,0.2-0.4,0.2-0.6,0.2h-2.8h-18.4H442c-0.6,0-0.9-0.4-0.9-0.9v-1.7
			v-28.2v-2.3c0-0.2,0-0.6,0.2-0.6c0.2-0.2,0.4-0.2,0.6-0.2h3.6h18.9h1.5C466.1,266.7,466.4,266.9,466.5,267.1z"/>
		<path class="st3" d="M518.5,266.7c0.2,0,0.6,0,0.6,0.2c0.2,0.2,0.2,0.4,0.2,0.6v32.1c0,0.2,0,0.6-0.2,0.6
			c-0.2,0.2-0.4,0.2-0.6,0.2h-6.8c-0.2,0-0.6,0-0.6-0.2c-0.2-0.2-0.2-0.4-0.2-0.6v-11.3c0-0.2,0-0.4-0.2-0.6
			c-0.2-0.2-0.4-0.2-0.6-0.2h-9.6c-0.2,0-0.6,0-0.6,0.2c-0.2,0.2-0.2,0.4-0.2,0.6v11.3c0,0.6-0.4,0.9-0.9,0.9h-6.8
			c-0.6,0-0.9-0.4-0.9-0.9v-32.1c0-0.6,0.4-0.9,0.9-0.9h6.8c0.6,0,0.9,0.4,0.9,0.9v10.9c0,0.6,0.4,0.9,0.9,0.9h9.6
			c0.2,0,0.4,0,0.6-0.2c0.2-0.2,0.2-0.4,0.2-0.6v-10.9c0-0.2,0-0.6,0.2-0.6c0.2-0.2,0.4-0.2,0.6-0.2h6.5L518.5,266.7L518.5,266.7z"
			/>
		<path class="st3" d="M549.9,266.7c0.7,0,1.5,0.2,2.3,0.4c0.7,0.4,1.3,0.7,1.9,1.1c0.6,0.6,0.9,1.1,1.1,1.9
			c0.2,0.7,0.4,1.5,0.4,2.3v27.4c0,0.2,0,0.6-0.2,0.6c-0.2,0.2-0.4,0.2-0.6,0.2h-6.8c-0.2,0-0.6,0-0.6-0.2c-0.2-0.2-0.2-0.4-0.2-0.6
			v-8.7c0-0.2,0-0.6-0.2-0.6c-0.2-0.2-0.4-0.2-0.6-0.2h-9.6c-0.2,0-0.6,0-0.6,0.2c-0.2,0.2-0.2,0.4-0.2,0.6v8.7
			c0,0.6-0.4,0.9-0.9,0.9h-6.8c-0.6,0-0.9-0.4-0.9-0.9v-27.4c0-0.7,0.2-1.5,0.4-2.3c0.4-0.7,0.7-1.3,1.1-1.9
			c0.6-0.6,1.1-0.9,1.9-1.1c0.7-0.4,1.5-0.4,2.3-0.4H549.9z M547,282.9v-8.4h-11.4v8.4H547z"/>
		<path class="st3" d="M571.9,275.2c-0.2,0.2-0.2,0.4-0.2,0.6v15.8c0,0.2,0,0.4,0.2,0.6c0.2,0.2,0.4,0.2,0.6,0.2H588
			c0.2,0,0.6,0,0.6,0.2c0.2,0.2,0.2,0.4,0.2,0.6v6.4c0,0.2,0,0.6-0.2,0.6c-0.2,0.2-0.4,0.2-0.6,0.2h-10.1h-8.2h-0.9
			c-0.7,0-1.5-0.2-2.3-0.4c-0.7-0.4-1.3-0.7-1.9-1.1c-0.6-0.6-0.9-1.1-1.1-1.9c-0.4-0.7-0.4-1.5-0.4-2.3v-0.9v-3.6v-11.3v-3.2v-3.8
			c0-0.7,0.2-1.5,0.4-2.3c0.4-0.7,0.7-1.3,1.1-1.9c0.6-0.6,1.1-0.9,1.9-1.1c0.7-0.4,1.5-0.4,2.3-0.4h0.9H588c0.2,0,0.6,0,0.6,0.2
			c0.2,0.2,0.2,0.4,0.2,0.6v6.4c0,0.2,0,0.6-0.2,0.6c-0.2,0.2-0.4,0.2-0.6,0.2h-15.6C572.2,274.9,572,275.2,571.9,275.2z"/>
		<path class="st3" d="M615.9,281c-0.2,0.2-0.2,0.2,0,0.4l11.3,18.6c0.2,0.2,0.2,0.4,0,0.6c-0.2,0.2-0.2,0.2-0.6,0.2h-8.1
			c-0.2,0-0.6,0-0.7-0.2c-0.2-0.2-0.4-0.4-0.6-0.6l-7.3-13.1c-0.2-0.2-0.2-0.2-0.2,0l-3.9,4.3c-0.2,0.2-0.4,0.4-0.4,0.7
			c-0.2,0.4-0.2,0.6-0.2,0.9v7.1c0,0.6-0.4,0.9-0.9,0.9h-6.5c-0.6,0-0.9-0.4-0.9-0.9v-32.1c0-0.6,0.4-0.9,0.9-0.9h6.8
			c0.6,0,0.9,0.4,0.9,0.9v14.5l12.6-14.6c0.2-0.2,0.4-0.4,0.7-0.6c0.4-0.2,0.6-0.2,0.7-0.2h8.1c0.2,0,0.4,0,0.4,0.2
			c0,0.2,0,0.4-0.2,0.6L615.9,281z"/>
		<path class="st3" d="M642,299.8c0,0.6-0.4,0.9-0.9,0.9h-6.8c-0.6,0-0.9-0.4-0.9-0.9v-32.1c0-0.6,0.4-0.9,0.9-0.9h6.8
			c0.6,0,0.9,0.4,0.9,0.9V299.8z"/>
		<path class="st3" d="M674.7,267.3c0.7,0.4,1.3,0.7,1.9,1.1c0.6,0.6,0.9,1.1,1.1,1.9c0.4,0.7,0.4,1.5,0.4,2.3V300
			c0,0.2,0,0.6-0.2,0.6c-0.2,0.2-0.4,0.2-0.6,0.2h-6.8c-0.2,0-0.4,0-0.6-0.2c-0.2-0.2-0.2-0.4-0.2-0.6v-23.8c0-0.2,0-0.4-0.2-0.6
			c-0.2-0.2-0.4-0.2-0.6-0.2h-9.6c-0.2,0-0.6,0-0.6,0.2c0,0.2-0.2,0.4-0.2,0.6V300c0,0.6-0.4,0.9-0.9,0.9h-6.9
			c-0.6,0-0.9-0.4-0.9-0.9v-32.1c0-0.6,0.4-0.9,0.9-0.9h22C673.3,266.7,674.1,266.9,674.7,267.3z"/>
		<path class="st3" d="M713.9,282.4c0.2,0.2,0.2,0.4,0.2,0.6v12c0,0.7-0.2,1.5-0.4,2.3c-0.4,0.7-0.7,1.3-1.1,1.9
			c-0.6,0.6-1.1,0.9-1.9,1.1c-0.7,0.4-1.5,0.4-2.3,0.4h-17.1c-0.7,0-1.5-0.2-2.3-0.4c-0.7-0.4-1.3-0.7-1.9-1.1
			c-0.6-0.6-0.9-1.1-1.1-1.9c-0.4-0.7-0.4-1.5-0.4-2.3v-22.5c0-0.7,0.2-1.5,0.4-2.3c0.2-0.7,0.7-1.3,1.1-1.9
			c0.6-0.6,1.1-0.9,1.9-1.1c0.7-0.4,1.5-0.4,2.3-0.4h20.2c0.2,0,0.6,0,0.6,0.2c0.2,0.2,0.2,0.4,0.2,0.6v6.4c0,0.2,0,0.6-0.2,0.6
			c-0.2,0.2-0.4,0.2-0.6,0.2h-16.2c-0.2,0-0.6,0-0.6,0.2c-0.2,0.2-0.2,0.4-0.2,0.6v15.8c0,0.2,0,0.4,0.2,0.6
			c0.2,0.2,0.4,0.2,0.6,0.2h9.6c0.2,0,0.4,0,0.6-0.2c0.2-0.2,0.2-0.4,0.2-0.6v-8.4c0-0.2,0-0.6,0.2-0.6c0.2-0.2,0.4-0.2,0.6-0.2h6.8
			C713.5,282.1,713.8,282.3,713.9,282.4z"/>
	</g>
</g>
<g id="Layer_2">
	<g>
		<path class="st3" d="M276.5,33.2c4.3,1.9,8.1,4.3,11.3,7.3s5.6,6.8,7.7,10.9c1.9,4.2,3,8.7,3,13.3v179.6c0,1.5-0.6,2.8-1.7,3.9
			s-2.4,1.7-4.2,1.7H250c-1.7,0-3-0.6-3.9-1.7s-1.5-2.4-1.5-3.9V80.5h-34.4v163.9c0,1.5-0.6,2.8-1.5,3.9s-2.4,1.7-3.9,1.7h-38.7
			c-1.7,0-3-0.6-4.2-1.7c-1.1-1.1-1.7-2.4-1.7-3.9V80.5h-34.2v163.9c0,3.8-1.9,5.6-5.8,5.6H78c-3.9,0-5.8-1.9-5.8-5.6V36
			c0-3.8,1.9-5.6,5.8-5.6h184.7C267.6,30.4,272.3,31.3,276.5,33.2z"/>
	</g>
	<g>
		<path class="st3" d="M484,196.5c1.7,0,3.2,0.6,4.2,1.7c1.1,1.1,1.7,2.6,1.7,4.3V244c0,1.7-0.6,3-1.7,4.2s-2.4,1.7-4.2,1.7H338.1
			c-4.2,0-6.2-2-6.2-6V36.4c0-3.9,2-6,6.2-6h44.7c4.2,0,6.2,2,6.2,6v154.6c0,1.7,0.6,3,1.9,4.2c1.1,1.1,2.6,1.5,4.3,1.5h88.8
			L484,196.5L484,196.5z"/>
	</g>
	<g>
		<path class="st3" d="M708.1,30.4c1.7,0,3.2,0.6,4.3,1.7c1.1,1.1,1.9,2.6,1.9,4.3v207.6c0,1.7-0.6,3-1.9,4.2
			c-1.1,1.1-2.6,1.7-4.3,1.7h-45.1c-1.7,0-3.2-0.6-4.3-1.7c-1.1-1.1-1.9-2.6-1.9-4.2v-72.4c0-1.7-0.6-3-1.7-4.2
			c-1.1-1.1-2.4-1.5-4.3-1.5h-64.2c-1.7,0-3.2,0.6-4.3,1.5c-1.1,1.1-1.9,2.4-1.9,4.2v72.4c0,3.9-2,6-6.2,6h-44.8c-4.2,0-6.2-2-6.2-6
			V36.4c0-3.9,2-6,6.2-6h44.8c4.2,0,6.2,2,6.2,6v70.2c0,3.9,2,6,6.2,6h64.2c1.7,0,3.2-0.6,4.3-1.7s1.7-2.6,1.7-4.3V36.4
			c0-1.7,0.6-3,1.9-4.3c1.1-1.1,2.6-1.7,4.3-1.7L708.1,30.4L708.1,30.4z"/>
	</g>
</g>
</svg>
