<?xml version="1.0" encoding="utf-8"?>
<!-- Generator: Adobe Illustrator 19.2.1, SVG Export Plug-In . SVG Version: 6.00 Build 0)  -->
<svg version="1.1" id="Layer_2" xmlns="http://www.w3.org/2000/svg" xmlns:xlink="http://www.w3.org/1999/xlink" x="0px" y="0px"
	 viewBox="0 0 1329.1 576.1" style="enable-background:new 0 0 1329.1 576.1;" xml:space="preserve">
<style type="text/css">
	.st0{fill:#FFFFFF;}
</style>
<title>usacs</title>
<g>
	<g>
		<path class="st0" d="M238.9,402.5c-15,0-28.5-1.9-40.4-5.7c-11.3-3.5-21.8-9.4-30.5-17.6c-8.4-7.9-14.8-17.9-19.3-29.9
			c-4.5-12-6.7-26.3-6.7-42.7V189.2h59.3v116.5c0,15.2,3.5,26.4,10.4,33.7c6.9,7.2,16.2,10.9,28,10.9c11.6,0,21-3.5,27.9-10.5
			c6.9-6.9,10.4-17.9,10.4-32.7V189.2h59.3v116.2c0,16.9-2.3,31.5-7,43.9c-4.7,12.2-11.2,22.4-19.8,30.2
			c-8.8,8.1-19.4,14.1-30.8,17.6C267.3,400.7,253.9,402.5,238.9,402.5z"/>
		<path class="st0" d="M453.7,402.2c-18.2,0.1-36.2-2.9-53.4-8.8c-16.5-5.6-31.7-14.5-44.7-26.2l32.4-38.7
			c20.9,16.7,43.6,25.1,68,25.1c7.8,0,13.7-1.2,17.8-3.8c3.9-2.1,6.2-6.2,6.1-10.6v-0.6c0-2-0.5-4.1-1.5-5.8c-1.4-2-3.3-3.8-5.5-4.9
			c-3.5-1.9-7-3.5-10.8-4.6c-4.5-1.5-10.3-3.1-17.6-4.6c-11.2-2.6-21.5-5.4-31.1-8.5c-8.9-2.8-17.3-6.7-25-11.9
			c-6.9-4.7-12.7-10.9-16.7-18.3c-4.1-7.2-6.1-16.2-6.1-27v-0.6c-0.1-9.3,1.7-18.5,5.5-26.8c3.7-8.2,9.3-15.4,16.1-21.2
			c7.6-6.2,16.2-10.9,25.6-13.9c10.9-3.5,22.4-5.1,33.8-4.9c18,0,34,2.3,48.1,7c13.9,4.6,26.8,11.7,38.2,20.9l-29,41.2
			c-9.1-6.5-19-11.7-29.5-15.4c-9.4-3.4-19.2-5.1-29.2-5.2c-6.9,0-12.2,1.3-15.7,3.9c-3.5,2.6-5.2,5.8-5.2,9.6v0.6
			c0,2.2,0.5,4.4,1.6,6.2c1.4,2.1,3.4,3.8,5.7,4.9c3.6,1.8,7.2,3.4,11,4.5c4.7,1.5,10.6,3.1,17.8,4.6c11,2.3,21.8,5.4,32.5,9.1
			c8.8,3.1,17.1,7.3,24.7,12.7c6.5,4.7,11.8,10.9,15.5,18.1c3.6,7,5.4,15.5,5.4,25.2v0.6c0,10.7-2,20.3-6.1,28.7
			s-9.9,15.6-17.3,21.3c-8,6.1-16.9,10.7-26.6,13.5C477.2,400.8,465.5,402.4,453.7,402.2z"/>
		<path class="st0" d="M639,187.7h55.9l89.2,211h-62.3l-15.3-37.5h-80.8l-14.8,37.5h-61L639,187.7z M689.9,316.4l-23.4-59.5
			l-23.7,59.5H689.9z"/>
		<path class="st0" d="M905.4,402.8c-14.5,0.1-28.8-2.7-42.2-8.1c-12.9-5.2-24.5-12.9-34.3-22.6c-20.5-20.6-31.8-48.6-31.5-77.7
			v-0.6c-0.2-28.9,11.1-56.8,31.4-77.4c9.9-10,21.8-17.9,34.9-23.2c14-5.7,29-8.6,44.1-8.4c9.9-0.1,19.7,0.9,29.3,3.2
			c8.4,1.9,16.4,5,24.1,9c7.1,3.8,13.8,8.5,19.8,13.9c5.8,5.3,11.1,11.2,15.7,17.7L953,262.5c-5.5-7.1-12.1-13.2-19.8-18
			c-7.1-4.4-15.8-6.5-26-6.6c-6.9-0.1-13.9,1.4-20.2,4.4c-6,2.9-11.3,6.8-15.7,11.8c-4.5,5.2-8,11.2-10.3,17.7
			c-2.6,6.9-3.8,14.2-3.8,21.5v0.6c0,7.5,1.2,14.9,3.8,22c2.2,6.5,5.8,12.6,10.3,17.8c4.4,5,9.7,9,15.7,11.8
			c6.3,3,13.3,4.4,20.2,4.4c5,0,10-0.5,14.8-1.8c4.3-1.1,8.5-2.9,12.2-5.2c3.8-2.3,7.2-5,10.5-8.1c3.5-3.3,6.7-6.7,9.7-10.3
			l43.7,31.1c-4.9,6.7-10.4,13.1-16.3,18.9c-6,5.8-12.8,10.9-20,15c-8,4.4-16.3,7.7-25.1,9.9C926.4,401.8,915.9,402.9,905.4,402.8z"
			/>
		<path class="st0" d="M1105.3,402.2c-18.2,0.1-36.2-2.9-53.4-8.8c-16.5-5.6-31.7-14.5-44.7-26.2l32.4-38.7
			c20.9,16.7,43.6,25.1,68,25.1c7.8,0,13.7-1.2,17.8-3.8c3.9-2.1,6.2-6.2,6.1-10.6v-0.6c0-2-0.5-4.1-1.5-5.8c-1.4-2-3.3-3.8-5.5-4.9
			c-3.5-1.9-7-3.5-10.8-4.6c-4.5-1.5-10.3-3.1-17.6-4.6c-11.1-2.6-21.5-5.4-31.1-8.5c-8.9-2.8-17.3-6.7-25-11.9
			c-6.9-4.7-12.7-10.9-16.7-18.3c-4.1-7.2-6.1-16.2-6.1-27v-0.6c-0.1-9.3,1.7-18.5,5.5-26.8c3.7-8.2,9.3-15.4,16.1-21.2
			c7.6-6.2,16.2-10.9,25.6-13.9c10.9-3.5,22.4-5.1,33.8-4.9c18,0,34,2.3,48.1,7c13.9,4.6,26.8,11.7,38.2,20.9l-29,41.1
			c-9.1-6.5-19-11.7-29.5-15.4c-9.4-3.4-19.2-5.1-29.2-5.2c-6.9,0-12.2,1.3-15.7,3.9c-3.5,2.6-5.2,5.8-5.2,9.6v0.6
			c0,2.2,0.5,4.4,1.6,6.2c1.4,2.1,3.4,3.8,5.7,4.9c3.6,1.8,7.2,3.4,11,4.5c4.7,1.5,10.6,3.1,17.8,4.6c11,2.3,21.8,5.4,32.5,9.1
			c8.8,3.1,17.1,7.3,24.7,12.7c6.5,4.7,11.8,10.9,15.5,18.1c3.6,7,5.4,15.5,5.4,25.2v0.6c0,10.7-2,20.3-6.1,28.7
			c-4.1,8.4-9.9,15.6-17.3,21.3c-8,6.1-16.9,10.7-26.6,13.5C1128.7,400.8,1117,402.4,1105.3,402.2z"/>
	</g>
	<g>
		<path class="st0" d="M613.1,393.1l-14.9,3.2c-2.9-10.7-11.2-19.1-21.9-21.7l11-64.3l-21.9,52l-2,11.9c-1.1,0.2-2.2,0.5-3.4,0.8
			l-10,23.8h2.2c3-9.2,12.9-14.3,22-11.4c5.4,1.7,9.7,5.9,11.4,11.4h25.3L613.1,393.1z"/>
		<path class="st0" d="M414.8,397.7c0.7-5.2,0-10.5-2-15.4l24.3-30.3c-4.6-0.9-9.2-2-13.7-3.6L405,371.3c-3.7-3.3-8.1-5.7-12.8-6.9
			L398,336c-3.5-2.2-6.8-4.7-10.2-7.3l-2,2.3l-6.6,32.9c-6.4,1.1-12.4,4.4-16.8,9.2c3.5,2.7,7,5.2,10.7,7.6
			c7.3-6.3,18.4-5.5,24.7,1.8c2.8,3.2,4.3,7.2,4.3,11.4c0,0.1,0,0.2,0,0.2C406.4,395.5,410.5,396.7,414.8,397.7z"/>
		<path class="st0" d="M857.3,178.1c1.3-0.5,2.8-1.1,4.1-1.6c-16.1-4.9-33.1,4.2-38.1,20.3c-0.3,0.9-0.5,1.9-0.7,2.9
			C832.9,190.5,844.7,183.3,857.3,178.1z"/>
		<path class="st0" d="M952.1,157.8l-1.9,16.8c4.2,1.3,8.4,3,12.5,4.8l2.4-21.3c16.5-3.2,27.4-19.2,24.1-35.7S970,95,953.5,98.2
			c-16.5,3.2-27.4,19.2-24.1,35.7C931.6,145.7,940.6,155,952.1,157.8z M959.3,110.6c9.7,0,17.6,7.9,17.6,17.6s-7.9,17.6-17.6,17.6
			s-17.6-7.9-17.6-17.6C941.7,118.5,949.6,110.6,959.3,110.6L959.3,110.6z"/>
		<path class="st0" d="M769.1,389.2c-9.7,0-17.6-7.9-17.6-17.6c0-8.3,5.8-15.5,14-17.1l-42.4-100.3c-8.9,4-19.2,0.1-23.3-8.8
			c-4-8.9-0.1-19.2,8.8-23.3c0.3-0.1,0.5-0.2,0.8-0.3l-5-11.8c-8.8,3.6-15.4,11.1-18,20.3l-59.5-14l-5.1,12l64,15.1
			c2.6,14.6,15.2,25.2,30,25.2c0.8,0,1.6,0,2.3-0.1l34,77.8c-6.9,4.6-11.6,11.8-13.2,20l-28,5.9l5,12.1l23.6-5
			c2.2,8.3,7.9,15.3,15.4,19.3h28.1c0.3-0.1,0.5-0.3,0.8-0.4l-5.1-12C776,388.1,772.6,389.2,769.1,389.2z"/>
		<path class="st0" d="M729.7,227.5c1.8,2.3,3.1,5.2,3.5,8.2l8.1,19.2c3.3-4.9,5-10.7,5-16.6c0-0.1,0-0.1,0-0.1l54.9-13.6
			c3.8-5.8,8.1-11.3,12.9-16.4l-70.5,17.5c-4.1-8.9-12.2-15.3-21.8-17.1L729.7,227.5z"/>
		<path class="st0" d="M1077.3,170.5c-2.4-9.4,3.2-19,12.6-21.4s19,3.2,21.4,12.6c0.7,2.6,0.7,5.2,0.2,7.9c4.4,0.3,8.7,0.7,12.9,1.3
			c2.7-16.6-8.8-32.3-25.3-34.8c-16.6-2.7-32.3,8.8-34.8,25.3c-0.6,4-0.5,8,0.5,11.8C1068.8,172,1073,171.1,1077.3,170.5z"/>
		<path class="st0" d="M198.7,283.9c0.5,2.7,1.2,5.2,2.4,7.7v-25.7c-0.7,1.5-1.3,3.3-1.8,4.9l-57.5-14V270L198.7,283.9z"/>
		<path class="st0" d="M825.6,219.9c7.9,14.8,26.2,20.5,41.1,12.7c3.9-2,7.2-4.9,9.9-8.4l45.4,15.6c2,0.5,4,1.2,5.9,2l13.9,4.8
			l-0.4,3.8c4.3,3.6,8.2,7.7,11.6,12l1.3-11.5l9.5,3.3l12.2-9.5l-20.2-6.9l4.8-40.9c-4-2-8.2-3.9-12.4-5.4l-4.9,42.1l-61.2-21
			c1.9-8.2,0.3-16.8-4.4-23.9c-4.5,1.1-8.9,2.6-13.2,4.3c7,6.7,7.2,17.8,0.5,24.8c-6.7,7-17.8,7.2-24.8,0.5c-2.2-2.1-4-5-4.8-8.1
			c-2.3,1.9-4.7,4.1-6.8,6.2C827.7,217.7,826.6,218.8,825.6,219.9z"/>
		<path class="st0" d="M941.8,313.7l5.9-7l2.4-21.1l-0.1,0.1l-10.2-12.9c-0.3-0.4-0.7-0.9-1.1-1.3l-6,51.8c0.2-0.2,0.4-0.3,0.5-0.5
			C936.4,319.8,939.2,316.9,941.8,313.7z"/>
		<path class="st0" d="M1071.1,347c-10.6-4.2-20.6-9.9-29.7-16.9l56.3,72c2.4,0.1,5,0.2,7.6,0.2c3,0,5.9-0.1,8.8-0.3L1071.1,347z"/>
		<path class="st0" d="M1029.4,314.8l1.9-2.3c-0.3-0.2-0.5-0.4-0.8-0.5c-3.3-2.2-6.4-4.8-9.3-7.6L1029.4,314.8z"/>
		<path class="st0" d="M1130,188.5c-10.5-1.9-21.1-3-31.8-2.9c-11-0.1-21.9,1.4-32.5,4.5l-43.4,49.9c-1.2-0.7-2.4-1.4-3.8-2
			c-0.9,4.6-1.4,9.3-1.4,14.1c7.1,5.6,8.9,15.7,3.9,23.4c0.6,1.6,1.4,3.2,2.2,4.7c1.4,2.4,3,4.9,4.8,7.1c1.4-1.4,2.7-3.1,3.8-4.7
			l96.8,28.1c-0.1,0.9-0.1,1.8-0.1,2.9c0,16.8,13.7,30.5,30.4,30.5c14.4,0,26.7-10,29.8-24c-0.8-4-2.1-7.9-4-11.5
			c-3.7-7.1-9-13.4-15.5-18.1c-3.8-2.8-7.8-5.1-11.8-7.2c-10.3,0.6-19.6,6.3-24.7,15.3l-96.1-27.9c0.2-1.5,0.3-3,0.3-4.5
			c0-6-1.7-11.9-5.1-16.9l48.6-55.9c10.3,5.4,22.9,4.5,32.2-2.4l55.8,45.8l7.5-10.6L1130,188.5z M1158.8,295.9
			c9.7,0,17.6,7.9,17.6,17.6s-7.9,17.6-17.6,17.6s-17.6-7.9-17.6-17.6l0,0C1141.3,303.7,1149.1,295.9,1158.8,295.9z"/>
		<path class="st0" d="M934.3,342.8c-1.3,0.8-2.6,1.5-4,2.1l-6.5,56.1c-1.2,0.2-2.6,0.6-3.8,1c5.6-0.5,11.1-1.5,16.6-2.9
			c0.1,0,0.2-0.1,0.3-0.1l7.5-64.2C941.3,337.9,938,340.6,934.3,342.8z"/>
		<path class="st0" d="M1006.2,296.4c2.4,0,4.9-0.3,7.2-0.9c-1.7-2.3-3.3-4.7-4.7-7.2c-0.8-1.5-1.6-3.2-2.3-4.8h-0.1
			c-9.7,0-17.6-7.9-17.6-17.6c0-7.6,4.8-14.2,11.8-16.6c0-0.9,0.1-1.9,0.1-2.9l-24.9,19.3v0.1C975.7,282.7,989.4,296.4,1006.2,296.4
			z"/>
		<path class="st0" d="M217.7,265c7.6-6.1,18.6-5,24.7,2.6c6.1,7.6,5,18.6-2.6,24.7c-6.4,5.2-15.7,5.2-22.1,0v13.3c0,0.5,0,1,0,1.5
			c1.2,0.5,2.4,0.9,3.7,1.2l-1.8,12.4c0.7,2.7,2,5.1,4,7.2c2,2.1,4.6,3.8,7.3,4.6l3.5-23.8c16.5-3.1,27.4-19,24.3-35.5
			c-1.3-6.9-5-13.2-10.3-17.7l12.9-18.1v-22.3l-24.4,34.2c-6.3-1.7-13.1-1.4-19.1,1V265L217.7,265z"/>
		<path class="st0" d="M394.9,409.2c-0.3-0.1-0.7-0.2-1-0.4c-8.2,5.1-19,2.7-24.1-5.5c-1.3-2.1-2.1-4.5-2.6-6.9
			c-4.3-2.6-8.5-5.3-12.5-8.4c0,0.2-0.1,0.3-0.1,0.5l-38,7.1c-9.6,7.7-20.6,13.5-32.4,17c-13.7,4.3-29,6.4-45.5,6.4
			c-11.1,0.1-22.4-1-33.3-3.3l-0.4,2.9c-16.1-4.8-33.2,4.4-38,20.5c-4.8,16.1,4.4,33.2,20.5,38s33.2-4.4,38-20.5
			c3.1-10.3,0.5-21.5-6.8-29.5l136.3-25.7c4.2,16.3,20.8,26.1,37.1,21.9c6.3-1.6,11.9-5.2,16-10.2
			C403.7,412,399.3,410.7,394.9,409.2z M196.5,465.5c-9.7,0-17.6-7.9-17.6-17.6c0-9.7,7.9-17.6,17.6-17.6s17.6,7.9,17.6,17.6l0,0
			C214,457.6,206.2,465.5,196.5,465.5z"/>
		<path class="st0" d="M125.3,252.8L60.5,237c-2.9-16.5-18.6-27.7-35.2-24.8C8.8,215-2.3,230.7,0.5,247.4
			c2.9,16.5,18.6,27.7,35.2,24.8c11.6-2,21.1-10.6,24.2-22l65.4,15.9V252.8z M30.5,259.7c-9.7,0-17.6-7.9-17.6-17.6
			c0-9.7,7.9-17.6,17.6-17.6s17.6,7.9,17.6,17.6l0,0C48.1,251.9,40.2,259.7,30.5,259.7L30.5,259.7z"/>
		<path class="st0" d="M334.5,172.6c10.1-13.5,7.5-32.6-6-42.7c-13.5-10.1-32.6-7.5-42.7,6c-8.2,10.8-8.2,25.8,0,36.6H334.5z
			 M310.1,136.7c9.7,0,17.6,7.9,17.6,17.6s-7.9,17.6-17.6,17.6c-3.5,0-6.8-1-9.8-3l-0.4-0.3c-8-5.6-9.8-16.5-4.3-24.5
			C299.1,139.6,304.4,136.7,310.1,136.7z"/>
		<path class="st0" d="M582.3,415.2c-6.1,7.5-17.3,8.5-24.7,2.3c-0.8-0.7-1.6-1.5-2.3-2.3h-14.8c6.1,15.6,23.9,23.3,39.5,17.1
			c7.9-3.1,14.1-9.3,17.1-17.1H582.3z"/>
		<path class="st0" d="M940.8,415.3c-0.8,0.2-1.6,0.4-2.4,0.6c8.4,4.8,11.3,15.6,6.4,24c-4.9,8.4-15.6,11.3-24,6.4
			c-8.4-4.8-11.3-15.6-6.4-24c0.7-1.2,1.5-2.3,2.4-3.4c-3.7,0.2-7.6,0.4-11.4,0.4c-1.3,0-2.7,0-3.9-0.1c-0.4,0.9-0.7,1.8-1,2.9
			l-9.3-3.6c-11.7-1.2-23.3-4.1-34.2-8.6c-9.2-3.8-17.9-8.6-25.8-14.4l-33.7-12.9c6.2-15.6-1.4-33.3-17-39.5
			c-0.6-0.2-1.3-0.5-1.9-0.7l20.9,49.6l2.7,6.2l97.4,37.2c2.4,16.6,18,28.1,34.6,25.6c16.6-2.4,28.1-18,25.6-34.6
			c-0.8-5.5-3.2-10.7-6.7-15.1C949,412.9,945,414.2,940.8,415.3z"/>
		<path class="st0" d="M1298.6,301.3c-7.9,0-15.4,3.1-21.1,8.5l-89.1-73.3l-7.5,10.6l89.3,73.5c-6.2,15.6,1.5,33.4,17.1,39.5
			s33.4-1.5,39.5-17.1c6.2-15.6-1.5-33.4-17.1-39.5C1306.2,302,1302.5,301.3,1298.6,301.3z M1298.6,349.2c-9.7,0-17.6-7.9-17.6-17.6
			c0-9.7,7.9-17.6,17.6-17.6c9.7,0,17.6,7.9,17.6,17.6l0,0C1316.1,341.4,1308.3,349.2,1298.6,349.2z"/>
		<path class="st0" d="M400.9,177.2c1.2-9.6,10-16.4,19.6-15.2c5,0.6,9.6,3.5,12.5,7.7c4.4-0.4,8.9-0.6,13.6-0.6c0.1,0,0.3,0,0.4,0
			c-5.6-15.8-23.1-24.1-38.9-18.5c-13.6,4.9-21.9,18.6-19.9,32.9C392.3,181,396.6,179,400.9,177.2z"/>
		<path class="st0" d="M1162.8,406.2c-4.7,2.4-9.5,4.5-14.5,6.1c9.2,3.2,14,13.2,10.8,22.4c-3.2,9.2-13.2,14-22.4,10.8
			c-9.2-3.2-14-13.2-10.8-22.4c0.8-2.3,2.1-4.5,3.8-6.3c-6.2,1-12.6,1.6-18.9,1.8l2.1,2.8c-4.1,16.3,5.7,32.9,22,37.1
			s32.9-5.7,37.1-22C1174.8,425.4,1171.3,413.8,1162.8,406.2z"/>
		<path class="st0" d="M496,278.7c-1-0.4-2-0.8-3.2-1.2c-5.8-2.1-12.1-4.1-18.9-5.8l4.6,8.1l-31.7,39.6c5.4,1.2,9.9,2.4,13.7,3.6
			l25-31.1l43.7,76.7c1.1-1.8,2.2-3.8,3.2-5.7c1.3-2.9,2.6-5.7,3.4-8.8l-41.5-73L496,278.7z"/>
		<path class="st0" d="M503.7,254.7l29-41.1c-0.2-0.2-0.4-0.3-0.6-0.5l-31.6,39.4C501.6,253.2,502.6,253.9,503.7,254.7z"/>
		<path class="st0" d="M410.7,208.9l-18.7,91.9c3.8,2.3,7.9,4.4,11.9,6.1l19.8-97.4c4.3-0.7,8.4-2.4,11.9-4.9l17,29.9
			c5.7,0.6,11.3,1.7,16.7,3.4l-24.6-43.3c1.3-2.2,2.3-4.7,3-7.2l71.7,16.8c-7.9-4.8-16.2-8.7-24.9-11.5c-14.1-4.7-30.1-7-48.1-7
			c-4.1,0-8.1,0.2-11.9,0.5c-3.7,9-13.9,13.3-22.9,9.6c-1.7-0.7-3.4-1.7-4.9-3c-4.2,1.7-8.2,3.8-11.9,6.1
			C399,203.7,404.5,207.3,410.7,208.9z"/>
		<path class="st0" d="M535,194.6c2.8,1.9,5.5,4,8.2,6.1l12,9.8l-1.3,1.8l35.6,8.3l-11.9,70.1l21.9-52l2.6-15.1l3.5,0.8l5.1-12
			l-6.4-1.5l8-46.3c16.5-3.1,27.6-19,24.5-35.5c-3.1-16.5-19-27.6-35.5-24.5s-27.6,19-24.5,35.5c0.7,4.2,2.3,8.1,4.7,11.5L545,196.9
			L535,194.6z M606.6,117c9.7,0,17.6,7.9,17.6,17.6s-7.9,17.6-17.6,17.6s-17.6-7.9-17.6-17.6l0,0C589.1,124.9,596.9,117,606.6,117z
			 M590.7,160.6c2.6,1.6,5.4,2.8,8.4,3.6l-7.5,43.8l-32.7-7.7L590.7,160.6z"/>
		<polygon class="st0" points="295.6,189.2 279.8,189.2 277.7,191.9 277.7,214.2 		"/>
		<path class="st0" d="M449.2,337L449.2,337c-2.4-0.6-5.3-1.3-8.4-2h-0.1h-0.1c-1.8-0.4-3.6-0.8-5.4-1.3l-0.7,0.9
			C439.4,335.8,444.3,336.6,449.2,337z"/>
		<polygon class="st0" points="695.5,377.8 685,377.8 632.6,389 626.8,403.3 699.6,387.9 		"/>
		<path class="st0" d="M228.4,348.9c-4.4-1-8.6-3-12.2-5.5l-8.3,56c4.2,0.9,8.5,1.6,12.8,2.1L228.4,348.9z"/>
	</g>
</g>
</svg>
